<svg width="49" height="51" viewBox="0 0 49 51" fill="none" xmlns="http://www.w3.org/2000/svg">
<path id="neurology" d="M17.9755 50.0534C15.7383 50.0534 13.8215 49.2833 12.2253 47.7429C10.6291 46.202 9.78308 44.319 9.6873 42.0937C7.19318 41.6562 5.12107 40.4685 3.47096 38.5306C1.82135 36.5932 0.996551 34.3333 0.996551 31.7509C0.996551 30.834 1.11452 29.9282 1.35047 29.0333C1.58641 28.1389 1.94032 27.2989 2.41221 26.5132C1.74828 25.6537 1.25045 24.7002 0.918734 23.6527C0.586517 22.6057 0.42041 21.5063 0.42041 20.3545C0.42041 17.6549 1.31255 15.3204 3.09685 13.351C4.88114 11.3817 7.09142 10.2551 9.7277 9.97124C9.68929 9.8176 9.67009 9.66421 9.67009 9.51107V8.99255C9.70451 6.71742 10.5256 4.79994 12.1333 3.24012C13.741 1.6803 15.6884 0.900391 17.9755 0.900391C19.4261 0.900391 20.6644 1.18821 21.6905 1.76385C22.7171 2.33949 23.7234 3.1855 24.7096 4.30186C25.7227 3.1855 26.7261 2.33949 27.7198 1.76385C28.7134 1.18821 29.9547 0.900391 31.4437 0.900391C33.6765 0.900391 35.5977 1.68703 37.2074 3.26032C38.8176 4.83361 39.6399 6.73862 39.6743 8.97534V9.49387C39.6743 9.64701 39.6551 9.8004 39.6167 9.95403C42.253 10.2379 44.4757 11.3582 46.285 13.3151C48.0942 15.272 48.9988 17.6185 48.9988 20.3545C48.9988 21.5063 48.8232 22.6057 48.4721 23.6527C48.1209 24.7002 47.6133 25.6537 46.9494 26.5132C47.4213 27.2959 47.7849 28.1351 48.0403 29.031C48.2952 29.9264 48.4227 30.833 48.4227 31.7509C48.4227 34.3832 47.5949 36.6653 45.9393 38.5972C44.2837 40.5292 42.1896 41.6947 39.6571 42.0937C39.5613 44.319 38.7278 46.202 37.1565 47.7429C35.5852 49.2833 33.681 50.0534 31.4437 50.0534C29.9283 50.0534 28.6802 49.7686 27.6996 49.199C26.7194 48.6293 25.7227 47.7668 24.7096 46.6116C23.685 47.7668 22.6759 48.6293 21.6823 49.199C20.6886 49.7686 19.453 50.0534 17.9755 50.0534ZM26.2061 9.13097V41.8228C26.2061 43.2894 26.7149 44.529 27.7325 45.5416C28.7496 46.5542 29.9949 47.0605 31.4684 47.0605C32.8716 47.0605 34.0693 46.5657 35.0614 45.576C36.0531 44.5858 36.5931 43.4001 36.6814 42.0189C35.2118 41.8882 33.8488 41.4669 32.5923 40.7551C31.3352 40.0433 30.281 39.0793 29.4295 37.8632C29.1606 37.51 29.0584 37.1391 29.1227 36.7506C29.1866 36.3615 29.3981 36.0455 29.7572 35.8026C30.1104 35.5342 30.4887 35.4319 30.8923 35.4958C31.2953 35.5601 31.6231 35.7719 31.8755 36.131C32.5648 37.1337 33.4423 37.9014 34.5078 38.4341C35.5732 38.9668 36.7198 39.2332 37.9474 39.2332C40.0539 39.2332 41.8277 38.5127 43.2688 37.0716C44.7094 35.631 45.4297 33.8574 45.4297 31.7509C45.4297 31.2456 45.3694 30.7402 45.2487 30.2349C45.1279 29.7296 44.9601 29.2373 44.7451 28.7579C43.8971 29.4099 42.9369 29.9182 41.8644 30.2828C40.7919 30.6475 39.6783 30.8298 38.5235 30.8298C38.0995 30.8298 37.7441 30.6861 37.4573 30.3988C37.1705 30.1115 37.0271 29.7556 37.0271 29.3311C37.0271 28.9066 37.1705 28.5514 37.4573 28.2656C37.7441 27.9798 38.0995 27.8368 38.5235 27.8368C40.6301 27.8368 42.4036 27.1163 43.8442 25.6752C45.2853 24.2346 46.0059 22.461 46.0059 20.3545C46.0059 18.3078 45.3045 16.5712 43.9018 15.1445C42.4991 13.7179 40.7829 12.9604 38.7532 12.8721C38.2813 13.8084 37.6473 14.6228 36.8512 15.3151C36.0551 16.008 35.1525 16.554 34.1434 16.953C33.7673 17.0987 33.3941 17.0865 33.024 16.9164C32.6539 16.7463 32.4072 16.4669 32.284 16.0783C32.1498 15.7022 32.1585 15.3221 32.3102 14.938C32.4618 14.5544 32.7447 14.2955 33.1587 14.1614C34.2142 13.7967 35.0652 13.156 35.7117 12.2391C36.3581 11.3218 36.6814 10.276 36.6814 9.10179C36.6814 7.65171 36.1748 6.42111 35.1617 5.41C34.1481 4.39888 32.9078 3.89333 31.4407 3.89333C29.9732 3.89333 28.7339 4.39963 27.7228 5.41225C26.7116 6.42486 26.2061 7.66443 26.2061 9.13097ZM23.2131 41.8228V9.13097C23.2131 7.66443 22.7066 6.42486 21.6935 5.41225C20.6799 4.39963 19.4395 3.89333 17.9725 3.89333C16.505 3.89333 15.2656 4.39963 14.2545 5.41225C13.2434 6.42486 12.7379 7.66443 12.7379 9.13097C12.7379 10.2743 13.0583 11.3073 13.6993 12.2302C14.3398 13.153 15.1878 13.7967 16.2433 14.1614C16.6189 14.2955 16.9048 14.545 17.1008 14.9096C17.2964 15.2742 17.3303 15.6486 17.2026 16.0327C17.0494 16.4173 16.7811 16.6936 16.3975 16.8617C16.0144 17.0298 15.6156 17.0411 15.201 16.8954C14.1919 16.4963 13.2893 15.9601 12.4932 15.2867C11.6971 14.6133 11.0631 13.8084 10.5912 12.8721C8.61134 12.9604 6.92008 13.7249 5.51739 15.1655C4.1147 16.6066 3.41335 18.3425 3.41335 20.3732C3.41335 22.4673 4.1339 24.2346 5.575 25.6752C7.0156 27.1163 8.78917 27.8368 10.8957 27.8368C11.3197 27.8368 11.6751 27.9805 11.9619 28.2678C12.2488 28.5547 12.3922 28.9106 12.3922 29.3356C12.3922 29.7601 12.2488 30.1152 11.9619 30.401C11.6751 30.6869 11.3197 30.8298 10.8957 30.8298C9.74092 30.8298 8.6273 30.6475 7.55483 30.2828C6.48236 29.9182 5.52212 29.4099 4.67413 28.7579C4.45913 29.2373 4.29128 29.7296 4.17056 30.2349C4.04985 30.7402 3.98949 31.2456 3.98949 31.7509C3.98949 33.8574 4.70979 35.631 6.15039 37.0716C7.59149 38.5127 9.36531 39.2332 11.4718 39.2332C12.7109 39.2332 13.8572 38.9636 14.9107 38.4244C15.9637 37.8851 16.8414 37.1207 17.5438 36.131C17.7962 35.7719 18.1239 35.5601 18.5269 35.4958C18.9305 35.4319 19.3089 35.5247 19.662 35.7741C20.0152 36.0235 20.2252 36.3458 20.292 36.7408C20.3594 37.1359 20.2586 37.51 19.9897 37.8632C19.0998 39.0793 18.0236 40.0463 16.7611 40.7641C15.4986 41.4814 14.1326 41.9054 12.663 42.0361C12.7513 43.4173 13.3038 44.6001 14.3204 45.5842C15.3375 46.5684 16.5476 47.0605 17.9508 47.0605C19.4243 47.0605 20.6696 46.5542 21.6867 45.5416C22.7043 44.529 23.2131 43.2894 23.2131 41.8228Z" fill="#D4B2FF"/>
</svg>
