<svg width="51" height="69" viewBox="0 0 51 69" fill="none" xmlns="http://www.w3.org/2000/svg">
<path id="emoji_objects" d="M25.4204 68.2177C23.9437 68.2177 22.6721 67.788 21.6054 66.9287C20.5387 66.07 19.9131 64.9664 19.7284 63.6177H17.4204C16.3484 63.6177 15.4137 63.2187 14.6164 62.4207C13.8191 61.6234 13.4204 60.6887 13.4204 59.6167V47.5707C9.28174 45.2787 6.08041 42.153 3.81641 38.1937C1.55241 34.235 0.42041 30.0634 0.42041 25.6787C0.42041 18.6887 2.83974 12.7747 7.67841 7.93671C12.5164 3.09805 18.4304 0.678711 25.4204 0.678711C32.4104 0.678711 38.3244 3.09805 43.1624 7.93671C48.0011 12.7747 50.4204 18.6887 50.4204 25.6787C50.4204 30.094 49.2884 34.2734 47.0244 38.2167C44.7604 42.1607 41.5591 45.2787 37.4204 47.5707V59.6167C37.4204 60.6887 37.0217 61.6234 36.2244 62.4207C35.4271 63.2187 34.4924 63.6177 33.4204 63.6177H31.1124C30.9277 64.9664 30.3021 66.07 29.2354 66.9287C28.1687 67.788 26.8971 68.2177 25.4204 68.2177ZM17.4204 59.6167H33.4204V55.7097H17.4204V59.6167ZM17.4204 52.6327H33.4204V48.6787H17.4204V52.6327ZM16.6204 44.6787H23.6514V32.1867L15.3124 23.8477L17.8204 21.3407L25.4204 28.9407L33.0204 21.3407L35.5284 23.8477L27.1894 32.1867V44.6787H34.2204C37.8204 42.9454 40.7537 40.3954 43.0204 37.0287C45.2871 33.662 46.4204 29.8787 46.4204 25.6787C46.4204 19.812 44.3871 14.8454 40.3204 10.7787C36.2537 6.71204 31.2871 4.67871 25.4204 4.67871C19.5537 4.67871 14.5871 6.71204 10.5204 10.7787C6.45374 14.8454 4.42041 19.812 4.42041 25.6787C4.42041 29.8787 5.55374 33.662 7.82041 37.0287C10.0871 40.3954 13.0204 42.9454 16.6204 44.6787Z" fill="#D4B2FF"/>
</svg>
