<svg width="51" height="52" viewBox="0 0 51 52" fill="none" xmlns="http://www.w3.org/2000/svg">
<path id="category_search" d="M0.0146484 45.0404V28.3191H16.7359V45.0404H0.0146484ZM2.60247 42.4525H14.1481V30.907H2.60247V42.4525ZM10.6642 17.8682L21.3144 0.350586L31.9646 17.8682H10.6642ZM15.1735 15.2804H27.4553L21.3144 5.43695L15.1735 15.2804ZM48.1831 51.0816L41.425 44.3235C40.6185 44.9606 39.7201 45.4551 38.7298 45.807C37.7395 46.1585 36.6787 46.3343 35.5474 46.3343C32.8436 46.3343 30.5585 45.4012 28.6923 43.5349C26.826 41.6687 25.8929 39.3836 25.8929 36.6798C25.8929 33.9759 26.826 31.6909 28.6923 29.8246C30.5585 27.9584 32.8436 27.0252 35.5474 27.0252C38.2513 27.0252 40.5363 27.9584 42.4026 29.8246C44.2688 31.6909 45.2019 33.9759 45.2019 36.6798C45.2019 37.8012 45.0262 38.8488 44.6747 39.8227C44.3227 40.7961 43.8498 41.6861 43.2559 42.4927L50.0146 49.2508L48.1831 51.0816ZM35.5461 43.7465C37.5245 43.7465 39.1971 43.0635 40.5639 41.6976C41.9307 40.3316 42.6141 38.6594 42.6141 36.6811C42.6141 34.7027 41.9311 33.0301 40.5652 31.6633C39.1993 30.2965 37.5271 29.6131 35.5487 29.6131C33.5703 29.6131 31.8977 30.296 30.5309 31.662C29.1641 33.0279 28.4807 34.7001 28.4807 36.6785C28.4807 38.6569 29.1637 40.3295 30.5296 41.6963C31.8956 43.0631 33.5677 43.7465 35.5461 43.7465Z" fill="#D4B2FF"/>
</svg>
