<svg width="42" height="51" viewBox="0 0 42 51" fill="none" xmlns="http://www.w3.org/2000/svg">
<path id="difference" d="M24.8896 22.1294H27.2998V17.1294H32.1203V14.6294H27.2998V9.62939H24.8896V14.6294H20.0692V17.1294H24.8896V22.1294ZM20.0692 32.1294H32.1203V29.6294H20.0692V32.1294ZM14.3221 40.8794C13.2126 40.8794 12.2863 40.494 11.5431 39.7231C10.8 38.9523 10.4284 37.9915 10.4284 36.8406V4.91814C10.4284 3.76731 10.8 2.80648 11.5431 2.03564C12.2863 1.26481 13.2126 0.879395 14.3221 0.879395H30.9151L41.7611 12.1294V36.8406C41.7611 37.9915 41.3895 38.9523 40.6464 39.7231C39.9032 40.494 38.9769 40.8794 37.8674 40.8794H14.3221ZM14.3221 38.3794H37.8674C38.2386 38.3794 38.5786 38.2192 38.8875 37.8988C39.1964 37.5784 39.3509 37.2256 39.3509 36.8406V13.3794L29.71 3.37939H14.3221C13.9509 3.37939 13.6109 3.5396 13.302 3.86002C12.9931 4.18044 12.8386 4.53314 12.8386 4.91814V36.8406C12.8386 37.2256 12.9931 37.5784 13.302 37.8988C13.6109 38.2192 13.9509 38.3794 14.3221 38.3794ZM4.68128 50.8794C3.57178 50.8794 2.64546 50.494 1.90232 49.7231C1.15917 48.9523 0.787598 47.9915 0.787598 46.8406V15.8794H3.1978V46.8406C3.1978 47.2256 3.35226 47.5784 3.66116 47.8988C3.97007 48.2192 4.31011 48.3794 4.68128 48.3794H27.2998V50.8794H4.68128Z" fill="#D4B2FF"/>
</svg>
