<svg width="206" height="43" viewBox="0 0 206 43" fill="none" xmlns="http://www.w3.org/2000/svg">
<path d="M53.908 26.3177C51.8486 26.3177 50.2781 25.8362 49.1965 24.8732C48.1298 23.9101 47.5964 22.5026 47.5964 20.6506V15.9169C47.5964 14.0946 48.115 12.7019 49.1521 11.7388C50.204 10.761 51.7152 10.272 53.6858 10.272C54.9747 10.272 56.0785 10.4795 56.9971 10.8943C57.9157 11.2943 58.6713 11.924 59.264 12.7833L58.1305 13.6056C57.612 12.9093 56.9971 12.3981 56.286 12.0722C55.5896 11.7314 54.7451 11.561 53.7524 11.561C52.2708 11.561 51.1374 11.9314 50.3522 12.6722C49.5817 13.413 49.1965 14.4946 49.1965 15.9169V20.6506C49.1965 22.0878 49.5892 23.1767 50.3744 23.9175C51.1745 24.6583 52.3449 25.0287 53.8858 25.0287C54.9081 25.0287 55.7748 24.8583 56.486 24.5176C57.1971 24.1768 57.812 23.6434 58.3306 22.9174L59.464 23.7842C58.7973 24.6731 58.0268 25.3176 57.1527 25.7177C56.2785 26.1177 55.197 26.3177 53.908 26.3177ZM65.7327 26.3177C64.34 26.3177 63.251 25.9695 62.4658 25.2732C61.6953 24.562 61.3101 23.5693 61.3101 22.2952V19.4061C61.3101 18.1319 61.6953 17.1466 62.4658 16.4503C63.251 15.7391 64.34 15.3835 65.7327 15.3835C67.1254 15.3835 68.2069 15.7391 68.9774 16.4503C69.7626 17.1466 70.1552 18.1319 70.1552 19.4061V22.2952C70.1552 23.5693 69.7626 24.562 68.9774 25.2732C68.2069 25.9695 67.1254 26.3177 65.7327 26.3177ZM65.7327 25.1176C66.6661 25.1176 67.3847 24.8732 67.8884 24.3842C68.407 23.8953 68.6662 23.199 68.6662 22.2952V19.4061C68.6662 18.5023 68.407 17.806 67.8884 17.317C67.3847 16.8281 66.6661 16.5836 65.7327 16.5836C64.7993 16.5836 64.0733 16.8281 63.5547 17.317C63.051 17.806 62.7991 18.5023 62.7991 19.4061V22.2952C62.7991 23.199 63.051 23.8953 63.5547 24.3842C64.0733 24.8732 64.7993 25.1176 65.7327 25.1176ZM78.238 15.3835C78.7861 15.3835 79.2677 15.5169 79.6825 15.7836L79.2825 17.1392C78.8528 16.8874 78.3787 16.7614 77.8602 16.7614C77.1342 16.7614 76.4971 17.1022 75.9489 17.7837C75.4007 18.4653 75.0081 19.4061 74.771 20.6062V26.0732H73.282V17.517C73.282 17.2504 73.2302 17.0355 73.1265 16.8725C73.0376 16.6948 72.8598 16.4947 72.5931 16.2725L73.5932 15.3835C74.0376 15.6354 74.3414 15.9243 74.5043 16.2503C74.6821 16.5614 74.771 16.9985 74.771 17.5615V18.1393C75.1118 17.2652 75.5785 16.591 76.1711 16.1169C76.7786 15.628 77.4675 15.3835 78.238 15.3835ZM90.2007 24.1842C90.2007 24.4509 90.2451 24.6731 90.334 24.8509C90.4377 25.0139 90.6229 25.2065 90.8896 25.4287L89.9118 26.3177C89.5414 26.1103 89.2673 25.8436 89.0895 25.5176C88.9117 25.1769 88.808 24.8287 88.7783 24.4731C88.0079 25.7028 86.83 26.3177 85.2447 26.3177C84.3261 26.3177 83.5187 26.1103 82.8223 25.6954C82.1408 25.2658 81.6074 24.6657 81.2222 23.8953C80.8518 23.1249 80.6666 22.2285 80.6666 21.2062V20.495C80.6666 19.4727 80.8518 18.5764 81.2222 17.806C81.6074 17.0355 82.1408 16.4429 82.8223 16.028C83.5187 15.5984 84.3261 15.3835 85.2447 15.3835C86.0003 15.3835 86.6745 15.5317 87.2671 15.828C87.8746 16.1243 88.3561 16.5466 88.7117 17.0948V12.1166C88.7117 11.8499 88.6672 11.6351 88.5783 11.4721C88.4894 11.3092 88.3042 11.1017 88.0227 10.8499L89.045 9.98314C89.4747 10.2202 89.771 10.5017 89.934 10.8276C90.1118 11.1536 90.2007 11.5981 90.2007 12.1611V24.1842ZM88.7117 18.9838C88.4598 18.1838 88.0746 17.5837 87.556 17.1837C87.0375 16.7837 86.3485 16.5836 85.4892 16.5836C84.4817 16.5836 83.6742 16.9392 83.0668 17.6504C82.4593 18.3615 82.1556 19.3098 82.1556 20.495V21.2062C82.1556 22.3915 82.4593 23.3397 83.0668 24.0509C83.6742 24.762 84.4817 25.1176 85.4892 25.1176C86.3485 25.1176 87.0375 24.9176 87.556 24.5176C88.0746 24.1175 88.4598 23.5175 88.7117 22.7174V18.9838ZM97.8356 25.1176C98.4727 25.1176 99.0357 25.0213 99.5246 24.8287C100.014 24.6361 100.465 24.325 100.88 23.8953L101.814 24.762C101.34 25.2954 100.777 25.688 100.125 25.9399C99.4728 26.1918 98.6801 26.3177 97.7467 26.3177C96.3244 26.3177 95.2132 25.9843 94.4131 25.3176C93.6279 24.6361 93.2353 23.6879 93.2353 22.473V19.0949C93.2353 17.9541 93.6205 17.0577 94.3909 16.4058C95.1762 15.7391 96.2503 15.4058 97.6134 15.4058C99.0061 15.4058 100.073 15.7539 100.814 16.4503C101.569 17.1466 101.947 18.1319 101.947 19.4061C101.947 20.2209 101.791 20.784 101.48 21.0951C101.184 21.3914 100.621 21.5396 99.7913 21.5396H94.7243V22.473C94.7243 23.3619 94.9761 24.0286 95.4799 24.4731C95.9984 24.9028 96.7837 25.1176 97.8356 25.1176ZM97.5912 16.5836C96.7022 16.5836 95.9984 16.8207 95.4799 17.2948C94.9761 17.7541 94.7243 18.3838 94.7243 19.1838V20.4506H99.1691C99.6728 20.4506 100.014 20.3691 100.191 20.2061C100.369 20.0283 100.458 19.7024 100.458 19.2283C100.458 18.3986 100.206 17.7541 99.7024 17.2948C99.1987 16.8207 98.4949 16.5836 97.5912 16.5836ZM105.952 26.3177C105.492 26.0658 105.174 25.7843 104.996 25.4732C104.833 25.1472 104.751 24.7028 104.751 24.1398V12.0944C104.751 11.8129 104.7 11.5907 104.596 11.4277C104.507 11.2499 104.329 11.0573 104.062 10.8499L105.04 9.96091C105.5 10.2128 105.811 10.5017 105.974 10.8276C106.152 11.1388 106.24 11.5759 106.24 12.1389V24.1842C106.24 24.4509 106.285 24.6731 106.374 24.8509C106.477 25.0139 106.663 25.2065 106.929 25.4287L105.952 26.3177ZM110.805 13.2723C110.523 13.2723 110.279 13.1686 110.071 12.9611C109.864 12.7537 109.76 12.5093 109.76 12.2278C109.76 11.9462 109.864 11.7092 110.071 11.5166C110.279 11.3092 110.523 11.2055 110.805 11.2055C111.086 11.2055 111.323 11.3092 111.516 11.5166C111.723 11.7092 111.827 11.9462 111.827 12.2278C111.827 12.5093 111.723 12.7537 111.516 12.9611C111.323 13.1686 111.086 13.2723 110.805 13.2723ZM111.249 26.3177C110.79 26.0658 110.471 25.7843 110.294 25.4732C110.131 25.1472 110.049 24.7028 110.049 24.1398V15.628H111.538V24.1842C111.538 24.4509 111.582 24.6731 111.671 24.8509C111.775 25.0139 111.96 25.2065 112.227 25.4287L111.249 26.3177ZM123.454 24.1842C123.454 24.4509 123.498 24.6731 123.587 24.8509C123.691 25.0139 123.876 25.2065 124.143 25.4287L123.143 26.3177C122.772 26.1103 122.498 25.8732 122.32 25.6065C122.142 25.3399 122.039 24.9917 122.009 24.562C121.624 25.125 121.098 25.5621 120.431 25.8732C119.765 26.1695 119.016 26.3177 118.187 26.3177C117.061 26.3177 116.194 26.0584 115.586 25.5399C114.979 25.0065 114.675 24.2435 114.675 23.2508C114.675 22.3322 114.994 21.6136 115.631 21.0951C116.268 20.5765 117.231 20.2432 118.52 20.095L120.253 19.895C120.742 19.8357 121.105 19.7617 121.342 19.6728C121.594 19.5839 121.765 19.4579 121.854 19.295C121.942 19.1172 121.98 18.8727 121.965 18.5616C121.831 17.1837 120.868 16.4947 119.076 16.4947C118.409 16.4947 117.838 16.6059 117.364 16.8281C116.89 17.0355 116.483 17.3689 116.142 17.8282L115.12 17.0726C115.816 15.9466 117.135 15.3835 119.076 15.3835C120.498 15.3835 121.579 15.6873 122.32 16.2947C123.076 16.9022 123.454 17.7763 123.454 18.9171V24.1842ZM118.52 25.1621C119.557 25.1621 120.394 24.8954 121.031 24.362C121.668 23.8286 121.987 23.1249 121.987 22.2507V20.4506C121.809 20.5839 121.594 20.6877 121.342 20.7617C121.091 20.821 120.742 20.8728 120.298 20.9173L118.653 21.0951C117.809 21.1988 117.164 21.4359 116.72 21.8063C116.29 22.1618 116.075 22.6359 116.075 23.2286C116.075 24.5176 116.89 25.1621 118.52 25.1621ZM133.462 16.4947C134.573 16.6429 135.425 17.0133 136.017 17.6059C136.61 18.1986 137.114 19.1764 137.529 20.5395L139.084 26.0732H137.484L135.951 20.6728C135.743 19.9469 135.499 19.3838 135.217 18.9838C134.951 18.569 134.588 18.2652 134.128 18.0726C133.669 17.88 133.054 17.7541 132.284 17.6948L128.906 21.184V26.0732H127.306V10.5165H128.906V19.2505L137.262 10.5165H139.24L133.462 16.4947ZM146.624 15.3835C147.172 15.3835 147.654 15.5169 148.069 15.7836L147.669 17.1392C147.239 16.8874 146.765 16.7614 146.246 16.7614C145.52 16.7614 144.883 17.1022 144.335 17.7837C143.787 18.4653 143.394 19.4061 143.157 20.6062V26.0732H141.668V17.517C141.668 17.2504 141.616 17.0355 141.513 16.8725C141.424 16.6948 141.246 16.4947 140.979 16.2725L141.979 15.3835C142.424 15.6354 142.728 15.9243 142.891 16.2503C143.068 16.5614 143.157 16.9985 143.157 17.5615V18.1393C143.498 17.2652 143.965 16.591 144.557 16.1169C145.165 15.628 145.854 15.3835 146.624 15.3835ZM157.723 24.1842C157.723 24.4509 157.767 24.6731 157.856 24.8509C157.96 25.0139 158.145 25.2065 158.412 25.4287L157.412 26.3177C157.041 26.1103 156.767 25.8732 156.589 25.6065C156.412 25.3399 156.308 24.9917 156.278 24.562C155.893 25.125 155.367 25.5621 154.7 25.8732C154.034 26.1695 153.285 26.3177 152.456 26.3177C151.33 26.3177 150.463 26.0584 149.856 25.5399C149.248 25.0065 148.944 24.2435 148.944 23.2508C148.944 22.3322 149.263 21.6136 149.9 21.0951C150.537 20.5765 151.5 20.2432 152.789 20.095L154.523 19.895C155.011 19.8357 155.374 19.7617 155.612 19.6728C155.863 19.5839 156.034 19.4579 156.123 19.295C156.212 19.1172 156.249 18.8727 156.234 18.5616C156.1 17.1837 155.137 16.4947 153.345 16.4947C152.678 16.4947 152.108 16.6059 151.633 16.8281C151.159 17.0355 150.752 17.3689 150.411 17.8282L149.389 17.0726C150.085 15.9466 151.404 15.3835 153.345 15.3835C154.767 15.3835 155.849 15.6873 156.589 16.2947C157.345 16.9022 157.723 17.7763 157.723 18.9171V24.1842ZM152.789 25.1621C153.826 25.1621 154.663 24.8954 155.3 24.362C155.937 23.8286 156.256 23.1249 156.256 22.2507V20.4506C156.078 20.5839 155.863 20.6877 155.612 20.7617C155.36 20.821 155.011 20.8728 154.567 20.9173L152.922 21.0951C152.078 21.1988 151.433 21.4359 150.989 21.8063C150.559 22.1618 150.344 22.6359 150.344 23.2286C150.344 24.5176 151.159 25.1621 152.789 25.1621ZM165.069 11.3832C164.299 11.3832 163.706 11.6129 163.291 12.0722C162.876 12.5167 162.669 13.1612 162.669 14.0057V15.628H165.669V16.8281H162.669V26.0732H161.18V14.0057C161.18 12.7759 161.513 11.8351 162.18 11.1832C162.861 10.5165 163.824 10.1832 165.069 10.1832H165.669V11.3832H165.069ZM169.394 16.8281V23.0508C169.394 24.3694 169.971 25.0287 171.127 25.0287H172.394V26.2066H171.127C170.016 26.2066 169.201 25.9547 168.682 25.451C168.164 24.9324 167.905 24.1324 167.905 23.0508V13.2056C167.905 12.9389 167.853 12.7241 167.749 12.5611C167.66 12.3833 167.482 12.1833 167.216 11.9611L168.216 11.0721C168.66 11.324 168.964 11.6129 169.127 11.9388C169.305 12.25 169.394 12.687 169.394 13.2501V15.628H172.394V16.8281H169.394Z" fill="#1E1E1E"/>
<circle cx="21.9502" cy="21.5999" r="21.1106" fill="#FCE069"/>
<path d="M21.6554 21.1974C19.2921 21.1974 17.1489 19.8166 16.194 17.6796L16.6977 17.4545C17.5632 19.393 19.5094 20.6458 21.6554 20.6458C24.6414 20.6458 27.0703 18.2478 27.0703 15.3009C27.0703 12.354 24.6414 9.95594 21.6554 9.95594C19.4626 9.95594 17.4998 11.2468 16.6558 13.2443L16.1477 13.0297C17.0783 10.8275 19.2408 9.4043 21.6554 9.4043C24.9454 9.4043 27.622 12.0494 27.622 15.3009C27.622 18.5523 24.9454 21.1974 21.6554 21.1974Z" fill="black"/>
<path d="M22.1143 22.3438C24.4776 22.3438 26.6207 23.7245 27.5756 25.8616L27.072 26.0867C26.2064 24.1482 24.2602 22.8954 22.1143 22.8954C19.1283 22.8954 16.6994 25.2934 16.6994 28.2403C16.6994 31.1872 19.1283 33.5852 22.1143 33.5852C24.3071 33.5852 26.2699 32.2944 27.1139 30.2968L27.622 30.5114C26.6913 32.7136 24.5289 34.1369 22.1143 34.1369C18.8243 34.1369 16.1477 31.4917 16.1477 28.2403C16.1477 24.9889 18.8243 22.3438 22.1143 22.3438Z" fill="black"/>
<path d="M28.1239 27.6671C25.7606 27.6671 23.6175 26.2864 22.6625 24.1493L23.1662 23.9242C24.0317 25.8627 25.9779 27.1155 28.1239 27.1155C31.1099 27.1155 33.5388 24.7175 33.5388 21.7706C33.5388 18.8237 31.1099 16.4257 28.1239 16.4257C25.9311 16.4257 23.9683 17.7165 23.1243 19.714L22.6162 19.4994C23.5468 17.2973 25.7093 15.874 28.1239 15.874C31.4139 15.874 34.0905 18.5192 34.0905 21.7706C34.0905 25.022 31.4139 27.6671 28.1239 27.6671Z" fill="black"/>
<path d="M15.6434 15.874C18.0066 15.874 20.1498 17.2548 21.1047 19.3919L20.601 19.617C19.7355 17.6785 17.7893 16.4257 15.6434 16.4257C12.6573 16.4257 10.2284 18.8237 10.2284 21.7706C10.2284 24.7175 12.6573 27.1155 15.6434 27.1155C17.8362 27.1155 19.7989 25.8246 20.643 23.8271L21.151 24.0417C20.2204 26.2439 18.0579 27.6671 15.6434 27.6671C12.3534 27.6671 9.67676 25.022 9.67676 21.7706C9.67676 18.5192 12.3534 15.874 15.6434 15.874Z" fill="black"/>
<path d="M21.864 36.4283C17.9545 36.4283 14.2794 34.9058 11.5151 32.1415C8.75082 29.3772 7.22827 25.7015 7.22827 21.792C7.22827 17.8825 8.75082 14.2074 11.5151 11.4431C14.2794 8.6788 17.9551 7.15625 21.864 7.15625C25.773 7.15625 29.4486 8.6788 32.2129 11.4431C34.9772 14.2074 36.4998 17.883 36.4998 21.792C36.4998 25.701 34.9772 29.3766 32.2129 32.1409C29.4486 34.9052 25.773 36.4278 21.864 36.4278V36.4283ZM21.864 7.7079C18.1018 7.7079 14.5652 9.17307 11.9051 11.8331C9.24509 14.4932 7.77992 18.0303 7.77992 21.792C7.77992 25.5537 9.24509 29.0908 11.9051 31.7509C14.5652 34.4109 18.1023 35.8761 21.864 35.8761C25.6257 35.8761 29.1629 34.4109 31.8229 31.7509C34.483 29.0908 35.9481 25.5537 35.9481 21.792C35.9481 18.0303 34.483 14.4932 31.8229 11.8331C29.1629 9.17307 25.6257 7.7079 21.864 7.7079Z" fill="black"/>
</svg>
