<svg width="40" height="55" viewBox="0 0 40 55" fill="none" xmlns="http://www.w3.org/2000/svg">
<path id="lightbulb" d="M20.1111 54.5779C18.7367 54.5779 17.5414 54.1176 16.5253 53.1971C15.5091 52.2765 14.9053 51.1292 14.7137 49.7553H25.5085C25.3169 51.1292 24.713 52.2765 23.6969 53.1971C22.6808 54.1176 21.4855 54.5779 20.1111 54.5779ZM9.66117 44.4729V41.4872H30.561V44.4729H9.66117ZM9.83359 36.2047C7.01261 34.3561 4.78579 32.0116 3.15311 29.1712C1.52044 26.3308 0.704102 23.2016 0.704102 19.7834C0.704102 14.3669 2.58459 9.7784 6.34556 6.01793C10.106 2.25695 14.6945 0.376465 20.1111 0.376465C25.5276 0.376465 30.1161 2.25695 33.8766 6.01793C37.6376 9.7784 39.5181 14.3669 39.5181 19.7834C39.5181 23.2016 38.7017 26.3308 37.0691 29.1712C35.4364 32.0116 33.2096 34.3561 30.3886 36.2047H9.83359ZM10.7062 33.2191H29.516C31.7553 31.6267 33.4845 29.6611 34.7036 27.3223C35.9228 24.9835 36.5324 22.4706 36.5324 19.7834C36.5324 15.2054 34.94 11.324 31.7553 8.13926C28.5705 4.95452 24.6891 3.36215 20.1111 3.36215C15.533 3.36215 11.6516 4.95452 8.4669 8.13926C5.28216 11.324 3.68979 15.2054 3.68979 19.7834C3.68979 22.4706 4.29937 24.9835 5.51853 27.3223C6.73768 29.6611 8.4669 31.6267 10.7062 33.2191Z" fill="#D4B2FF"/>
</svg>
