<svg width="389" height="207" viewBox="0 0 389 207" fill="none" xmlns="http://www.w3.org/2000/svg">
<path fill-rule="evenodd" clip-rule="evenodd" d="M283.121 147.252C285.631 145.907 288.128 144.536 290.624 143.164C296.382 140.001 302.139 136.838 308.054 134.002C313.482 131.398 319.26 129.34 325.102 127.947C326.54 127.605 328.28 128.519 330.022 129.434C330.825 129.856 331.629 130.278 332.403 130.577C332.024 131.276 331.696 132.052 331.368 132.828C330.636 134.559 329.905 136.29 328.6 137.169C325.287 139.401 321.389 140.846 317.586 142.256C317.423 142.316 317.261 142.376 317.099 142.437C306.223 146.486 295.996 151.624 287.084 159.146C288.443 158.807 289.749 158.316 291.047 157.829C292.392 157.323 293.728 156.82 295.105 156.495C295.729 156.347 296.353 156.198 296.977 156.049C303.191 154.564 309.425 153.075 315.741 152.374C317.05 152.228 318.526 153.605 320.003 154.981C320.683 155.616 321.364 156.251 322.028 156.736C321.499 157.324 321.003 157.997 320.507 158.671C319.41 160.159 318.313 161.648 316.853 162.217C314.096 163.285 311.135 163.832 308.169 164.379C306.744 164.642 305.319 164.905 303.915 165.226C299.515 166.237 295.117 167.29 290.722 168.342C289.271 168.689 287.821 169.036 286.371 169.382C289.353 169.898 292.256 169.988 295.094 170.076C297.553 170.152 299.962 170.226 302.33 170.576C303.673 170.771 304.809 172.352 305.946 173.936C306.463 174.657 306.981 175.379 307.52 175.97C306.942 176.32 306.371 176.748 305.801 177.177C304.558 178.11 303.312 179.044 301.982 179.178C298.491 179.531 294.959 179.509 291.087 179.485C289.482 179.475 287.818 179.465 286.075 179.481C286.64 179.978 287.152 180.375 287.6 180.722C288.439 181.373 289.05 181.846 289.35 182.469C290.041 183.92 290.532 185.464 291.021 187.004C291.218 187.624 291.415 188.243 291.624 188.855C290.99 188.937 290.347 189.068 289.704 189.2C288.302 189.486 286.899 189.773 285.586 189.547C283.211 189.142 280.889 188.411 278.565 187.679C277.571 187.366 276.576 187.053 275.577 186.765C275.826 188.032 276.4 188.846 276.9 189.554C277.215 190 277.501 190.405 277.657 190.855C278.133 192.212 278.332 193.664 278.531 195.118C278.615 195.725 278.698 196.332 278.802 196.933C278.22 196.916 277.631 196.93 277.043 196.945C275.741 196.976 274.443 197.008 273.227 196.699C271.649 196.296 270.139 195.615 268.565 194.904C267.881 194.596 267.185 194.281 266.465 193.982C266.177 196.7 265.941 198.949 265.812 200.175C264.627 200.336 263.519 200.487 262.461 200.63C261.181 200.804 259.975 200.968 258.797 201.128V185.706C260.018 176.353 259.868 166.898 259.11 157.369C259.052 156.645 258.993 155.921 258.933 155.196C258.888 154.638 258.842 154.079 258.797 153.521V134.086C259.241 131.058 259.988 128.053 261.169 125.083C272.512 96.5589 292.247 75.295 318.931 60.616C325.772 56.8575 333.235 54.1965 340.68 51.5421C342.948 50.7334 345.215 49.9253 347.461 49.0869C349.057 48.4819 352.163 48.7609 352.904 49.8177C353.936 51.2588 354.116 54.2004 353.297 55.8548C352.026 58.4316 349.952 60.904 347.623 62.6262C345.387 64.2797 342.82 65.4836 340.262 66.6833C339.516 67.0329 338.771 67.3822 338.036 67.7421C316.144 78.4914 297.089 92.7404 282.463 112.481C281.671 113.553 280.855 114.619 280.039 115.684C279.632 116.217 279.224 116.75 278.819 117.283C279.108 117.486 279.402 117.682 279.693 117.877C279.84 117.975 279.987 118.073 280.132 118.171C280.961 117.348 281.786 116.522 282.612 115.696C284.455 113.853 286.297 112.01 288.17 110.202C304.936 94.0696 323.706 81.005 345.93 73.5116C347.519 72.9773 349.452 73.4786 351.386 73.9801C352.283 74.2129 353.181 74.4456 354.044 74.575C353.75 75.4955 353.535 76.4963 353.319 77.4977C352.836 79.7383 352.352 81.9817 350.99 83.3338C348.779 85.531 345.715 86.9242 342.708 88.2913C341.988 88.6182 341.273 88.9436 340.572 89.2782C326.154 96.181 311.821 103.252 299.987 114.226C296.321 117.618 292.956 121.336 289.592 125.053C288.048 126.758 286.505 128.464 284.933 130.137C285.119 130.314 285.308 130.494 285.497 130.674C285.687 130.854 285.876 131.034 286.062 131.212C286.399 130.915 286.737 130.621 287.075 130.326C287.883 129.622 288.691 128.918 289.482 128.186C304.121 114.624 321.086 105.2 340.314 99.9754C341.756 99.5816 343.418 99.996 345.077 100.409C345.846 100.601 346.614 100.793 347.36 100.903C347.083 101.632 346.871 102.448 346.659 103.262C346.192 105.058 345.726 106.85 344.566 107.704C340.733 110.531 336.373 112.851 331.91 114.561C313.146 121.739 296.887 132.557 283.121 147.252Z" fill="url(#paint0_linear_581_578)"/>
<path fill-rule="evenodd" clip-rule="evenodd" d="M106.745 147.252C104.235 145.907 101.739 144.536 99.2426 143.164C93.4842 140.001 87.7277 136.838 81.8127 134.002C76.3843 131.398 70.6068 129.34 64.7645 127.947C63.3268 127.605 61.5863 128.519 59.8448 129.434C59.0413 129.856 58.2376 130.278 57.4633 130.577C57.8428 131.276 58.1706 132.052 58.4985 132.828C59.2299 134.559 59.9614 136.29 61.2667 137.169C64.5792 139.401 68.4775 140.846 72.2804 142.256C72.4429 142.316 72.6053 142.376 72.7675 142.437C83.643 146.486 93.87 151.624 102.782 159.146C101.423 158.807 100.117 158.316 98.8195 157.829C97.4742 157.323 96.1379 156.82 94.7615 156.495C94.1375 156.347 93.5134 156.198 92.8891 156.049C86.6752 154.564 80.4418 153.075 74.1256 152.374C72.8163 152.228 71.3401 153.605 69.8638 154.981C69.1832 155.616 68.5025 156.251 67.8382 156.736C68.3677 157.324 68.8637 157.997 69.3597 158.671C70.4565 160.159 71.5536 161.648 73.0132 162.217C75.7699 163.285 78.7316 163.832 81.6976 164.379C83.1221 164.642 84.5476 164.905 85.9518 165.226C90.3514 166.237 94.7494 167.29 99.144 168.342C100.595 168.689 102.045 169.036 103.495 169.382C100.513 169.898 97.6099 169.988 94.7723 170.076C92.3135 170.152 89.9042 170.226 87.5364 170.576C86.193 170.771 85.0576 172.352 83.9205 173.936C83.4029 174.657 82.8849 175.379 82.3468 175.97C82.9248 176.32 83.495 176.748 84.0657 177.177C85.3088 178.11 86.5539 179.044 87.8846 179.178C91.3755 179.531 94.9074 179.509 98.779 179.485C100.384 179.475 102.048 179.465 103.791 179.481C103.227 179.978 102.714 180.375 102.267 180.722C101.427 181.373 100.816 181.846 100.517 182.469C99.825 183.92 99.3346 185.464 98.8453 187.004C98.6485 187.624 98.4518 188.243 98.2423 188.855C98.876 188.937 99.519 189.068 100.162 189.2C101.564 189.486 102.968 189.773 104.28 189.547C106.656 189.142 108.977 188.411 111.301 187.679C112.295 187.366 113.29 187.053 114.289 186.765C114.04 188.032 113.466 188.846 112.966 189.554C112.651 190 112.365 190.405 112.209 190.855C111.734 192.212 111.534 193.664 111.335 195.118C111.252 195.725 111.168 196.332 111.065 196.933C111.647 196.916 112.236 196.93 112.824 196.945C114.125 196.976 115.423 197.008 116.639 196.699C118.217 196.296 119.727 195.615 121.301 194.904C121.985 194.596 122.682 194.281 123.401 193.982C123.689 196.7 123.926 198.949 124.054 200.175C125.239 200.336 126.348 200.487 127.405 200.63C128.685 200.804 129.891 200.968 131.07 201.128V185.709C129.848 176.355 129.999 166.899 130.757 157.369C130.814 156.645 130.874 155.921 130.933 155.196C130.979 154.636 131.025 154.076 131.07 153.516V134.088C130.626 131.059 129.879 128.053 128.698 125.083C117.354 96.5589 97.6198 75.295 70.9358 60.616C64.0946 56.8575 56.6313 54.1965 49.1864 51.5421C46.9182 50.7334 44.6516 49.9253 42.4049 49.0869C40.809 48.4819 37.703 48.7609 36.9621 49.8177C35.9304 51.2588 35.7501 54.2004 36.5695 55.8548C37.8406 58.4316 39.9141 60.904 42.2432 62.6262C44.4789 64.2797 47.0462 65.4836 49.6047 66.6833C50.3502 67.0329 51.095 67.3822 51.8307 67.7421C73.7224 78.4914 92.7775 92.7404 107.403 112.481C108.196 113.553 109.011 114.619 109.827 115.684C110.235 116.217 110.642 116.75 111.047 117.283C110.758 117.486 110.465 117.682 110.174 117.877C110.026 117.975 109.88 118.073 109.734 118.171C108.906 117.348 108.08 116.522 107.254 115.696C105.412 113.853 103.569 112.01 101.697 110.202C84.9301 94.0696 66.1605 81.005 43.9363 73.5116C42.3469 72.9773 40.4142 73.4786 38.4806 73.9801C37.5832 74.2129 36.6857 74.4456 35.8222 74.575C36.1161 75.4955 36.3318 76.4963 36.5477 77.4977C37.0305 79.7383 37.514 81.9817 38.8759 83.3338C41.0869 85.531 44.1516 86.9242 47.1588 88.2913C47.8779 88.6182 48.5938 88.9436 49.294 89.2782C63.7121 96.181 78.0457 103.252 89.8796 114.226C93.5456 117.618 96.9106 121.336 100.274 125.053C101.818 126.758 103.361 128.464 104.933 130.137C104.747 130.314 104.558 130.494 104.369 130.674C104.18 130.854 103.99 131.034 103.804 131.212C103.468 130.915 103.13 130.621 102.792 130.326C101.984 129.622 101.175 128.918 100.384 128.186C85.7452 114.624 68.7806 105.2 49.5519 99.9754C48.1103 99.5816 46.4479 99.996 44.789 100.409C44.0201 100.601 43.2519 100.793 42.5068 100.903C42.7838 101.632 42.9958 102.448 43.2075 103.262C43.6743 105.058 44.1401 106.85 45.3001 107.704C49.1331 110.531 53.4935 112.851 57.9562 114.561C76.7204 121.739 92.9793 132.557 106.745 147.252Z" fill="url(#paint1_linear_581_578)"/>
<path d="M258.779 206.538V155.994C258.779 138.609 244.684 124.506 227.291 124.506H223.155" stroke="#7100FF" stroke-width="2" stroke-miterlimit="10"/>
<path d="M173.134 124.506H162.364C144.979 124.506 130.876 138.601 130.876 155.994V206.538" stroke="#7100FF" stroke-width="2" stroke-miterlimit="10"/>
<path d="M166.05 184.955V206.538" stroke="#7100FF" stroke-width="2" stroke-miterlimit="10"/>
<path d="M223.634 184.955V206.538" stroke="#7100FF" stroke-width="2" stroke-miterlimit="10"/>
<g style="mix-blend-mode:multiply">
<path d="M215.806 46.7516C204.211 46.6887 192.613 46.6786 181.018 46.7516C167.938 46.8372 159.604 57.4656 159.822 68.1771C159.947 74.3476 159.844 80.5218 159.844 86.6948C159.844 91.3855 159.814 96.0775 159.856 100.768C159.879 103.526 159.77 106.318 160.145 109.036C161.535 119.097 170.439 126.69 180.608 126.688C192.402 126.687 204.194 126.688 215.988 126.688C227.494 126.688 236.897 117.294 236.904 105.775C236.913 93.1836 236.912 80.591 236.907 67.9997C236.902 56.1822 227.648 46.8158 215.806 46.7516ZM234.735 104.941C234.694 110.789 232.782 115.86 228.326 119.816C224.861 122.892 220.783 124.494 216.18 124.517C204.29 124.576 192.4 124.569 180.512 124.527C170.344 124.49 162.08 116.047 162.008 105.66C161.964 99.3905 162.001 93.1207 162.001 86.8508C162.001 80.5809 161.976 74.3111 162.007 68.0412C162.056 58.3225 168.705 50.6018 178.265 49.1511C179.43 48.9749 180.622 48.9032 181.8 48.9007C192.851 48.8831 203.901 48.8957 214.953 48.8894C219.969 48.8856 224.476 50.2722 228.278 53.6594C231.981 56.9585 234.306 61.0529 234.515 66.0079C234.794 72.6086 234.733 79.2258 234.763 85.8354C234.793 92.2034 234.78 98.5727 234.736 104.941H234.735Z" fill="#7100FF"/>
<path d="M177.946 45.341C181.885 45.2114 185.829 45.2101 189.77 45.1006C190.793 45.0717 191.809 44.8515 192.828 44.7194C192.82 44.5873 192.81 44.4539 192.801 44.3218C192.49 44.2702 192.178 44.1695 191.867 44.1733C187.584 44.2111 183.28 44.0248 179.024 44.3897C175.925 44.6552 172.799 45.3926 169.849 46.4004C167.015 47.3693 164.62 49.2365 163.15 51.9896C163.611 51.6234 164.082 51.2661 164.535 50.8899C168.434 47.6549 172.796 45.5108 177.946 45.341Z" fill="#7100FF"/>
<path d="M238.288 72.3821C238.323 81.5233 238.286 90.6657 239.14 99.7943V72.3921C238.856 72.3896 238.572 72.3859 238.288 72.3833V72.3821Z" fill="#7100FF"/>
<path d="M177.631 128.792H193.543C193.546 128.692 193.548 128.592 193.551 128.492H177.64C177.636 128.592 177.634 128.692 177.63 128.792H177.631Z" fill="#7100FF"/>
<path d="M200.586 44.2576C200.559 44.0513 200.531 43.8437 200.502 43.6373C199.07 43.777 197.637 43.9179 196.205 44.0576C196.224 44.2476 196.243 44.4363 196.262 44.6263C197.704 44.503 199.144 44.381 200.586 44.2576Z" fill="#7100FF"/>
<path d="M218.606 75.7466C218.57 71.0961 215.327 67.3327 210.692 67.1792C202.811 66.9175 194.908 66.8722 187.027 67.1276C181.76 67.2987 178.707 71.0257 178.704 76.3556C178.703 80.0096 178.704 83.6623 178.704 87.3162C178.705 91.315 178.666 95.3137 178.716 99.3124C178.775 104.094 182.55 107.843 187.316 107.86C194.766 107.885 202.215 107.89 209.665 107.855C214.861 107.829 218.558 104.202 218.601 99.0003C218.663 91.2495 218.662 83.4974 218.603 75.7466H218.606ZM216.418 98.9261C216.337 103.239 213.547 105.694 209.261 105.694C202.16 105.694 195.058 105.694 187.957 105.688C183.57 105.684 180.876 102.979 180.867 98.5662C180.858 94.8154 180.866 91.0658 180.866 87.315C180.863 83.6635 180.862 80.0108 180.863 76.3594C180.864 71.9568 183.461 69.332 187.807 69.3333C195.057 69.3346 202.306 69.3333 209.556 69.3358C213.645 69.3371 216.353 71.7139 216.425 75.8334C216.56 83.5302 216.561 91.2319 216.418 98.9274V98.9261Z" fill="#7100FF"/>
<path d="M231.679 95.7552C231.679 96.4749 231.669 97.1959 231.68 97.9156C231.745 101.727 231.512 105.509 230.344 109.167C228.291 115.602 224.332 120.042 217.441 121.371C217.058 121.445 216.693 121.609 216.321 121.731C216.659 122.043 216.934 122.107 217.208 122.107C221.497 122.109 224.684 119.922 227.344 116.84C231.209 112.359 232.424 106.93 232.593 101.197C232.647 99.3664 232.448 97.5294 232.364 95.6948C232.135 95.715 231.906 95.7351 231.678 95.754L231.679 95.7552Z" fill="#7100FF"/>
<path d="M164.59 98.2781C165.398 95.5364 165.4 73.6428 164.594 71.8309C163.959 74.1461 163.956 95.1614 164.59 98.2781Z" fill="#7100FF"/>
<path d="M231.875 87.495C231.748 87.495 231.62 87.4963 231.493 87.4975V92.5821C231.62 92.5821 231.748 92.5808 231.875 92.5796V87.495Z" fill="#7100FF"/>
<path d="M165.041 65.4566L164.534 65.434C164.483 66.4469 164.434 67.4585 164.384 68.4714L164.902 68.4928C164.949 67.4799 164.996 66.4682 165.041 65.4554V65.4566Z" fill="#7100FF"/>
<path d="M214.393 91.5741C214.305 92.173 214.178 92.7694 214.135 93.3721C213.988 95.4281 213.917 97.4891 213.729 99.5413C213.542 101.555 212.545 102.664 210.578 103.106C209.578 103.331 208.548 103.419 207.311 103.602C211.731 104.956 214.579 103.067 214.775 98.8531C214.867 96.8902 214.874 94.9236 214.895 92.9594C214.9 92.5027 214.808 92.0459 214.762 91.5892C214.638 91.5854 214.515 91.5804 214.393 91.5766V91.5741Z" fill="#7100FF"/>
<path d="M209.197 77.5573C210.386 77.6479 211.569 76.6036 211.609 75.4271C211.645 74.345 210.792 73.4642 209.683 73.4391C208.426 73.4101 207.291 74.2758 207.22 75.3176C207.153 76.3129 208.184 77.4806 209.198 77.5573H209.197Z" fill="#7100FF"/>
<path d="M243.116 59.6618L239.523 62.54L259.828 87.8702L263.421 84.992C263.153 84.0061 263.472 82.9115 264.32 82.2316L273.177 75.1351C274.026 74.4556 275.163 74.3827 276.068 74.8585L279.66 71.9803L259.355 46.6501L255.763 49.5283C256.03 50.5142 255.712 51.6092 254.863 52.2888L246.006 59.3852C245.158 60.0648 244.02 60.1376 243.116 59.6618Z" fill="white"/>
<path d="M279.762 71.9525C279.765 71.9651 279.766 71.9782 279.765 71.9915C279.762 72.0196 279.748 72.0448 279.726 72.0626L276.133 74.9408C276.101 74.9669 276.055 74.9712 276.018 74.9518C275.122 74.4803 274.032 74.5844 273.243 75.2174L264.386 82.3138C263.598 82.9447 263.259 83.9813 263.52 84.9563C263.521 84.9591 263.522 84.9619 263.522 84.9642C263.533 85.0045 263.519 85.0481 263.486 85.0743L259.894 87.9524C259.848 87.9891 259.782 87.9816 259.745 87.9362L239.44 62.6055C239.422 62.5835 239.414 62.5558 239.417 62.5277C239.42 62.4996 239.434 62.4744 239.456 62.4566L243.048 59.5784C243.081 59.5522 243.127 59.548 243.164 59.5674C244.06 60.0389 245.15 59.9347 245.939 59.3018L254.796 52.2054C255.583 51.5745 255.923 50.5379 255.662 49.5629C255.661 49.5601 255.66 49.5564 255.659 49.555C255.649 49.5146 255.663 49.4711 255.696 49.4449L259.288 46.5667C259.334 46.5301 259.4 46.5376 259.437 46.583L279.742 71.9136C279.751 71.9251 279.758 71.9386 279.762 71.9525ZM276.055 74.7327L279.511 71.9636L259.338 46.7982L255.882 49.5673C256.136 50.6059 255.767 51.6998 254.929 52.3704L246.072 59.4669C245.235 60.138 244.087 60.2602 243.128 59.7862L239.672 62.5553L259.844 87.7208L263.3 84.9516C263.046 83.913 263.416 82.8196 264.254 82.1485L273.111 75.052C273.948 74.3809 275.096 74.2587 276.055 74.7327Z" fill="black"/>
<path d="M270.67 72.0075L261.813 79.104C260.672 80.0185 259.006 79.8348 258.092 78.6939L248.104 66.2339C247.189 65.0927 247.373 63.4259 248.514 62.5114L257.371 55.4148C258.512 54.5004 260.178 54.684 261.093 55.8249L271.081 68.2849C271.996 69.4261 271.812 71.0929 270.67 72.0075Z" fill="#7100FF"/>
<path d="M277.776 70.9712C277.787 71.0106 277.774 71.0543 277.74 71.0813L276.087 72.4057C276.041 72.4423 275.975 72.4348 275.938 72.3894L273.584 69.4528C273.547 69.407 273.555 69.3404 273.6 69.3039C273.646 69.2672 273.713 69.2747 273.749 69.3201L276.037 72.1741L277.607 70.9161C277.653 70.8795 277.72 70.887 277.756 70.9323C277.766 70.9442 277.772 70.9573 277.776 70.9712Z" fill="black"/>
<path d="M274.013 66.2762C274.023 66.3156 274.01 66.3592 273.976 66.3862L272.324 67.7106C272.278 67.7472 272.211 67.7397 272.175 67.6944L269.821 64.7573C269.784 64.7114 269.791 64.6448 269.837 64.6083C269.883 64.5717 269.949 64.5792 269.986 64.6246L272.274 67.479L273.844 66.221C273.89 66.1844 273.956 66.1919 273.993 66.2373C274.002 66.2491 274.009 66.2623 274.013 66.2762Z" fill="black"/>
<path d="M270.249 61.5815C270.259 61.6209 270.247 61.6645 270.213 61.6915L268.56 63.0159C268.514 63.0525 268.447 63.045 268.411 62.9997L266.057 60.0626C266.02 60.0167 266.027 59.9501 266.073 59.9136C266.119 59.877 266.185 59.8845 266.222 59.9299L268.51 62.7843L270.08 61.5263C270.126 61.4897 270.192 61.4972 270.229 61.5426C270.238 61.5544 270.245 61.5676 270.249 61.5815Z" fill="black"/>
<path d="M266.485 56.886C266.496 56.9254 266.483 56.9691 266.449 56.9961L264.797 58.3205C264.751 58.3571 264.684 58.3496 264.648 58.3042L262.293 55.3672C262.257 55.3213 262.264 55.2547 262.31 55.2182C262.356 55.1816 262.422 55.1891 262.459 55.2344L264.747 58.0889L266.317 56.8309C266.362 56.7943 266.429 56.8018 266.466 56.8471C266.475 56.859 266.482 56.8721 266.485 56.886Z" fill="black"/>
<path d="M262.722 52.1908C262.732 52.2303 262.72 52.2739 262.686 52.3009L261.033 53.6253C260.987 53.6619 260.921 53.6544 260.884 53.609L258.53 50.672C258.493 50.6261 258.501 50.5595 258.546 50.523C258.592 50.4864 258.658 50.4939 258.695 50.5392L260.983 53.3937L262.553 52.1357C262.599 52.0991 262.665 52.1066 262.702 52.1519C262.712 52.1638 262.718 52.1769 262.722 52.1908Z" fill="black"/>
<path d="M246.095 65.513C246.105 65.5524 246.093 65.596 246.059 65.623C246.013 65.6596 245.946 65.6522 245.91 65.6068L243.622 62.7523L242.052 64.0103C242.006 64.047 241.939 64.0395 241.903 63.9941C241.866 63.9482 241.874 63.8816 241.919 63.8451L243.572 62.5207C243.618 62.4841 243.684 62.4916 243.721 62.537L246.075 65.4741C246.085 65.4859 246.091 65.4991 246.095 65.513Z" fill="black"/>
<path d="M249.858 70.2082C249.869 70.2476 249.856 70.2912 249.822 70.3182C249.776 70.3548 249.71 70.3473 249.673 70.302L247.385 67.448L245.815 68.706C245.769 68.7426 245.703 68.7351 245.666 68.6897C245.63 68.6439 245.637 68.5773 245.683 68.5408L247.335 67.2164C247.381 67.1798 247.448 67.1873 247.484 67.2326L249.838 70.1693C249.848 70.1811 249.854 70.1943 249.858 70.2082Z" fill="black"/>
<path d="M253.622 74.9032C253.632 74.9426 253.62 74.9863 253.586 75.0133C253.54 75.0499 253.473 75.0424 253.437 74.997L251.149 72.1426L249.579 73.4006C249.533 73.4372 249.466 73.4297 249.43 73.3843C249.393 73.3385 249.401 73.2719 249.446 73.2354L251.099 71.911C251.145 71.8744 251.211 71.8819 251.248 71.9273L253.602 74.8643C253.612 74.8761 253.618 74.8893 253.622 74.9032Z" fill="black"/>
<path d="M257.385 79.5983C257.396 79.6377 257.383 79.6813 257.349 79.7083C257.303 79.745 257.236 79.7375 257.2 79.6921L254.912 76.8376L253.342 78.0956C253.296 78.1323 253.23 78.1248 253.193 78.0794C253.156 78.0336 253.164 77.967 253.209 77.9305L254.862 76.6061C254.908 76.5694 254.974 76.5769 255.011 76.6223L257.365 79.5594C257.375 79.5712 257.381 79.5844 257.385 79.5983Z" fill="black"/>
<path d="M261.149 84.2934C261.16 84.3328 261.147 84.3764 261.113 84.4034C261.068 84.44 261.001 84.4325 260.964 84.3872L258.676 81.5327L257.106 82.7907C257.061 82.8273 256.994 82.8199 256.957 82.7745C256.921 82.7286 256.928 82.662 256.974 82.6255L258.626 81.3011C258.672 81.2645 258.739 81.272 258.775 81.3174L261.13 84.2545C261.139 84.2663 261.146 84.2795 261.149 84.2934Z" fill="black"/>
<path d="M218.46 38.7118L215.482 42.2211L240.238 63.2219L243.217 59.7126C242.766 58.7957 242.871 57.6601 243.574 56.8316L250.918 48.1788C251.621 47.3498 252.725 47.0621 253.703 47.357L256.682 43.8477L231.925 22.8469L228.947 26.3562C229.397 27.273 229.292 28.4087 228.589 29.2372L221.245 37.89C220.542 38.719 219.438 39.0068 218.46 38.7118Z" fill="white"/>
<path d="M256.784 43.82C256.786 43.826 256.787 43.8322 256.787 43.8386C256.79 43.8667 256.781 43.8945 256.762 43.9157L253.784 47.425C253.757 47.4571 253.713 47.4699 253.673 47.4579C252.703 47.1655 251.654 47.4755 250.999 48.2468L243.655 56.8996C243 57.671 242.866 58.7565 243.312 59.6655C243.331 59.7033 243.325 59.7486 243.298 59.7807L240.319 63.29C240.281 63.3344 240.214 63.3399 240.17 63.3021L215.414 42.3023C215.392 42.2841 215.379 42.2584 215.376 42.2302C215.374 42.2021 215.383 42.1743 215.401 42.153L218.38 38.6437C218.407 38.6116 218.451 38.5988 218.491 38.6109C219.461 38.9031 220.51 38.5931 221.165 37.8219L228.508 29.1686C229.163 28.3973 229.298 27.3113 228.852 26.4027C228.833 26.365 228.839 26.3197 228.866 26.2876L231.844 22.7783C231.882 22.7339 231.949 22.7283 231.994 22.7661L256.75 43.7669C256.767 43.7808 256.778 43.7996 256.784 43.8205L256.784 43.82ZM253.667 47.2363L256.532 43.8596L231.937 22.996L229.072 26.3726C229.518 27.3437 229.364 28.4881 228.669 29.3058L221.326 37.9591C220.632 38.7772 219.528 39.1157 218.497 38.833L215.631 42.2096L240.226 63.0733L243.092 59.6967C242.645 58.7253 242.799 57.5817 243.494 56.7634L250.838 48.1106C251.532 47.2926 252.636 46.954 253.667 47.2363Z" fill="black"/>
<path d="M247.862 45.5856L240.518 54.239C239.571 55.3537 237.901 55.4908 236.786 54.5448L224.608 44.2145C223.493 43.2685 223.356 41.5974 224.302 40.4821L231.646 31.8287C232.592 30.714 234.263 30.5769 235.378 31.5229L247.556 41.8532C248.671 42.7992 248.808 44.4704 247.862 45.5856Z" fill="#7100FF"/>
<path d="M254.647 43.234C254.656 43.2664 254.649 43.3025 254.626 43.3301L253.256 44.9446C253.218 44.989 253.151 44.9945 253.106 44.9567L250.236 42.5217C250.192 42.4839 250.186 42.4168 250.224 42.3724C250.262 42.328 250.329 42.3224 250.373 42.3602L253.163 44.7264L254.465 43.1924C254.503 43.148 254.57 43.1425 254.614 43.1803C254.631 43.1946 254.642 43.2134 254.648 43.2334L254.647 43.234Z" fill="black"/>
<path d="M250.059 39.3411C250.068 39.3736 250.061 39.4097 250.037 39.4373L248.667 41.0517C248.629 41.0962 248.562 41.1017 248.518 41.0639L245.648 38.6288C245.603 38.5911 245.598 38.5244 245.635 38.4796C245.673 38.4351 245.74 38.4296 245.785 38.4674L248.574 40.8336L249.876 39.2996C249.914 39.2552 249.981 39.2496 250.026 39.2874C250.042 39.3018 250.054 39.3206 250.059 39.3405L250.059 39.3411Z" fill="black"/>
<path d="M245.47 35.4487C245.479 35.4811 245.472 35.5172 245.449 35.5449L244.079 37.1593C244.041 37.2037 243.974 37.2092 243.929 37.1715L241.059 34.7364C241.015 34.6986 241.009 34.6315 241.047 34.5871C241.085 34.5427 241.152 34.5371 241.196 34.5749L243.986 36.9411L245.288 35.4072C245.326 35.3627 245.393 35.3572 245.437 35.395C245.454 35.4094 245.465 35.4281 245.471 35.4481L245.47 35.4487Z" fill="black"/>
<path d="M240.882 31.5567C240.891 31.5892 240.884 31.6252 240.86 31.6529L239.49 33.2673C239.452 33.3117 239.385 33.3173 239.341 33.2795L236.471 30.8444C236.426 30.8066 236.421 30.74 236.458 30.6951C236.496 30.6507 236.563 30.6452 236.608 30.6829L239.397 33.0492L240.699 31.5152C240.737 31.4708 240.804 31.4652 240.849 31.503C240.865 31.5174 240.877 31.5362 240.882 31.5561L240.882 31.5567Z" fill="black"/>
<path d="M236.293 27.6636C236.301 27.6961 236.295 27.7322 236.271 27.7598L234.901 29.3742C234.863 29.4187 234.796 29.4242 234.752 29.3864L231.882 26.9513C231.837 26.9136 231.832 26.8469 231.869 26.8021C231.907 26.7576 231.974 26.7521 232.019 26.7899L234.808 29.1561L236.11 27.6221C236.148 27.5777 236.215 27.5721 236.259 27.6099C236.277 27.6242 236.288 27.6431 236.293 27.663L236.293 27.6636Z" fill="black"/>
<path d="M222.506 43.9076C222.515 43.94 222.508 43.9761 222.485 44.0037C222.447 44.0482 222.38 44.0537 222.336 44.0159L219.546 41.6497L218.244 43.1837C218.206 43.2281 218.139 43.2337 218.095 43.1959C218.05 43.1581 218.045 43.091 218.083 43.0466L219.453 41.4321C219.491 41.3877 219.558 41.3822 219.602 41.42L222.472 43.855C222.49 43.8693 222.501 43.8882 222.506 43.9082L222.506 43.9076Z" fill="black"/>
<path d="M227.095 47.8005C227.104 47.833 227.097 47.869 227.074 47.8967C227.036 47.9411 226.969 47.9467 226.924 47.9089L224.135 45.5426L222.833 47.0766C222.795 47.121 222.728 47.1266 222.683 47.0888C222.639 47.051 222.633 46.9839 222.671 46.9395L224.042 45.3251C224.079 45.2807 224.146 45.2751 224.191 45.3129L227.061 47.748C227.078 47.7622 227.089 47.7812 227.095 47.8011L227.095 47.8005Z" fill="black"/>
<path d="M231.684 51.6926C231.692 51.725 231.686 51.7611 231.662 51.7888C231.624 51.8332 231.557 51.8387 231.513 51.8009L228.723 49.4347L227.421 50.9687C227.384 51.0131 227.316 51.0187 227.272 50.9809C227.228 50.9431 227.222 50.8765 227.26 50.8316L228.63 49.2172C228.668 49.1728 228.735 49.1672 228.779 49.205L231.65 51.6401C231.667 51.6543 231.678 51.6732 231.683 51.6932L231.684 51.6926Z" fill="black"/>
<path d="M236.273 55.5858C236.282 55.6182 236.275 55.6543 236.252 55.682C236.214 55.7264 236.147 55.7319 236.102 55.6941L233.313 53.3279L232.011 54.8619C231.973 54.9063 231.906 54.9119 231.862 54.8741C231.817 54.8363 231.812 54.7697 231.849 54.7248L233.22 53.1104C233.258 53.0659 233.325 53.0604 233.369 53.0982L236.239 55.5333C236.257 55.5475 236.268 55.5664 236.273 55.5864L236.273 55.5858Z" fill="black"/>
<path d="M240.862 59.4785C240.871 59.5109 240.864 59.547 240.84 59.5747C240.803 59.6191 240.736 59.6246 240.691 59.5868L237.901 57.2206L236.6 58.7546C236.562 58.799 236.495 58.8046 236.45 58.7668C236.406 58.729 236.4 58.6624 236.438 58.6175L237.808 57.0031C237.846 56.9586 237.913 56.9531 237.958 56.9909L240.828 59.426C240.845 59.4403 240.856 59.4591 240.861 59.4791L240.862 59.4785Z" fill="black"/>
</g>
<path d="M107.084 62.894L105.151 51.8686L106.27 50.2025L109.544 52.4017C110.499 53.0428 111.551 53.3062 112.702 53.1917C113.853 53.0774 114.81 52.5338 115.574 51.5608L107.527 46.1553L108.542 44.6443L116.384 49.912C116.601 49.0552 116.537 48.1897 116.191 47.3155C115.845 46.4411 115.252 45.7215 114.411 45.1567L110.13 42.2809L111.145 40.7699L122.729 48.5515L121.714 50.0625L118.091 47.6291C118.258 48.1548 118.337 48.7129 118.33 49.3033C118.323 49.8939 118.209 50.4559 117.988 50.9894L120.126 52.426L119.111 53.9369L117.101 52.5862C116.072 53.9664 114.737 54.7681 113.096 54.9912C111.454 55.2143 109.932 54.8548 108.529 53.9127L107.208 53.0252L109.182 64.3032L107.084 62.894Z" fill="#CEA7FF"/>
<path d="M377.045 139.081L364.074 129.542L363.581 126.697L369.17 125.728C370.8 125.446 372.156 124.673 373.238 123.41C374.321 122.147 374.775 120.63 374.602 118.859L360.863 121.241L360.416 118.661L373.805 116.34C373.179 115.233 372.251 114.397 371.023 113.832C369.793 113.267 368.461 113.109 367.026 113.358L359.716 114.626L359.269 112.046L379.048 108.617L379.495 111.196L373.31 112.269C374.005 112.65 374.643 113.151 375.223 113.772C375.803 114.392 376.243 115.09 376.543 115.865L380.194 115.232L380.642 117.812L377.208 118.407C377.512 120.864 376.921 123.025 375.437 124.889C373.952 126.753 372.012 127.893 369.618 128.308L367.362 128.699L380.627 138.46L377.045 139.081Z" fill="#CEA7FF"/>
<path d="M214.804 30.5004L204.774 20.0543V17.4576H209.877C211.364 17.4576 212.684 16.9812 213.838 16.0282C214.991 15.0753 215.627 13.8007 215.746 12.2046H203.204V9.84968H215.426C215.041 8.7727 214.348 7.88961 213.346 7.2004C212.343 6.51093 211.187 6.1662 209.877 6.1662H203.204V3.81128H221.259V6.1662H215.613C216.17 6.61102 216.659 7.15291 217.077 7.79188C217.496 8.43111 217.779 9.11704 217.926 9.84968H221.259V12.2046H218.125C218.016 14.4287 217.161 16.2527 215.559 17.6767C213.957 19.1006 212.063 19.8126 209.877 19.8126H207.818L218.073 30.5004H214.804Z" fill="#CEA7FF"/>
<path d="M142.349 97.2338L132.32 86.7877V84.191H137.422C138.91 84.191 140.23 83.7146 141.383 82.7616C142.536 81.8086 143.172 80.5341 143.291 78.938H130.75V76.5831H142.971C142.587 75.5061 141.893 74.623 140.891 73.9338C139.889 73.2443 138.732 72.8996 137.422 72.8996H130.75V70.5447H148.804V72.8996H143.158C143.716 73.3444 144.204 73.8863 144.623 74.5253C145.041 75.1645 145.324 75.8504 145.471 76.5831H148.804V78.938H145.67C145.562 81.1621 144.706 82.9861 143.104 84.4101C141.502 85.834 139.608 86.546 137.422 86.546H135.363L145.619 97.2338H142.349Z" fill="#CEA7FF"/>
<path d="M201.242 106.927L191.212 96.4806V93.8839H196.315C197.802 93.8839 199.122 93.4074 200.276 92.4545C201.429 91.5015 202.065 90.227 202.184 88.6309H189.642V86.276H201.864C201.479 85.199 200.786 84.3159 199.784 83.6267C198.781 82.9372 197.625 82.5925 196.315 82.5925H189.642V80.2375H207.697V82.5925H202.051C202.608 83.0373 203.097 83.5792 203.515 84.2181C203.934 84.8574 204.217 85.5433 204.364 86.276H207.697V88.6309H204.563C204.454 90.855 203.599 92.679 201.997 94.1029C200.395 95.5269 198.5 96.2388 196.315 96.2388H194.256L204.511 106.927H201.242Z" fill="#7100FF"/>
<path d="M24.0074 160.333L14.3034 140.86L15.4665 137.136L22.7836 139.422C24.9169 140.088 27.0237 139.996 29.1043 139.146C31.1852 138.296 32.6683 136.753 33.5536 134.517L15.5682 128.9L16.623 125.522L34.1498 130.997C34.0806 129.28 33.4818 127.703 32.3534 126.266C31.2247 124.828 29.7207 123.816 27.8415 123.229L18.273 120.24L19.3279 116.863L45.2192 124.95L44.1643 128.327L36.0677 125.798C36.668 126.686 37.1253 127.682 37.4395 128.786C37.7535 129.89 37.8519 131 37.7346 132.117L42.5143 133.61L41.4595 136.987L36.9651 135.583C35.8131 138.724 33.7694 140.956 30.834 142.281C27.8986 143.605 24.8635 143.778 21.7288 142.799L18.776 141.876L28.6959 161.797L24.0074 160.333Z" fill="#E7D5FF"/>
<path d="M13.8805 31.9939L13.7557 19.7841L15.2559 18.1893L18.3895 21.1371C19.3031 21.9964 20.3892 22.4666 21.648 22.5475C22.9069 22.6286 24.0339 22.2133 25.0289 21.3017L17.3265 14.0562L18.687 12.6099L26.193 19.6706C26.5789 18.787 26.6633 17.844 26.446 16.8418C26.2287 15.8392 25.7176 14.9594 24.9128 14.2024L20.815 10.3476L22.1755 8.90137L33.2637 19.3318L31.9032 20.7781L28.4357 17.5163C28.5212 18.1116 28.5079 18.7264 28.3959 19.3607C28.2837 19.9952 28.0611 20.5799 27.7282 21.1148L29.7752 23.0403L28.4147 24.4866L26.4899 22.676C25.1383 23.9792 23.5592 24.6053 21.7526 24.5542C19.946 24.5031 18.3715 23.8462 17.029 22.5833L15.7645 21.3938L15.8884 33.8827L13.8805 31.9939Z" fill="#E7D5FF"/>
<path d="M361.171 187.938L363.716 175.996L365.528 174.767L367.943 178.328C368.646 179.366 369.604 180.062 370.814 180.416C372.025 180.77 373.216 180.611 374.386 179.939L368.452 171.186L370.095 170.072L375.878 178.601C376.448 177.823 376.736 176.922 376.743 175.896C376.749 174.87 376.443 173.9 375.823 172.986L372.666 168.329L374.309 167.215L382.852 179.815L381.208 180.929L378.537 176.989C378.49 177.589 378.343 178.186 378.095 178.78C377.847 179.375 377.502 179.897 377.061 180.346L378.638 182.672L376.994 183.786L375.511 181.599C373.908 182.576 372.23 182.842 370.478 182.397C368.726 181.953 367.333 180.968 366.299 179.442L365.325 178.006L362.718 190.22L361.171 187.938Z" fill="#E7D5FF"/>
<path d="M372.101 31.0165L361.987 24.1751L361.528 22.0342L365.735 21.1332C366.961 20.8705 367.966 20.2445 368.748 19.2552C369.531 18.2658 369.83 17.1027 369.646 15.7657L359.306 17.9804L358.89 16.0388L368.967 13.8806C368.459 13.0606 367.732 12.4549 366.784 12.0637C365.836 11.6722 364.821 11.5922 363.741 11.8236L358.24 13.0019L357.824 11.0603L372.709 7.87208L373.125 9.81366L368.47 10.8107C369.009 11.0789 369.507 11.4395 369.965 11.8924C370.423 12.3455 370.777 12.8611 371.028 13.4392L373.776 12.8506L374.192 14.7922L371.608 15.3456C371.911 17.1985 371.528 18.8534 370.458 20.3104C369.389 21.7673 367.953 22.6888 366.151 23.0748L364.453 23.4384L374.796 30.4392L372.101 31.0165Z" fill="#E7D5FF"/>
<path d="M150.521 26.0631L143.826 19.0906V17.3573H147.232C148.225 17.3573 149.106 17.0393 149.876 16.4032C150.646 15.7671 151.07 14.9164 151.15 13.851H142.779V12.2792H150.936C150.68 11.5603 150.217 10.9709 149.548 10.5108C148.879 10.0506 148.107 9.82052 147.232 9.82052H142.779V8.24866H154.83V9.82052H151.061C151.433 10.1174 151.759 10.4791 152.038 10.9056C152.318 11.3323 152.507 11.7902 152.605 12.2792H154.83V13.851H152.738C152.665 15.3356 152.094 16.5531 151.025 17.5035C149.955 18.454 148.691 18.9292 147.232 18.9292H145.858L152.703 26.0631H150.521Z" fill="#E7D5FF"/>
<path d="M19.0887 90.4583L10.7383 85.5895L10.2629 83.9228L13.5379 82.9886C14.4928 82.7162 15.253 82.1686 15.8187 81.3458C16.3845 80.523 16.5595 79.5884 16.3435 78.5421L8.29336 80.8384L7.86219 79.3268L15.707 77.0891C15.2629 76.4683 14.6561 76.0284 13.8867 75.7695C13.117 75.5105 12.3117 75.5009 11.4705 75.7408L7.18776 76.9625L6.75659 75.4509L18.3453 72.1453L18.7765 73.6569L15.1525 74.6906C15.5918 74.874 16.0044 75.1325 16.3901 75.466C16.7758 75.7996 17.083 76.1881 17.3115 76.6315L19.4509 76.0212L19.8821 77.5328L17.8704 78.1066C18.2079 79.5541 17.9929 80.8815 17.2252 82.0888C16.4576 83.2961 15.3722 84.0999 13.9691 84.5001L12.6475 84.8771L21.1873 89.8596L19.0887 90.4583Z" fill="#E7D5FF"/>
<path d="M63.8476 189.002L55.4419 184.23L54.9473 182.569L58.2115 181.597C59.1631 181.314 59.917 180.757 60.4732 179.928C61.0295 179.099 61.1937 178.162 60.9657 177.118L52.9425 179.507L52.494 178.001L60.3126 175.673C59.8614 175.057 59.2497 174.624 58.4773 174.374C57.7047 174.124 56.8993 174.124 56.061 174.373L51.7925 175.644L51.344 174.138L62.894 170.699L63.3425 172.206L59.7306 173.281C60.172 173.459 60.5875 173.713 60.977 174.042C61.3666 174.371 61.6782 174.756 61.9118 175.197L64.044 174.562L64.4925 176.069L62.4876 176.665C62.8417 178.109 62.6419 179.439 61.8882 180.655C61.1344 181.871 60.0583 182.687 58.66 183.103L57.3428 183.496L65.9392 188.38L63.8476 189.002Z" fill="#E7D5FF"/>
<path d="M6.44714 193.863L1.1734 188.37V187.004H3.85629C4.63846 187.004 5.33271 186.754 5.93904 186.253C6.54551 185.752 6.87998 185.082 6.94244 184.242H0.3479V183.004H6.77424C6.572 182.438 6.2074 181.973 5.68045 181.611C5.15337 181.249 4.54531 181.067 3.85629 181.067H0.3479V179.829H9.8412V181.067H6.87248C7.16567 181.301 7.42233 181.586 7.64247 181.922C7.8626 182.258 8.01133 182.619 8.08865 183.004H9.8412V184.242H8.19329C8.13619 185.412 7.68643 186.371 6.844 187.12C6.00157 187.868 5.00567 188.243 3.85629 188.243H2.77364L8.16625 193.863H6.44714Z" fill="#E7D5FF"/>
<path d="M329.582 195.746L324.308 190.254V188.888H326.991C327.773 188.888 328.467 188.638 329.074 188.137C329.68 187.636 330.015 186.966 330.077 186.126H323.483V184.888H329.909C329.707 184.322 329.342 183.857 328.815 183.495C328.288 183.132 327.68 182.951 326.991 182.951H323.483V181.713H332.976V182.951H330.007C330.3 183.185 330.557 183.47 330.777 183.806C330.997 184.142 331.146 184.503 331.223 184.888H332.976V186.126H331.328C331.271 187.296 330.821 188.255 329.979 189.004C329.136 189.752 328.14 190.127 326.991 190.127H325.908L331.301 195.746H329.582Z" fill="#E7D5FF"/>
<path d="M381.239 75.6587L377.967 68.7825L378.398 67.4869L380.944 68.3334C381.686 68.5802 382.424 68.5616 383.158 68.2774C383.891 67.9933 384.42 67.4629 384.744 66.6862L378.487 64.6054L378.877 63.4304L384.975 65.4582C384.962 64.857 384.763 64.3013 384.377 63.7912C383.991 63.2808 383.471 62.917 382.818 62.6995L379.488 61.5925L379.879 60.4175L388.887 63.4131L388.497 64.5881L385.68 63.6513C385.884 63.9657 386.038 64.3171 386.141 64.7054C386.243 65.0938 386.271 65.483 386.223 65.8729L387.886 66.4259L387.495 67.6009L385.931 67.0809C385.508 68.1726 384.778 68.9408 383.743 69.3855C382.707 69.8301 381.644 69.8711 380.553 69.5084L379.526 69.1668L382.87 76.2011L381.239 75.6587Z" fill="#E7D5FF"/>
<path d="M295.04 52.6124L288.41 29.5285L290.419 25.7194L297.904 29.6673C300.086 30.8182 302.391 31.1409 304.82 30.6352C307.249 30.1297 309.169 28.7522 310.578 26.5027L292.18 16.7988L294.002 13.3443L311.931 22.8008C312.2 20.9233 311.866 19.0913 310.929 17.3049C309.992 15.5179 308.562 14.1175 306.64 13.1036L296.852 7.94094L298.675 4.48645L325.159 18.4559L323.337 21.9104L315.055 17.5419C315.529 18.6259 315.825 19.7985 315.945 21.0597C316.065 22.3213 315.949 23.5464 315.598 24.7349L320.487 27.3138L318.665 30.7683L314.067 28.3434C312.187 31.5219 309.521 33.5358 306.069 34.385C302.617 35.2342 299.288 34.8131 296.081 33.1218L293.061 31.5286L299.836 55.1421L295.04 52.6124Z" fill="#E7D5FF"/>
<path d="M84.067 31.4324L69.2491 24.6885L68.17 21.976L73.4999 19.8556C75.0538 19.2375 76.235 18.1911 77.0435 16.7164C77.8523 15.2416 77.9871 13.6459 77.4479 11.9293L64.3471 17.1411L63.3685 14.6811L76.1352 9.60225C75.2858 8.63707 74.1945 8.00274 72.8613 7.69925C71.5276 7.3956 70.1764 7.51605 68.8076 8.0606L61.8378 10.8334L60.8591 8.37341L79.7187 0.870657L80.6973 3.3306L74.7996 5.67684C75.5669 5.90978 76.302 6.273 77.0049 6.76649C77.7078 7.26025 78.2883 7.85923 78.7464 8.56344L82.2281 7.17837L83.2067 9.63831L79.9329 10.9407C80.7437 13.3091 80.6082 15.5699 79.5264 17.7232C78.4445 19.8764 76.7619 21.4072 74.4785 22.3156L72.3277 23.1712L87.4823 30.0738L84.067 31.4324Z" fill="#E7D5FF"/>
<defs>
<linearGradient id="paint0_linear_581_578" x1="290.713" y1="60.8818" x2="317.529" y2="189.383" gradientUnits="userSpaceOnUse">
<stop stop-color="#AD6BFF"/>
<stop offset="1" stop-color="#DBBFFF"/>
</linearGradient>
<linearGradient id="paint1_linear_581_578" x1="99.1537" y1="60.8818" x2="72.3375" y2="189.383" gradientUnits="userSpaceOnUse">
<stop stop-color="#AD6BFF"/>
<stop offset="1" stop-color="#DBBFFF"/>
</linearGradient>
</defs>
</svg>
