<svg width="76" height="77" viewBox="0 0 76 77" fill="none" xmlns="http://www.w3.org/2000/svg">
<g id="edit_audio">
<mask id="mask0_256_567" style="mask-type:alpha" maskUnits="userSpaceOnUse" x="0" y="0" width="76" height="77">
<rect id="Bounding box" x="0.242432" y="0.727051" width="75.4475" height="75.4475" fill="#D9D9D9"/>
</mask>
<g mask="url(#mask0_256_567)">
<path id="edit_audio_2" d="M19.7086 66.7436L9.67334 56.7688L19.7086 46.7933L21.9516 48.9577L15.6526 55.197H60.1587L53.9383 48.9577L56.1632 46.7933L66.259 56.7688L56.1632 66.7436L53.9202 64.5792L60.2193 58.3407H15.7131L21.9336 64.5792L19.7086 66.7436ZM36.3943 40.4454V7.31689H39.538V40.4454H36.3943ZM24.6057 34.4607V13.3016H27.7493V34.4607H24.6057ZM48.183 34.4607V13.3016H51.3267V34.4607H48.183ZM12.817 26.9647V20.9187H15.9606V26.9647H12.817ZM59.9717 26.9647V20.9187H63.1153V26.9647H59.9717Z" fill="#6303CA"/>
</g>
</g>
</svg>
