<svg width="63" height="50" viewBox="0 0 63 50" fill="none" xmlns="http://www.w3.org/2000/svg">
<path id="campaign" d="M51.3871 27.2227V23.7163H62.3086V27.2227H51.3871ZM55.0541 49.8795L46.3164 43.0823L48.4233 40.3044L57.1601 47.1016L55.0541 49.8795ZM48.163 10.3647L46.0569 7.58676L54.7938 0.789551L56.8998 3.56752L48.163 10.3647ZM9.39137 46.3731V33.0215H5.88074C4.36853 33.0215 3.08029 32.4698 2.016 31.3665C0.952272 30.2625 0.42041 28.9263 0.42041 27.3577V23.5813C0.42041 22.0128 0.952272 20.6765 2.016 19.5726C3.08029 18.4692 4.36853 17.9176 5.88074 17.9176H18.4925L31.8843 9.69061V41.2485L18.4925 33.0215H12.7718V46.3731H9.39137ZM28.5038 35.0044V15.9347L19.4415 21.424H5.88074C5.3607 21.424 4.88406 21.6487 4.45079 22.0981C4.01752 22.5475 3.80089 23.0419 3.80089 23.5813V27.3577C3.80089 27.8972 4.01752 28.3916 4.45079 28.841C4.88406 29.2904 5.3607 29.5151 5.88074 29.5151H19.4415L28.5038 35.0044ZM37.8652 35.5979V15.3412C38.9965 16.4294 39.9078 17.858 40.5991 19.627C41.2904 21.3959 41.6361 23.3435 41.6361 25.4695C41.6361 27.5956 41.2904 29.5431 40.5991 31.3121C39.9078 33.0811 38.9965 34.5097 37.8652 35.5979Z" fill="#D4B2FF"/>
</svg>
