<svg width="51" height="51" viewBox="0 0 51 51" fill="none" xmlns="http://www.w3.org/2000/svg">
<path id="g_translate" d="M25.3677 50.2588L22.8674 42.7623H5.36753C3.99267 42.7623 2.81553 42.2731 1.83609 41.2947C0.857148 40.3157 0.367676 39.1391 0.367676 37.7647V5.28007C0.367676 3.90619 0.857148 2.72585 1.83609 1.73903C2.81553 0.752203 3.99267 0.258789 5.36753 0.258789H20.3678L22.5549 7.75525H45.3678C46.8259 7.75525 48.0237 8.22379 48.9613 9.16088C49.8989 10.098 50.3677 11.2953 50.3677 12.7529V45.2375C50.3677 46.6114 49.8989 47.7917 48.9613 48.7786C48.0237 49.7654 46.8259 50.2588 45.3678 50.2588H25.3677ZM13.2791 31.7477C16.1677 31.7477 18.5276 30.8205 20.359 28.966C22.1903 27.112 23.106 24.7058 23.106 21.7473C23.106 21.3154 23.1033 20.9774 23.0978 20.7331C23.0919 20.4889 23.0471 20.2513 22.9634 20.0204H13.0324V23.8613H18.6401C18.2841 25.0505 17.6469 25.9699 16.7285 26.6194C15.8097 27.2694 14.6818 27.5944 13.3448 27.5944C11.7154 27.5944 10.3157 26.9995 9.14567 25.8098C7.97567 24.6206 7.39066 23.1869 7.39066 21.5087C7.39066 19.8305 7.97197 18.3968 9.13459 17.2076C10.2977 16.0184 11.6891 15.4238 13.3086 15.4238C14.0561 15.4238 14.7576 15.5553 15.413 15.8182C16.0684 16.0817 16.6783 16.4956 17.2426 17.0599L20.294 14.1563C19.411 13.2625 18.3558 12.5581 17.1282 12.043C15.9005 11.528 14.6 11.2704 13.2267 11.2704C10.438 11.2704 8.05421 12.2693 6.07515 14.2671C4.09608 16.2654 3.10655 18.6792 3.10655 21.5087C3.10655 24.3382 4.10076 26.7521 6.08918 28.7503C8.0776 30.7486 10.4742 31.7477 13.2791 31.7477ZM29.9812 32.9975L31.3787 31.6739C30.8031 30.95 30.2607 30.2606 29.7515 29.6057C29.2418 28.9503 28.7731 28.2552 28.3451 27.5205L29.9812 32.9975ZM33.1064 29.7985C34.2804 28.429 35.1714 27.1216 35.7795 25.8763C36.3877 24.6314 36.7959 23.6471 37.0042 22.9232H27.0776L27.8163 25.5653H30.2789C30.6068 26.1942 31.0023 26.8707 31.4651 27.5951C31.928 28.3195 32.4751 29.0539 33.1064 29.7985ZM27.868 47.7592H45.3678C46.1178 47.7592 46.722 47.5197 47.1804 47.0405C47.6389 46.5619 47.8681 45.9685 47.8681 45.2604V12.781C47.8681 12.0315 47.6391 11.4236 47.1812 10.9572C46.7232 10.4914 46.1195 10.2585 45.37 10.2585H23.3276L26.2555 20.4067H31.1771V17.7756H33.7313V20.4067H42.8675V22.9232H39.6707C39.2526 24.4916 38.6366 26.0297 37.8226 27.5375C37.0081 29.0448 36.0307 30.4482 34.8902 31.7477L41.6916 38.4575L39.8908 40.2591L33.1064 33.5316L30.8447 35.8103L32.8678 42.7586L27.868 47.7592Z" fill="#D4B2FF"/>
</svg>
