<svg width="76" height="77" viewBox="0 0 76 77" fill="none" xmlns="http://www.w3.org/2000/svg">
<g id="grain">
<mask id="mask0_256_555" style="mask-type:alpha" maskUnits="userSpaceOnUse" x="0" y="0" width="76" height="77">
<rect id="Bounding box" x="0.382812" y="0.727051" width="75.4475" height="75.4475" fill="#D9D9D9"/>
</mask>
<g mask="url(#mask0_256_555)">
<path id="grain_2" d="M19.2449 62.3916C17.7978 62.3916 16.5896 61.907 15.6203 60.9377C14.651 59.9684 14.1664 58.7602 14.1664 57.3131C14.1664 55.866 14.651 54.6577 15.6203 53.6885C16.5896 52.7192 17.7978 52.2345 19.2449 52.2345C20.6921 52.2345 21.9003 52.7192 22.8696 53.6885C23.8389 54.6577 24.3235 55.866 24.3235 57.3131C24.3235 58.7602 23.8389 59.9684 22.8696 60.9377C21.9003 61.907 20.6921 62.3916 19.2449 62.3916ZM44.3941 62.3916C42.947 62.3916 41.7388 61.907 40.7695 60.9377C39.8002 59.9684 39.3156 58.7602 39.3156 57.3131C39.3156 55.866 39.8002 54.6577 40.7695 53.6885C41.7388 52.7192 42.947 52.2345 44.3941 52.2345C45.8413 52.2345 47.0495 52.7192 48.0188 53.6885C48.988 54.6577 49.4727 55.866 49.4727 57.3131C49.4727 58.7602 48.988 59.9684 48.0188 60.9377C47.0495 61.907 45.8413 62.3916 44.3941 62.3916ZM31.8195 49.817C30.3724 49.817 29.1642 49.3324 28.1949 48.3631C27.2256 47.3938 26.741 46.1856 26.741 44.7385C26.741 43.2914 27.2256 42.0832 28.1949 41.1139C29.1642 40.1446 30.3724 39.6599 31.8195 39.6599C33.2667 39.6599 34.4749 40.1446 35.4442 41.1139C36.4135 42.0832 36.8981 43.2914 36.8981 44.7385C36.8981 46.1856 36.4135 47.3938 35.4442 48.3631C34.4749 49.3324 33.2667 49.817 31.8195 49.817ZM56.9687 49.817C55.5216 49.817 54.3134 49.3324 53.3441 48.3631C52.3748 47.3938 51.8902 46.1856 51.8902 44.7385C51.8902 43.2914 52.3748 42.0832 53.3441 41.1139C54.3134 40.1446 55.5216 39.6599 56.9687 39.6599C58.4158 39.6599 59.6241 40.1446 60.5933 41.1139C61.5626 42.0832 62.0473 43.2914 62.0473 44.7385C62.0473 46.1856 61.5626 47.3938 60.5933 48.3631C59.6241 49.3324 58.4158 49.817 56.9687 49.817ZM19.2449 37.2425C17.7978 37.2425 16.5896 36.7578 15.6203 35.7885C14.651 34.8192 14.1664 33.611 14.1664 32.1639C14.1664 30.7168 14.651 29.5086 15.6203 28.5393C16.5896 27.57 17.7978 27.0853 19.2449 27.0853C20.6921 27.0853 21.9003 27.57 22.8696 28.5393C23.8389 29.5086 24.3235 30.7168 24.3235 32.1639C24.3235 33.611 23.8389 34.8192 22.8696 35.7885C21.9003 36.7578 20.6921 37.2425 19.2449 37.2425ZM44.3941 37.2425C42.947 37.2425 41.7388 36.7578 40.7695 35.7885C39.8002 34.8192 39.3156 33.611 39.3156 32.1639C39.3156 30.7168 39.8002 29.5086 40.7695 28.5393C41.7388 27.57 42.947 27.0853 44.3941 27.0853C45.8413 27.0853 47.0495 27.57 48.0188 28.5393C48.988 29.5086 49.4727 30.7168 49.4727 32.1639C49.4727 33.611 48.988 34.8192 48.0188 35.7885C47.0495 36.7578 45.8413 37.2425 44.3941 37.2425ZM31.8195 24.6679C30.3724 24.6679 29.1642 24.1832 28.1949 23.2139C27.2256 22.2446 26.741 21.0364 26.741 19.5893C26.741 18.1422 27.2256 16.934 28.1949 15.9647C29.1642 14.9954 30.3724 14.5107 31.8195 14.5107C33.2667 14.5107 34.4749 14.9954 35.4442 15.9647C36.4135 16.934 36.8981 18.1422 36.8981 19.5893C36.8981 21.0364 36.4135 22.2446 35.4442 23.2139C34.4749 24.1832 33.2667 24.6679 31.8195 24.6679ZM56.9687 24.6679C55.5216 24.6679 54.3134 24.1832 53.3441 23.2139C52.3748 22.2446 51.8902 21.0364 51.8902 19.5893C51.8902 18.1422 52.3748 16.934 53.3441 15.9647C54.3134 14.9954 55.5216 14.5107 56.9687 14.5107C58.4158 14.5107 59.6241 14.9954 60.5933 15.9647C61.5626 16.934 62.0473 18.1422 62.0473 19.5893C62.0473 21.0364 61.5626 22.2446 60.5933 23.2139C59.6241 24.1832 58.4158 24.6679 56.9687 24.6679Z" fill="#6303CA"/>
</g>
</g>
</svg>
