<svg width="384" height="205" viewBox="0 0 384 205" fill="none" xmlns="http://www.w3.org/2000/svg">
<path d="M250.361 69.3709L256.418 63.3513L260.391 67.3236L268.435 59.2911V63.8324H270.421V55.8877H262.476V57.8739H267.018L260.391 64.5008L256.418 60.5284L248.993 68.0034L250.361 69.3709ZM246.816 78.7288C245.902 78.7288 245.139 78.4226 244.526 77.8102C243.914 77.1978 243.608 76.4344 243.608 75.5201V50.1586C243.608 49.2443 243.914 48.481 244.526 47.8686C245.139 47.2562 245.902 46.95 246.816 46.95H272.178C273.092 46.95 273.855 47.2562 274.468 47.8686C275.08 48.481 275.386 49.2443 275.386 50.1586V75.5201C275.386 76.4344 275.08 77.1978 274.468 77.8102C273.855 78.4226 273.092 78.7288 272.178 78.7288H246.816ZM246.816 76.7426H272.178C272.484 76.7426 272.764 76.6153 273.018 76.3607C273.273 76.1062 273.4 75.826 273.4 75.5201V50.1586C273.4 49.8527 273.273 49.5725 273.018 49.318C272.764 49.0634 272.484 48.9361 272.178 48.9361H246.816C246.51 48.9361 246.23 49.0634 245.976 49.318C245.721 49.5725 245.594 49.8527 245.594 50.1586V75.5201C245.594 75.826 245.721 76.1062 245.976 76.3607C246.23 76.6153 246.51 76.7426 246.816 76.7426Z" fill="#EBDDFF"/>
<path d="M299.585 18.8445H317.25C316.311 16.3214 314.815 14.0922 312.761 12.1568C310.707 10.2211 308.365 8.92306 305.735 8.26278L299.585 18.8445ZM295.145 23.1366L304.059 7.83357C303.666 7.76204 303.176 7.70838 302.59 7.67262C302.004 7.63685 301.514 7.61896 301.121 7.61896C298.76 7.61896 296.561 8.06606 294.522 8.96025C292.483 9.85445 290.677 11.0527 289.103 12.5549L295.145 23.1366ZM284.489 29.0796H296.68L287.931 13.8592C286.676 15.4083 285.7 17.0954 285.001 18.9207C284.302 20.7463 283.952 22.7019 283.952 24.7875C283.952 25.5386 283.997 26.2629 284.087 26.9604C284.176 27.6578 284.31 28.3642 284.489 29.0796ZM296.59 41.3122L302.714 30.7305H284.992C285.931 33.2535 287.441 35.4827 289.522 37.4181C291.603 39.3539 293.959 40.6519 296.59 41.3122ZM301.121 41.956C303.482 41.956 305.681 41.5089 307.72 40.6147C309.759 39.7205 311.565 38.5223 313.139 37.02L307.097 26.4383L298.265 41.6588C298.659 41.7578 299.125 41.8322 299.666 41.8819C300.207 41.9313 300.692 41.956 301.121 41.956ZM314.311 35.7158C315.456 34.2493 316.405 32.5621 317.159 30.6543C317.912 28.7461 318.289 26.7905 318.289 24.7875C318.289 24.0364 318.245 23.3121 318.155 22.6146C318.066 21.9171 317.932 21.2107 317.753 20.4953H305.562L314.311 35.7158ZM301.121 44.1021C298.463 44.1021 295.959 43.5938 293.61 42.5773C291.26 41.5604 289.214 40.1805 287.471 38.4375C285.728 36.6946 284.348 34.6483 283.331 32.2987C282.315 29.9491 281.806 27.4454 281.806 24.7875C281.806 22.1213 282.315 19.6155 283.331 17.2698C284.348 14.9245 285.728 12.8804 287.471 11.1374C289.214 9.39447 291.26 8.01455 293.61 6.99768C295.959 5.98116 298.463 5.4729 301.121 5.4729C303.787 5.4729 306.293 5.98116 308.639 6.99768C310.984 8.01455 313.028 9.39447 314.771 11.1374C316.514 12.8804 317.894 14.9245 318.911 17.2698C319.927 19.6155 320.436 22.1213 320.436 24.7875C320.436 27.4454 319.927 29.9491 318.911 32.2987C317.894 34.6483 316.514 36.6946 314.771 38.4375C313.028 40.1805 310.984 41.5604 308.639 42.5773C306.293 43.5938 303.787 44.1021 301.121 44.1021Z" fill="#CEA7FF"/>
<path d="M11.6274 35.9585C10.0958 34.4204 8.89917 32.6756 8.03763 30.7241C7.17579 28.7725 6.74487 26.7125 6.74487 24.544C6.74487 22.3754 7.16272 20.3041 7.99843 18.3299C8.83413 16.3558 10.0438 14.6109 11.6274 13.0955L12.9179 14.3521C11.4997 15.6735 10.4098 17.2157 9.6484 18.9787C8.88728 20.7417 8.50672 22.5855 8.50672 24.51C8.50672 26.4346 8.89462 28.2783 9.67042 30.0414C10.4465 31.8044 11.529 33.3577 12.9179 34.7015L11.6274 35.9585ZM18.2308 34.2883C17.7451 34.2883 17.3301 34.1161 16.9856 33.7716C16.6412 33.4272 16.469 33.0121 16.469 32.5264C16.469 32.0408 16.6412 31.6257 16.9856 31.2813C17.3301 30.9368 17.7451 30.7646 18.2308 30.7646C18.7165 30.7646 19.1315 30.9368 19.476 31.2813C19.8204 31.6257 19.9927 32.0408 19.9927 32.5264C19.9927 33.0121 19.8204 33.4272 19.476 33.7716C19.1315 34.1161 18.7165 34.2883 18.2308 34.2883ZM25.2342 25.4791V21.6743L21.9712 23.5987L21.0903 22.0738L24.3532 20.1935L21.0903 18.3132L21.9712 16.7883L25.2342 18.7127V14.908H26.996V18.7127L30.2589 16.7883L31.1399 18.3132L27.8769 20.1935L31.1399 22.0738L30.2589 23.5987L26.996 21.6743V25.4791H25.2342ZM33.6095 35.9585L32.319 34.7015C33.7373 33.3801 34.8271 31.8323 35.5885 30.0581C36.3497 28.2839 36.7302 26.4346 36.7302 24.51C36.7302 22.5855 36.3423 20.7475 35.5665 18.9959C34.7904 17.244 33.7079 15.6961 32.319 14.3521L33.6095 13.0955C35.1412 14.6336 36.3378 16.3841 37.1993 18.3471C38.0611 20.3098 38.4921 22.3754 38.4921 24.544C38.4921 26.7125 38.0685 28.7838 37.2213 30.758C36.3745 32.7321 35.1705 34.4657 33.6095 35.9585Z" fill="#CEA7FF"/>
<path d="M110.745 26.7514L109.87 23.9267L118.996 21.1003L119.871 23.925L110.745 26.7514ZM119.462 44.0545L110.464 40.84L111.532 38.0569L120.528 41.2715L119.462 44.0545ZM103.844 14.0052L101.392 12.3124L106.996 4.57555L109.449 6.26842L103.844 14.0052ZM80.431 53.047L77.0998 42.2911L74.1663 43.1997C72.9027 43.591 71.6886 43.48 70.524 42.8666C69.3597 42.2525 68.5819 41.3137 68.1905 40.0501L67.2483 37.0079C66.8569 35.7443 66.968 34.5302 67.5814 33.3656C68.1954 32.2013 69.1342 31.4235 70.3978 31.0321L80.9362 27.7683L90.0738 17.675L97.9475 43.0976L84.7046 39.9358L79.9245 41.4163L83.2557 52.1722L80.431 53.047ZM93.5648 38.9423L88.8069 23.58L82.6041 30.3474L71.2727 33.8568C70.8382 33.9914 70.4959 34.2958 70.246 34.77C69.9961 35.2441 69.9385 35.6985 70.073 36.133L71.0152 39.1753C71.1498 39.6098 71.4542 39.952 71.9284 40.2019C72.4025 40.4518 72.8569 40.5095 73.2914 40.3749L84.6228 36.8655L93.5648 38.9423ZM101.535 36.9977L96.4813 20.6792C97.6981 21.2631 98.816 22.1781 99.8351 23.4242C100.854 24.6704 101.629 26.1499 102.159 27.8626C102.69 29.5753 102.887 31.2337 102.751 32.8377C102.614 34.4416 102.209 35.8283 101.535 36.9977Z" fill="#EBDDFF"/>
<path d="M346.093 16.2626L346.776 14.698L354.598 18.1111L353.916 19.6756L346.093 16.2626ZM357.928 14.8293L356.348 10.8018L357.938 10.1776L359.519 14.2051L357.928 14.8293ZM364.192 14.3458L367.605 6.52292L369.17 7.20553L365.757 15.0284L364.192 14.3458ZM369.663 19.9488L369.038 18.3584L373.066 16.7777L373.69 18.3681L369.663 19.9488ZM368.839 26.1867L369.522 24.6221L377.345 28.0351L376.662 29.5997L368.839 26.1867ZM360.354 25.278C359.471 24.8929 358.86 24.2682 358.521 23.4039C358.182 22.5398 358.205 21.6663 358.59 20.7837C358.975 19.901 359.6 19.2901 360.464 18.9511C361.328 18.6118 362.201 18.6346 363.084 19.0197C363.967 19.4048 364.578 20.0295 364.917 20.8938C365.256 21.758 365.233 22.6314 364.848 23.5141C364.463 24.3968 363.838 25.0076 362.974 25.3466C362.11 25.686 361.236 25.6631 360.354 25.278ZM365.5 34.1201L363.919 30.0927L365.509 29.4684L367.09 33.4959L365.5 34.1201ZM350.372 27.52L349.748 25.9296L353.775 24.3489L354.399 25.9393L350.372 27.52ZM354.268 37.0922L357.681 29.2694L359.246 29.952L355.833 37.7748L354.268 37.0922Z" fill="#EBDDFF"/>
<path d="M364.705 120.555C362.874 119.062 360.851 117.884 358.637 117.021C356.423 116.157 354.097 115.642 351.66 115.475V100.235C354.154 100.381 356.523 100.977 358.769 102.021C361.014 103.065 362.993 104.358 364.705 105.898C366.417 104.358 368.396 103.065 370.641 102.021C372.886 100.977 375.256 100.381 377.75 100.235V115.475C375.306 115.642 372.979 116.157 370.768 117.021C368.557 117.884 366.536 119.062 364.705 120.555ZM364.705 118.51C366.417 117.254 368.238 116.241 370.167 115.471C372.097 114.701 374.081 114.192 376.119 113.945V102.067C373.989 102.42 371.955 103.107 370.018 104.128C368.082 105.149 366.31 106.463 364.705 108.068C363.099 106.463 361.328 105.149 359.391 104.128C357.454 103.107 355.421 102.42 353.291 102.067V113.945C355.329 114.192 357.313 114.701 359.242 115.471C361.172 116.241 362.993 117.254 364.705 118.51ZM364.705 100.11C363.256 100.11 362.016 99.594 360.984 98.5624C359.952 97.5305 359.437 96.2903 359.437 94.8418C359.437 93.393 359.952 92.1528 360.984 91.1212C362.016 90.0895 363.256 89.5737 364.705 89.5737C366.153 89.5737 367.394 90.0895 368.425 91.1212C369.457 92.1528 369.973 93.393 369.973 94.8418C369.973 96.2903 369.457 97.5305 368.425 98.5624C367.394 99.594 366.153 100.11 364.705 100.11ZM364.706 98.4793C365.707 98.4793 366.563 98.123 367.275 97.4104C367.986 96.6978 368.342 95.8412 368.342 94.8406C368.342 93.8399 367.986 92.9837 367.273 92.272C366.561 91.5602 365.704 91.2043 364.703 91.2043C363.703 91.2043 362.847 91.5605 362.135 92.2728C361.423 92.9854 361.067 93.842 361.067 94.8426C361.067 95.8433 361.424 96.6995 362.136 97.4112C362.849 98.1232 363.705 98.4793 364.706 98.4793Z" fill="#EBDDFF"/>
<path d="M337.596 175.087L339.152 174.685L339.526 170.9L346.324 169.143L348.486 172.272L350.099 171.855L341.251 159.268L339.177 159.804L337.596 175.087ZM339.757 169.181L340.574 161.164L340.689 161.134L345.288 167.751L339.757 169.181ZM356.433 159.031L356.016 157.418C357.077 156.447 358.285 155.612 359.641 154.913C360.997 154.214 362.424 153.671 363.922 153.284C364.728 153.075 365.509 152.925 366.263 152.832C367.018 152.74 367.823 152.685 368.68 152.669L369.097 154.282C368.269 154.25 367.49 154.287 366.759 154.394C366.029 154.501 365.222 154.669 364.339 154.897C362.841 155.284 361.414 155.828 360.058 156.526C358.702 157.225 357.494 158.06 356.433 159.031ZM359.68 171.591L359.234 169.862C360.217 168.911 361.416 168.079 362.829 167.365C364.243 166.652 365.679 166.106 367.139 165.729C367.945 165.52 368.726 165.37 369.481 165.277C370.235 165.184 371.041 165.13 371.897 165.113L372.314 166.726C371.486 166.695 370.707 166.732 369.977 166.839C369.246 166.946 368.439 167.114 367.556 167.342C366.058 167.729 364.636 168.291 363.29 169.029C361.944 169.766 360.741 170.62 359.68 171.591ZM358.072 165.368L357.625 163.64C358.685 162.669 359.893 161.834 361.249 161.136C362.605 160.437 364.032 159.894 365.53 159.506C366.337 159.298 367.117 159.147 367.872 159.055C368.627 158.962 369.432 158.907 370.288 158.891L370.705 160.504C369.878 160.472 369.098 160.51 368.368 160.617C367.638 160.724 366.831 160.891 365.947 161.12C364.449 161.507 363.027 162.069 361.681 162.806C360.335 163.544 359.132 164.398 358.072 165.368ZM343.397 178.505C345.471 177.968 347.55 177.687 349.633 177.661C351.716 177.635 353.862 177.93 356.07 178.548L350.231 155.963C348.214 155.132 346.086 154.668 343.848 154.571C341.61 154.473 339.454 154.692 337.38 155.229C335.997 155.586 334.852 155.954 333.946 156.331C333.04 156.709 332.008 157.273 330.849 158.023C330.428 158.296 330.159 158.601 330.041 158.939C329.924 159.277 329.909 159.618 329.999 159.964L335.212 180.129C335.351 180.667 335.645 181.011 336.093 181.161C336.542 181.312 336.972 181.231 337.383 180.92C338.015 180.511 338.83 180.095 339.827 179.674C340.824 179.252 342.014 178.862 343.397 178.505ZM357.683 178.131C359.316 176.52 361.049 175.222 362.884 174.235C364.719 173.249 366.673 172.487 368.747 171.951C370.13 171.594 371.36 171.358 372.437 171.243C373.513 171.129 374.427 171.097 375.178 171.149C375.689 171.222 376.104 171.084 376.423 170.735C376.743 170.386 376.833 169.943 376.694 169.405L371.481 149.24C371.392 148.894 371.216 148.612 370.955 148.393C370.693 148.173 370.307 148.027 369.797 147.954C368.42 147.86 367.244 147.867 366.268 147.975C365.292 148.084 364.113 148.317 362.73 148.675C360.656 149.211 358.664 150.064 356.753 151.234C354.843 152.404 353.207 153.841 351.844 155.546L357.683 178.131ZM357.472 180.644C355.273 179.901 353.013 179.481 350.693 179.384C348.373 179.288 346.08 179.532 343.814 180.118C342.739 180.396 341.7 180.736 340.698 181.139C339.695 181.541 338.739 182.045 337.83 182.648C337.065 183.174 336.245 183.253 335.371 182.885C334.497 182.516 333.936 181.852 333.688 180.892L328.356 160.266C328.197 159.651 328.214 159.043 328.406 158.44C328.599 157.837 328.958 157.365 329.485 157.024C330.585 156.207 331.77 155.521 333.04 154.967C334.311 154.414 335.618 153.963 336.963 153.615C339.229 153.03 341.524 152.795 343.849 152.911C346.174 153.027 348.441 153.475 350.651 154.256C352.205 152.502 353.971 151.011 355.948 149.783C357.925 148.555 360.047 147.648 362.313 147.062C363.657 146.714 365.019 146.475 366.399 146.343C367.779 146.212 369.148 146.237 370.506 146.419C371.132 146.462 371.675 146.7 372.135 147.135C372.596 147.569 372.906 148.093 373.065 148.708L378.397 169.333C378.645 170.294 378.433 171.137 377.76 171.864C377.088 172.591 376.251 172.921 375.25 172.852C374.21 172.793 373.186 172.832 372.176 172.97C371.167 173.108 370.163 173.306 369.164 173.564C366.898 174.15 364.774 175.048 362.792 176.257C360.81 177.466 359.037 178.928 357.472 180.644Z" fill="#CEA7FF"/>
<path d="M29.4999 166.14L38.6803 155.589L25.5159 150.865L29.4999 166.14ZM47.0632 177.133L47.6944 176.968C47.8993 177.409 47.8906 177.849 47.6683 178.289C47.446 178.729 47.1143 179.052 46.6734 179.257L18.7818 190.441C17.7627 190.842 16.7606 190.834 15.7754 190.416C14.7902 189.999 14.0973 189.281 13.6966 188.262L4.50973 165.445C4.10911 164.426 4.12243 163.4 4.54969 162.367C4.97695 161.334 5.70562 160.639 6.73569 160.28L9.03825 159.545L9.49921 161.312L7.51225 161.965C6.9341 162.161 6.53431 162.524 6.31291 163.053C6.0915 163.583 6.0997 164.131 6.33752 164.698L15.3982 187.548C15.636 188.116 16.0092 188.513 16.5178 188.74C17.0264 188.966 17.5643 188.961 18.1315 188.723L47.0632 177.133ZM23.275 177.944C22.1809 178.229 21.1829 178.107 20.2809 177.578C19.379 177.05 18.7853 176.238 18.5 175.144L11.9149 149.896C11.6295 148.802 11.7512 147.803 12.28 146.902C12.8088 146 13.6203 145.406 14.7144 145.121L39.9629 138.535C41.057 138.25 42.055 138.372 42.9569 138.901C43.8589 139.429 44.4525 140.241 44.7379 141.335L51.323 166.583C51.6084 167.678 51.4867 168.676 50.9579 169.578C50.4291 170.479 49.6176 171.073 48.5235 171.359L23.275 177.944ZM22.8141 176.176L48.0626 169.591C48.6517 169.437 49.0862 169.122 49.3662 168.644C49.6461 168.167 49.7093 167.634 49.5556 167.044L42.9705 141.796C42.8168 141.207 42.5013 140.772 42.0238 140.492C41.5463 140.212 41.0129 140.149 40.4238 140.303L15.1753 146.888C14.5862 147.042 14.1516 147.357 13.8717 147.835C13.5917 148.312 13.5286 148.846 13.6822 149.435L20.2674 174.683C20.421 175.272 20.7366 175.707 21.2141 175.987C21.6916 176.267 22.2249 176.33 22.8141 176.176Z" fill="#EBDDFF"/>
<path fill-rule="evenodd" clip-rule="evenodd" d="M277.821 145.252C280.331 143.907 282.828 142.536 285.324 141.164C291.082 138.001 296.839 134.838 302.754 132.002C308.182 129.398 313.96 127.34 319.802 125.947C321.24 125.605 322.98 126.519 324.722 127.434C325.525 127.856 326.329 128.278 327.103 128.577C326.724 129.276 326.396 130.052 326.068 130.828C325.337 132.559 324.605 134.29 323.3 135.168C319.987 137.401 316.089 138.846 312.286 140.256C312.124 140.316 311.961 140.376 311.799 140.436C300.924 144.486 290.697 149.624 281.785 157.146C283.143 156.807 284.449 156.316 285.747 155.828C287.092 155.323 288.429 154.82 289.805 154.495C290.429 154.347 291.053 154.198 291.677 154.049C297.891 152.564 304.125 151.075 310.441 150.374C311.75 150.228 313.226 151.605 314.703 152.981C315.383 153.616 316.064 154.251 316.728 154.736C316.199 155.324 315.703 155.997 315.207 156.671C314.11 158.159 313.013 159.648 311.553 160.217C308.797 161.285 305.835 161.831 302.869 162.379C301.444 162.642 300.019 162.905 298.615 163.226C294.215 164.237 289.817 165.29 285.423 166.342C283.972 166.689 282.521 167.036 281.071 167.382C284.053 167.898 286.957 167.988 289.794 168.076C292.253 168.152 294.662 168.226 297.03 168.575C298.374 168.771 299.509 170.352 300.646 171.936C301.164 172.657 301.682 173.379 302.22 173.97C301.642 174.32 301.071 174.748 300.501 175.176C299.258 176.109 298.013 177.044 296.682 177.178C293.191 177.53 289.659 177.509 285.788 177.485C284.182 177.475 282.518 177.465 280.775 177.481C281.34 177.978 281.852 178.375 282.3 178.722C283.139 179.372 283.75 179.846 284.05 180.469C284.742 181.92 285.232 183.464 285.721 185.004C285.918 185.624 286.115 186.243 286.324 186.855C285.691 186.937 285.048 187.068 284.404 187.199C283.002 187.486 281.599 187.772 280.286 187.546C277.911 187.142 275.589 186.411 273.266 185.679C272.271 185.366 271.277 185.053 270.277 184.765C270.526 186.032 271.101 186.846 271.601 187.554C271.916 188 272.201 188.405 272.357 188.855C272.833 190.212 273.032 191.664 273.232 193.118C273.315 193.725 273.398 194.332 273.502 194.933C272.92 194.916 272.331 194.93 271.743 194.944C270.442 194.976 269.144 195.007 267.927 194.699C266.349 194.296 264.84 193.615 263.266 192.904C262.581 192.595 261.885 192.281 261.165 191.982C260.878 194.699 260.641 196.949 260.513 198.175C259.327 198.336 258.219 198.487 257.161 198.63C255.881 198.804 254.676 198.968 253.497 199.128V183.706C254.718 174.353 254.568 164.898 253.81 155.369C253.752 154.645 253.693 153.921 253.634 153.196C253.588 152.638 253.542 152.079 253.497 151.52V132.086C253.941 129.058 254.688 126.052 255.869 123.083C267.212 94.5588 286.947 73.2949 313.631 58.6158C320.472 54.8574 327.935 52.1964 335.38 49.542C337.648 48.7333 339.915 47.9252 342.162 47.0868C343.758 46.4818 346.864 46.7607 347.604 47.8176C348.636 49.2587 348.816 52.2003 347.997 53.8546C346.726 56.4315 344.652 58.9039 342.323 60.6261C340.088 62.2796 337.52 63.4835 334.962 64.6832C334.216 65.0328 333.472 65.3821 332.736 65.742C310.844 76.4913 291.789 90.7403 277.163 110.481C276.371 111.553 275.555 112.618 274.74 113.684C274.332 114.217 273.924 114.75 273.519 115.283C273.808 115.486 274.102 115.682 274.393 115.877C274.54 115.975 274.687 116.073 274.832 116.171C275.661 115.348 276.487 114.522 277.312 113.696C279.155 111.853 280.997 110.01 282.87 108.202C299.636 92.0694 318.406 79.0049 340.63 71.5115C342.22 70.9772 344.152 71.4785 346.086 71.98C346.983 72.2127 347.881 72.4455 348.744 72.5749C348.45 73.4953 348.235 74.4962 348.019 75.4976C347.536 77.7382 347.053 79.9816 345.691 81.3337C343.48 83.5309 340.415 84.9241 337.408 86.2911C336.689 86.6181 335.973 86.9435 335.273 87.2781C320.854 94.1809 306.521 101.251 294.687 112.226C291.021 115.618 287.656 119.336 284.292 123.053C282.749 124.758 281.205 126.463 279.634 128.137C279.819 128.314 280.008 128.494 280.197 128.674C280.387 128.854 280.576 129.034 280.762 129.211C281.099 128.915 281.437 128.621 281.775 128.326C282.583 127.622 283.392 126.918 284.182 126.186C298.821 112.624 315.786 103.199 335.015 97.9753C336.456 97.5815 338.119 97.9959 339.778 98.4094C340.546 98.601 341.315 98.7925 342.06 98.9032C341.783 99.6322 341.571 100.447 341.359 101.262C340.892 103.058 340.426 104.85 339.266 105.704C335.433 108.531 331.073 110.85 326.61 112.56C307.846 119.739 291.587 130.557 277.821 145.252Z" fill="url(#paint0_linear_581_581)"/>
<path fill-rule="evenodd" clip-rule="evenodd" d="M101.445 145.252C98.9355 143.907 96.439 142.536 93.9428 141.164C88.1844 138.001 82.4279 134.838 76.5129 132.002C71.0845 129.398 65.307 127.34 59.4647 125.947C58.027 125.605 56.2865 126.519 54.545 127.434C53.7415 127.856 52.9378 128.278 52.1635 128.577C52.543 129.276 52.8708 130.052 53.1987 130.828C53.9301 132.559 54.6616 134.29 55.9669 135.168C59.2794 137.401 63.1777 138.846 66.9806 140.256C67.1431 140.316 67.3055 140.376 67.4677 140.436C78.3432 144.486 88.5702 149.624 97.4822 157.146C96.1233 156.807 94.8173 156.316 93.5197 155.828C92.1744 155.323 90.8381 154.82 89.4617 154.495C88.8377 154.347 88.2136 154.198 87.5893 154.049C81.3754 152.564 75.142 151.075 68.8258 150.374C67.5165 150.228 66.0402 151.605 64.564 152.981C63.8834 153.616 63.2027 154.251 62.5384 154.736C63.0679 155.324 63.5639 155.997 64.0599 156.671C65.1567 158.159 66.2538 159.648 67.7134 160.217C70.4701 161.285 73.4318 161.831 76.3978 162.379C77.8223 162.642 79.2478 162.905 80.652 163.226C85.0516 164.237 89.4496 165.29 93.8442 166.342C95.2951 166.689 96.7456 167.036 98.1957 167.382C95.2137 167.898 92.3101 167.988 89.4725 168.076C87.0137 168.152 84.6044 168.226 82.2366 168.575C80.8932 168.771 79.7578 170.352 78.6207 171.936C78.1031 172.657 77.5851 173.379 77.047 173.97C77.625 174.32 78.1952 174.748 78.7659 175.176C80.009 176.109 81.2541 177.044 82.5848 177.178C86.0757 177.53 89.6076 177.509 93.4792 177.485C95.0845 177.475 96.7483 177.465 98.4917 177.481C97.9269 177.978 97.4145 178.375 96.9669 178.722C96.1275 179.372 95.5164 179.846 95.2168 180.469C94.5252 181.92 94.0348 183.464 93.5455 185.004C93.3487 185.624 93.152 186.243 92.9425 186.855C93.5762 186.937 94.2192 187.068 94.8625 187.199C96.2645 187.486 97.668 187.772 98.9806 187.546C101.356 187.142 103.677 186.411 106.001 185.679C106.996 185.366 107.99 185.053 108.99 184.765C108.74 186.032 108.166 186.846 107.666 187.554C107.351 188 107.066 188.405 106.909 188.855C106.434 190.212 106.235 191.664 106.035 193.118C105.952 193.725 105.868 194.332 105.765 194.933C106.347 194.916 106.936 194.93 107.524 194.944C108.825 194.976 110.123 195.007 111.339 194.699C112.917 194.296 114.427 193.615 116.001 192.904C116.685 192.595 117.382 192.281 118.101 191.982C118.389 194.699 118.626 196.949 118.754 198.175C119.94 198.336 121.048 198.487 122.106 198.63C123.386 198.804 124.591 198.968 125.77 199.128V183.708C124.548 174.355 124.699 164.898 125.457 155.369C125.514 154.645 125.574 153.921 125.633 153.196C125.679 152.636 125.725 152.076 125.77 151.516V132.088C125.326 129.059 124.579 126.053 123.398 123.083C112.055 94.5588 92.32 73.2949 65.636 58.6158C58.7948 54.8574 51.3315 52.1964 43.8866 49.542C41.6184 48.7333 39.3518 47.9252 37.1051 47.0868C35.5092 46.4818 32.4032 46.7607 31.6623 47.8176C30.6305 49.2587 30.4503 52.2003 31.2697 53.8546C32.5408 56.4315 34.6143 58.9039 36.9434 60.6261C39.1791 62.2796 41.7464 63.4835 44.3049 64.6832C45.0504 65.0328 45.7952 65.3821 46.5309 65.742C68.4225 76.4913 87.4776 90.7403 102.104 110.481C102.896 111.553 103.711 112.618 104.527 113.684C104.935 114.217 105.343 114.75 105.747 115.283C105.458 115.486 105.165 115.682 104.874 115.877C104.727 115.975 104.58 116.073 104.435 116.171C103.606 115.348 102.78 114.522 101.954 113.696C100.112 111.853 98.2697 110.01 96.3967 108.202C79.6302 92.0694 60.8607 79.0049 38.6365 71.5115C37.0471 70.9772 35.1143 71.4785 33.1808 71.98C32.2834 72.2127 31.3859 72.4455 30.5224 72.5749C30.8163 73.4953 31.032 74.4962 31.2478 75.4976C31.7307 77.7382 32.2142 79.9816 33.5761 81.3337C35.7871 83.5309 38.8518 84.9241 41.859 86.2911C42.5781 86.6181 43.294 86.9435 43.9942 87.2781C58.4123 94.1809 72.7459 101.251 84.5798 112.226C88.2458 115.618 91.6108 119.336 94.9746 123.053C96.518 124.758 98.0613 126.463 99.6332 128.137C99.4476 128.314 99.2585 128.494 99.0693 128.674C98.8798 128.854 98.6903 129.034 98.5044 129.211C98.1679 128.915 97.8299 128.621 97.4918 128.326C96.6837 127.622 95.8751 126.918 95.0844 126.186C80.4454 112.624 63.4808 103.199 44.2521 97.9753C42.8105 97.5815 41.1481 97.9959 39.4892 98.4094C38.7203 98.601 37.9521 98.7925 37.207 98.9032C37.484 99.6322 37.696 100.447 37.9077 101.262C38.3745 103.058 38.8403 104.85 40.0003 105.704C43.8333 108.531 48.1937 110.85 52.6564 112.56C71.4206 119.739 87.6795 130.557 101.445 145.252Z" fill="url(#paint1_linear_581_581)"/>
<path d="M242.055 31.31L191.288 52.0357L140.521 31.31L191.288 17.4448L242.055 31.31Z" stroke="#7100FF" stroke-width="2" stroke-miterlimit="10"/>
<path d="M140.521 62.0638V31.3099" stroke="#7100FF" stroke-width="2" stroke-miterlimit="10"/>
<path d="M140.752 83.7686C146.779 83.7686 151.665 78.8824 151.665 72.855C151.665 66.8276 146.779 61.9414 140.752 61.9414C134.725 61.9414 129.838 66.8276 129.838 72.855C129.838 78.8824 134.725 83.7686 140.752 83.7686Z" stroke="#7100FF" stroke-width="2" stroke-miterlimit="10"/>
<path d="M225.346 37.4435V66.0088C225.346 71.0049 221.301 75.0507 216.305 75.0507H164.588C159.591 75.0507 155.546 71.0049 155.546 66.0088V37.4435" stroke="#7100FF" stroke-width="2" stroke-miterlimit="10"/>
<path d="M215.75 75.2739C217.406 79.3485 218.335 83.891 218.335 88.6855C218.335 106.287 205.852 120.555 190.446 120.555C175.041 120.555 162.558 106.287 162.558 88.6855C162.558 83.927 163.472 79.4133 165.106 75.3603" stroke="#7100FF" stroke-width="2" stroke-miterlimit="10"/>
<path d="M253.48 204.538V153.994C253.48 136.609 239.384 122.506 221.992 122.506H211.855" stroke="#7100FF" stroke-width="2" stroke-miterlimit="10"/>
<path d="M167.834 122.506H157.065C139.679 122.506 125.576 136.601 125.576 153.994V204.538" stroke="#7100FF" stroke-width="2" stroke-miterlimit="10"/>
<path d="M160.75 182.955V204.538" stroke="#7100FF" stroke-width="2" stroke-miterlimit="10"/>
<path d="M218.334 182.955V204.538" stroke="#7100FF" stroke-width="2" stroke-miterlimit="10"/>
<defs>
<linearGradient id="paint0_linear_581_581" x1="285.413" y1="58.8817" x2="312.229" y2="187.383" gradientUnits="userSpaceOnUse">
<stop stop-color="#AD6BFF"/>
<stop offset="1" stop-color="#DBBFFF"/>
</linearGradient>
<linearGradient id="paint1_linear_581_581" x1="93.8539" y1="58.8817" x2="67.0377" y2="187.383" gradientUnits="userSpaceOnUse">
<stop stop-color="#AD6BFF"/>
<stop offset="1" stop-color="#DBBFFF"/>
</linearGradient>
</defs>
</svg>
