<svg width="76" height="77" viewBox="0 0 76 77" fill="none" xmlns="http://www.w3.org/2000/svg">
<g id="manufacturing">
<mask id="mask0_256_558" style="mask-type:alpha" maskUnits="userSpaceOnUse" x="0" y="0" width="76" height="77">
<rect id="Bounding box" x="0.530518" y="0.56543" width="75.4475" height="75.4475" fill="#D9D9D9"/>
</mask>
<g mask="url(#mask0_256_558)">
<path id="manufacturing_2" d="M20.4926 34.7824L20.1538 32.0018C19.1625 31.7802 18.2307 31.4347 17.3583 30.9652C16.4855 30.4958 15.7003 29.8901 15.003 29.1482L12.3191 30.3215L10.6262 27.6369L12.9722 25.7027C12.6253 24.6989 12.4519 23.6549 12.4519 22.5709C12.4519 21.4868 12.6253 20.4429 12.9722 19.439L10.6262 17.5049L12.3191 14.8202L15.003 15.9936C15.7003 15.2517 16.4855 14.646 17.3583 14.1766C18.2307 13.7071 19.1625 13.3616 20.1538 13.1399L20.4926 10.3594H23.6362L23.9749 13.1399C24.9662 13.3616 25.8981 13.7071 26.7704 14.1766C27.6433 14.646 28.4284 15.2517 29.1258 15.9936L31.8097 14.8202L33.5025 17.5049L31.1566 19.439C31.5034 20.4429 31.6769 21.4868 31.6769 22.5709C31.6769 23.6549 31.5034 24.6989 31.1566 25.7027L33.5025 27.6369L31.8097 30.3215L29.1258 29.1482C28.4284 29.8901 27.6433 30.4958 26.7704 30.9652C25.8981 31.4347 24.9662 31.7802 23.9749 32.0018L23.6362 34.7824H20.4926ZM22.0644 29.3415C23.9548 29.3415 25.5559 28.6858 26.8679 27.3744C28.1793 26.0624 28.835 24.4613 28.835 22.5709C28.835 20.6805 28.1793 19.0793 26.8679 17.7674C25.5559 16.456 23.9548 15.8002 22.0644 15.8002C20.174 15.8002 18.5728 16.456 17.2609 17.7674C15.9495 19.0793 15.2938 20.6805 15.2938 22.5709C15.2938 24.4613 15.9495 26.0624 17.2609 27.3744C18.5728 28.6858 20.174 29.3415 22.0644 29.3415ZM49.5957 66.6425L49.0274 63.3055C47.6128 63.152 46.2938 62.7215 45.0704 62.0142C43.847 61.3069 42.8083 60.3832 41.9542 59.2431L38.8711 60.44L36.948 57.2477L39.5604 55.1438C38.9714 53.7574 38.677 52.3307 38.677 50.8637C38.677 49.3967 38.9714 47.97 39.5604 46.5836L36.948 44.4797L38.8711 41.2874L41.9542 42.4843C42.8083 41.3442 43.847 40.4205 45.0704 39.7132C46.2938 39.0059 47.6128 38.5754 49.0274 38.4219L49.5957 35.085H53.3193L53.8875 38.4219C55.3022 38.5754 56.6212 39.0059 57.8446 39.7132C59.068 40.4205 60.1067 41.3442 60.9607 42.4843L64.0439 41.2874L65.967 44.4797L63.3546 46.5836C63.9435 47.97 64.238 49.3967 64.238 50.8637C64.238 52.3307 63.9435 53.7574 63.3546 55.1438L65.967 57.2477L64.0439 60.44L60.9607 59.2431C60.1067 60.3832 59.068 61.3069 57.8446 62.0142C56.6212 62.7215 55.3022 63.152 53.8875 63.3055L53.3193 66.6425H49.5957ZM51.4575 60.2947C54.0772 60.2947 56.3039 59.3778 58.1377 57.544C59.9715 55.7102 60.8884 53.4834 60.8884 50.8637C60.8884 48.244 59.9715 46.0173 58.1377 44.1835C56.3039 42.3497 54.0772 41.4328 51.4575 41.4328C48.8378 41.4328 46.611 42.3497 44.7772 44.1835C42.9434 46.0173 42.0265 48.244 42.0265 50.8637C42.0265 53.4834 42.9434 55.7102 44.7772 57.544C46.611 59.3778 48.8378 60.2947 51.4575 60.2947Z" fill="#6303CA"/>
</g>
</g>
</svg>
