<svg width="145" height="46" viewBox="0 0 145 46" fill="none" xmlns="http://www.w3.org/2000/svg">
<path d="M58.9494 17.2938C59.2802 17.2938 59.5977 17.2607 59.9021 17.1946C60.2064 17.1284 60.5107 17.049 60.8151 16.9564V19.1595C60.4975 19.2918 60.1005 19.4043 59.6242 19.4969C59.1611 19.6028 58.6516 19.6557 58.0959 19.6557C57.4475 19.6557 56.8653 19.5499 56.3493 19.3382C55.8465 19.1264 55.4429 18.7626 55.1385 18.2465C54.8474 17.7172 54.7019 16.9895 54.7019 16.0632V10.8432H53.2927V9.59281L54.9202 8.60041L55.7737 6.3179H57.6592V8.62026H60.696V10.8432H57.6592V16.0632C57.6592 16.4734 57.7783 16.7844 58.0165 16.9961C58.2547 17.1946 58.5656 17.2938 58.9494 17.2938ZM65.7491 7.44923C65.7491 7.97851 65.7293 8.48794 65.6896 8.97753C65.6631 9.46711 65.6367 9.81114 65.6102 10.0096H65.769C66.0072 9.63912 66.285 9.3414 66.6026 9.11646C66.9202 8.87828 67.2708 8.70627 67.6545 8.60041C68.0515 8.48133 68.4683 8.42178 68.905 8.42178C69.6856 8.42178 70.3671 8.56072 70.9493 8.83859C71.5315 9.11646 71.9814 9.5465 72.299 10.1287C72.6298 10.7109 72.7952 11.4651 72.7952 12.3914V19.4572H69.8378V13.1257C69.8378 12.3451 69.6923 11.7629 69.4012 11.3791C69.1233 10.9822 68.6866 10.7837 68.0912 10.7837C67.4958 10.7837 67.026 10.9226 66.682 11.2005C66.3512 11.4784 66.113 11.8819 65.9675 12.4112C65.8219 12.9405 65.7491 13.5889 65.7491 14.3563V19.4572H62.7918V4.3728H65.7491V7.44923ZM80.1037 8.42178C81.1093 8.42178 81.9694 8.61365 82.6839 8.99737C83.4117 9.3811 83.9741 9.93684 84.371 10.6646C84.768 11.3924 84.9665 12.2855 84.9665 13.3441V14.7731H77.98C78.0064 15.6067 78.2512 16.2617 78.7143 16.7381C79.1907 17.2144 79.8457 17.4526 80.6793 17.4526C81.3806 17.4526 82.0157 17.3864 82.5847 17.2541C83.1537 17.1086 83.7425 16.8902 84.3512 16.5991V18.8817C83.8219 19.1463 83.2595 19.3382 82.6641 19.4572C82.0819 19.5896 81.374 19.6557 80.5404 19.6557C79.4553 19.6557 78.496 19.4572 77.6624 19.0603C76.8288 18.6501 76.1738 18.0348 75.6975 17.2144C75.2211 16.394 74.9829 15.362 74.9829 14.1181C74.9829 12.8479 75.1946 11.7959 75.6181 10.9623C76.0547 10.1155 76.6568 9.48034 77.4242 9.05692C78.1917 8.63349 79.0848 8.42178 80.1037 8.42178ZM80.1236 10.5257C79.5546 10.5257 79.0782 10.7109 78.6945 11.0814C78.324 11.4519 78.1057 12.0275 78.0395 12.8082H82.1877C82.1877 12.3715 82.1083 11.9812 81.9496 11.6372C81.804 11.2931 81.5791 11.0219 81.2747 10.8234C80.9704 10.6249 80.5867 10.5257 80.1236 10.5257ZM60.5372 28.4218C61.7016 28.4218 62.6345 28.7393 63.3358 29.3745C64.037 29.9964 64.3877 31.002 64.3877 32.3914V39.4572H61.4303V33.1257C61.4303 32.3451 61.2914 31.7629 61.0135 31.3791C60.7357 30.9822 60.2924 30.7837 59.6837 30.7837C58.784 30.7837 58.1687 31.0946 57.8379 31.7165C57.5071 32.3252 57.3417 33.2051 57.3417 34.3563V39.4572H54.3843V28.6203H56.647L57.0439 30.0096H57.2027C57.4409 29.6391 57.732 29.3414 58.076 29.1165C58.4201 28.8783 58.8038 28.7063 59.2272 28.6004C59.6506 28.4813 60.0873 28.4218 60.5372 28.4218ZM71.6962 28.4218C72.7019 28.4218 73.5619 28.6136 74.2765 28.9974C75.0042 29.3811 75.5666 29.9368 75.9635 30.6646C76.3605 31.3924 76.559 32.2855 76.559 33.3441V34.7731H69.5725C69.599 35.6067 69.8438 36.2617 70.3069 36.7381C70.7832 37.2144 71.4382 37.4526 72.2718 37.4526C72.9731 37.4526 73.6083 37.3864 74.1772 37.2541C74.7462 37.1086 75.335 36.8902 75.9437 36.5991V38.8817C75.4144 39.1463 74.8521 39.3382 74.2566 39.4572C73.6744 39.5896 72.9665 39.6557 72.1329 39.6557C71.0479 39.6557 70.0886 39.4572 69.2549 39.0603C68.4213 38.6501 67.7663 38.0348 67.29 37.2144C66.8136 36.394 66.5755 35.362 66.5755 34.1181C66.5755 32.8479 66.7872 31.7959 67.2106 30.9623C67.6473 30.1155 68.2493 29.4803 69.0168 29.0569C69.7842 28.6335 70.6774 28.4218 71.6962 28.4218ZM71.7161 30.5257C71.1471 30.5257 70.6708 30.7109 70.287 31.0814C69.9165 31.4519 69.6982 32.0275 69.632 32.8082H73.7803C73.7803 32.3715 73.7009 31.9812 73.5421 31.6372C73.3965 31.2931 73.1716 31.0219 72.8673 30.8234C72.5629 30.6249 72.1792 30.5257 71.7161 30.5257ZM83.3236 37.2938C83.6544 37.2938 83.9719 37.2607 84.2763 37.1946C84.5806 37.1284 84.8849 37.049 85.1893 36.9564V39.1595C84.8717 39.2918 84.4748 39.4043 83.9984 39.4969C83.5353 39.6028 83.0259 39.6557 82.4701 39.6557C81.8217 39.6557 81.2395 39.5499 80.7235 39.3382C80.2207 39.1264 79.8171 38.7626 79.5128 38.2465C79.2217 37.7172 79.0761 36.9895 79.0761 36.0632V30.8432H77.6669V29.5928L79.2944 28.6004L80.1479 26.3179H82.0335V28.6203H85.0702V30.8432H82.0335V36.0632C82.0335 36.4734 82.1525 36.7844 82.3907 36.9961C82.6289 37.1946 82.9398 37.2938 83.3236 37.2938ZM95.2441 35.6663C95.1912 35.4413 95.1118 35.1105 95.0059 34.6739C94.9133 34.224 94.8075 33.7476 94.6884 33.2448C94.5693 32.7288 94.4568 32.2591 94.351 31.8356C94.2451 31.399 94.1723 31.0814 94.1326 30.8829H94.0532C94.0136 31.0814 93.9408 31.399 93.8349 31.8356C93.7423 32.2591 93.6364 32.7288 93.5174 33.2448C93.3983 33.7476 93.2858 34.224 93.1799 34.6739C93.0741 35.1238 92.9947 35.4678 92.9418 35.706L92.0685 39.4572H88.8928L85.8163 28.6203H88.7538L90.0043 33.4235C90.0969 33.7543 90.1763 34.1512 90.2424 34.6143C90.3218 35.0775 90.3946 35.5273 90.4608 35.964C90.5269 36.3874 90.5732 36.7248 90.5997 36.9763H90.6791C90.6923 36.791 90.7188 36.5462 90.7585 36.2419C90.7982 35.9243 90.8445 35.6001 90.8974 35.2693C90.9636 34.9385 91.0165 34.6408 91.0562 34.3762C91.1091 34.0983 91.1488 33.913 91.1753 33.8204L92.5051 28.6203H95.7602L97.0304 33.8204C97.0834 34.0057 97.1429 34.3034 97.2091 34.7136C97.2885 35.1238 97.3546 35.5406 97.4076 35.964C97.4737 36.3874 97.5068 36.7248 97.5068 36.9763H97.5862C97.6126 36.7513 97.659 36.4271 97.7251 36.0037C97.7913 35.567 97.8641 35.1105 97.9434 34.6342C98.0361 34.1578 98.1287 33.7543 98.2213 33.4235L99.5114 28.6203H102.409L99.2931 39.4572H96.0777L95.2441 35.6663ZM113.811 34.0189C113.811 34.9187 113.685 35.7192 113.434 36.4205C113.196 37.1218 112.845 37.7172 112.382 38.2068C111.932 38.6832 111.383 39.0471 110.734 39.2985C110.086 39.5366 109.352 39.6557 108.531 39.6557C107.777 39.6557 107.076 39.5366 106.427 39.2985C105.792 39.0471 105.243 38.6832 104.78 38.2068C104.317 37.7172 103.953 37.1218 103.688 36.4205C103.437 35.7192 103.311 34.9187 103.311 34.0189C103.311 32.8148 103.523 31.8026 103.946 30.9822C104.37 30.1486 104.978 29.5134 105.772 29.0768C106.566 28.6401 107.506 28.4218 108.591 28.4218C109.61 28.4218 110.509 28.6401 111.29 29.0768C112.071 29.5134 112.686 30.1486 113.136 30.9822C113.586 31.8026 113.811 32.8148 113.811 34.0189ZM106.328 34.0189C106.328 34.7334 106.401 35.3355 106.546 35.8251C106.705 36.3014 106.95 36.6653 107.281 36.9167C107.612 37.1549 108.042 37.274 108.571 37.274C109.1 37.274 109.524 37.1549 109.841 36.9167C110.172 36.6653 110.41 36.3014 110.556 35.8251C110.715 35.3355 110.794 34.7334 110.794 34.0189C110.794 33.3044 110.715 32.7089 110.556 32.2326C110.41 31.7562 110.172 31.399 109.841 31.1608C109.51 30.9226 109.08 30.8035 108.551 30.8035C107.77 30.8035 107.201 31.0748 106.844 31.6173C106.5 32.1466 106.328 32.9471 106.328 34.0189ZM122.11 28.4218C122.256 28.4218 122.428 28.4284 122.626 28.4416C122.825 28.4549 122.983 28.4747 123.102 28.5012L122.884 31.2799C122.791 31.2534 122.653 31.2336 122.467 31.2203C122.295 31.1939 122.143 31.1806 122.011 31.1806C121.627 31.1806 121.257 31.2336 120.899 31.3394C120.542 31.4321 120.218 31.5842 119.927 31.7959C119.649 32.0076 119.424 32.2921 119.252 32.6494C119.093 32.9934 119.014 33.4235 119.014 33.9395V39.4572H116.056V28.6203H118.299L118.736 30.4463H118.875C119.087 30.0758 119.351 29.7384 119.669 29.434C119.986 29.1297 120.35 28.8849 120.76 28.6997C121.184 28.5144 121.634 28.4218 122.11 28.4218ZM127.828 31.1211C127.828 31.5313 127.808 31.9415 127.769 32.3517C127.742 32.7486 127.709 33.1522 127.669 33.5624H127.709C127.841 33.3772 127.974 33.1919 128.106 33.0067C128.252 32.8214 128.397 32.6362 128.543 32.4509C128.688 32.2657 128.841 32.087 128.999 31.915L132.036 28.6203H135.37L131.063 33.3242L135.629 39.4572H132.215L129.099 35.0708L127.828 36.0831V39.4572H124.871V24.3728H127.828V31.1211Z" fill="white"/>
<path d="M91.9388 19.4572L87.8104 8.62026H90.9067L92.9908 14.793C93.0702 15.0312 93.1363 15.2826 93.1892 15.5472C93.2554 15.8118 93.3017 16.0699 93.3282 16.3213C93.3679 16.5727 93.3943 16.8042 93.4076 17.0159H93.487C93.5002 16.791 93.5267 16.5528 93.5664 16.3014C93.6061 16.05 93.6524 15.7986 93.7053 15.5472C93.7715 15.2826 93.8442 15.0312 93.9236 14.793L96.0077 8.62026H99.1039L94.9756 19.4572H91.9388ZM103.418 8.62026V19.4572H100.46V8.62026H103.418ZM101.949 4.3728C102.386 4.3728 102.763 4.47865 103.08 4.69037C103.398 4.88885 103.557 5.26596 103.557 5.8217C103.557 6.36421 103.398 6.74132 103.08 6.95303C102.763 7.16474 102.386 7.2706 101.949 7.2706C101.499 7.2706 101.115 7.16474 100.798 6.95303C100.493 6.74132 100.341 6.36421 100.341 5.8217C100.341 5.26596 100.493 4.88885 100.798 4.69037C101.115 4.47865 101.499 4.3728 101.949 4.3728ZM109.267 7.88589C109.267 8.29608 109.253 8.69965 109.227 9.09661C109.2 9.49357 109.174 9.80452 109.147 10.0295H109.267C109.558 9.57958 109.948 9.20247 110.438 8.89813C110.927 8.58057 111.562 8.42178 112.343 8.42178C113.56 8.42178 114.546 8.89813 115.3 9.85083C116.055 10.7903 116.432 12.1797 116.432 14.0189C116.432 15.2495 116.253 16.2882 115.896 17.135C115.552 17.9686 115.069 18.5972 114.447 19.0206C113.825 19.444 113.097 19.6557 112.264 19.6557C111.47 19.6557 110.841 19.5168 110.378 19.2389C109.928 18.9478 109.558 18.6236 109.267 18.2664H109.068L108.572 19.4572H106.309V4.3728H109.267V7.88589ZM111.39 10.7837C110.874 10.7837 110.464 10.8895 110.16 11.1013C109.855 11.313 109.63 11.6372 109.485 12.0738C109.353 12.4972 109.28 13.0331 109.267 13.6815V13.9991C109.267 15.0444 109.419 15.8515 109.723 16.4205C110.041 16.9763 110.61 17.2541 111.43 17.2541C112.039 17.2541 112.522 16.9763 112.879 16.4205C113.236 15.8515 113.415 15.0378 113.415 13.9792C113.415 12.9207 113.23 12.1267 112.859 11.5975C112.502 11.0549 112.012 10.7837 111.39 10.7837ZM123.137 8.42178C124.142 8.42178 125.002 8.61365 125.717 8.99737C126.445 9.3811 127.007 9.93684 127.404 10.6646C127.801 11.3924 127.999 12.2855 127.999 13.3441V14.7731H121.013C121.039 15.6067 121.284 16.2617 121.747 16.7381C122.224 17.2144 122.879 17.4526 123.712 17.4526C124.413 17.4526 125.049 17.3864 125.618 17.2541C126.187 17.1086 126.775 16.8902 127.384 16.5991V18.8817C126.855 19.1463 126.292 19.3382 125.697 19.4572C125.115 19.5896 124.407 19.6557 123.573 19.6557C122.488 19.6557 121.529 19.4572 120.695 19.0603C119.862 18.6501 119.207 18.0348 118.73 17.2144C118.254 16.394 118.016 15.362 118.016 14.1181C118.016 12.8479 118.227 11.7959 118.651 10.9623C119.088 10.1155 119.69 9.48034 120.457 9.05692C121.225 8.63349 122.118 8.42178 123.137 8.42178ZM123.156 10.5257C122.587 10.5257 122.111 10.7109 121.727 11.0814C121.357 11.4519 121.139 12.0275 121.072 12.8082H125.221C125.221 12.3715 125.141 11.9812 124.982 11.6372C124.837 11.2931 124.612 11.0219 124.308 10.8234C124.003 10.6249 123.62 10.5257 123.156 10.5257ZM137.761 16.2419C137.761 16.9696 137.589 17.5915 137.245 18.1076C136.901 18.6104 136.385 18.9941 135.697 19.2588C135.009 19.5234 134.155 19.6557 133.136 19.6557C132.382 19.6557 131.734 19.6028 131.191 19.4969C130.649 19.4043 130.106 19.2455 129.564 19.0206V16.5793C130.146 16.8439 130.774 17.0623 131.449 17.2343C132.124 17.4063 132.72 17.4923 133.236 17.4923C133.818 17.4923 134.228 17.4063 134.466 17.2343C134.718 17.0623 134.843 16.8373 134.843 16.5594C134.843 16.3742 134.79 16.2088 134.684 16.0632C134.592 15.9177 134.38 15.7523 134.049 15.567C133.719 15.3818 133.203 15.1436 132.501 14.8525C131.826 14.5614 131.271 14.2769 130.834 13.9991C130.397 13.708 130.073 13.3639 129.861 12.967C129.65 12.5568 129.544 12.0473 129.544 11.4387C129.544 10.433 129.934 9.67882 130.715 9.176C131.496 8.67319 132.534 8.42178 133.831 8.42178C134.506 8.42178 135.148 8.48794 135.756 8.62026C136.365 8.75258 136.993 8.97091 137.642 9.27524L136.749 11.399C136.391 11.2402 136.047 11.1013 135.717 10.9822C135.386 10.8631 135.062 10.7705 134.744 10.7043C134.44 10.6381 134.122 10.6051 133.791 10.6051C133.355 10.6051 133.024 10.6646 132.799 10.7837C132.587 10.9028 132.481 11.0814 132.481 11.3196C132.481 11.4916 132.534 11.6504 132.64 11.7959C132.759 11.9283 132.978 12.0738 133.295 12.2326C133.626 12.3914 134.109 12.6031 134.744 12.8677C135.366 13.1191 135.902 13.3838 136.352 13.6616C136.802 13.9263 137.146 14.2637 137.384 14.6739C137.635 15.0708 137.761 15.5935 137.761 16.2419Z" fill="#FF3700"/>
<circle cx="22.1312" cy="22.9862" r="22.0448" fill="white"/>
<path d="M33.6077 14.8953C33.1789 14.1711 32.4101 13.7386 31.5491 13.7386H28.367C27.575 13.7386 26.8379 14.1197 26.3964 14.7577L24.7254 17.1728C24.8715 17.2273 24.9912 17.3125 25.0833 17.4194C25.096 17.4307 25.1098 17.441 25.1214 17.4533L26.803 15.0227C27.1535 14.5163 27.738 14.2143 28.367 14.2143H31.5491C32.2322 14.2143 32.8432 14.5574 33.1831 15.1316C33.523 15.7059 33.5209 16.3911 33.1757 16.9633L24.432 31.486L16.6901 18.761C16.8596 18.5925 16.9633 18.3635 16.9633 18.1097C16.9633 17.594 16.5324 17.1759 16.0008 17.1759C15.4692 17.1759 15.0382 17.594 15.0382 18.1097C15.0382 18.6254 15.4692 19.0435 16.0008 19.0435C16.094 19.0435 16.184 19.0302 16.2698 19.0055L24.4342 32.425L33.5982 17.2026C34.0324 16.4815 34.0355 15.6186 33.6067 14.8943L33.6077 14.8953Z" fill="#FF1E00"/>
<path d="M12.4572 17.1136C12.1564 16.6112 12.3555 16.1664 12.455 15.999C12.5546 15.8315 12.8511 15.4412 13.4504 15.4412H16.7554C17.1663 15.4412 17.5485 15.6569 17.7529 16.0031L24.3829 27.2714L29.4309 18.6514C29.8025 18.0176 29.3303 17.2307 28.5784 17.2307C28.2258 17.2307 27.8996 17.4146 27.726 17.7125L24.3797 23.4273L19.4567 15.06C18.905 14.1221 17.8704 13.5386 16.7564 13.5386H13.4833C12.3724 13.5386 11.3326 14.0985 10.7703 15.0282C10.1953 15.9784 10.1932 17.1177 10.7618 18.069L21.1224 35.3931C21.5047 36.0331 22.4609 36.0228 22.8294 35.3746C22.9957 35.0819 22.9915 34.7274 22.8189 34.4377L12.4582 17.1136H12.4572Z" fill="#FF1E00"/>
<path fill-rule="evenodd" clip-rule="evenodd" d="M24.6058 17.7277V17.7308L24.6079 17.7328C24.6016 17.7451 24.6005 17.7441 24.591 17.7564L24.4215 17.9825C24.2606 18.2013 24.0869 18.4221 23.926 18.6409L23.8021 18.8043C23.782 18.832 23.7597 18.8587 23.7406 18.8865L23.6168 19.0498L23.6083 19.0611L23.6168 19.058C23.6877 19.0221 23.7608 18.9871 23.8338 18.9502C23.8709 18.9317 23.9048 18.9152 23.9418 18.8957C23.9609 18.8854 24.0361 18.8464 24.052 18.8423L24.5359 18.5988C24.5539 18.5896 24.5931 18.5731 24.6069 18.5629V17.7441C24.6227 17.74 24.6164 17.7441 24.6418 17.776L24.7329 17.8962C24.7752 17.9486 24.8133 18.0051 24.8546 18.0585L25.5874 19.0313C25.5874 19.0313 25.5895 19.0364 25.5906 19.0221L25.4106 17.9938L25.4074 17.9794C25.3746 17.9712 25.3396 17.9588 25.3079 17.9486L24.6757 17.7523C24.6609 17.7482 24.6376 17.7431 24.6291 17.7338H24.6111C24.6259 17.7184 24.6333 17.7061 24.6439 17.6907C24.7466 17.5489 24.8758 17.3866 24.9828 17.2438C25.004 17.2161 25.0241 17.1894 25.0442 17.1627C25.0548 17.1483 25.0643 17.137 25.0749 17.1226C25.0802 17.1154 25.0855 17.1093 25.0897 17.1021C25.1046 17.0836 25.1014 17.0918 25.1024 17.0774C25.0717 17.024 25.0103 16.8976 24.9785 16.835L24.6217 16.1344C24.6058 16.1035 24.61 16.1056 24.6058 16.1107C24.609 16.1744 24.6058 16.2474 24.6058 16.3121V16.5145C24.6058 16.5946 24.61 17.7041 24.6037 17.7256L24.6058 17.7277Z" fill="#E21500"/>
<path fill-rule="evenodd" clip-rule="evenodd" d="M24.6074 18.563C24.6222 18.5661 24.7112 18.6133 24.7313 18.6246C24.7726 18.6462 24.8139 18.6657 24.8541 18.6873C24.8943 18.7089 24.9356 18.7284 24.9769 18.7499L25.5994 19.0663L25.5909 19.0221C25.5909 19.0365 25.592 19.0262 25.5877 19.0313L24.8551 18.0588C24.8128 18.0054 24.7747 17.9499 24.7334 17.8965L24.6424 17.7763C24.6169 17.7435 24.6233 17.7404 24.6085 17.7445V18.563H24.6074Z" fill="#FF1E00"/>
<path fill-rule="evenodd" clip-rule="evenodd" d="M25.1043 17.0789C25.1032 17.0932 25.1053 17.084 25.0915 17.1035C25.0863 17.1097 25.082 17.1169 25.0767 17.1241C25.0661 17.1384 25.0577 17.1497 25.046 17.1641C25.0259 17.1908 25.0047 17.2175 24.9846 17.2452C24.8777 17.387 24.7496 17.5503 24.6459 17.692C24.6353 17.7074 24.6268 17.7197 24.613 17.7341H24.631C24.6543 17.7341 24.793 17.6858 24.8269 17.6745L26.1057 17.2678C26.1364 17.2586 26.1756 17.2432 26.2063 17.237C26.1915 17.2288 25.3922 17.1158 25.2419 17.0953C25.2196 17.0922 25.1159 17.0706 25.1043 17.0799V17.0789Z" fill="#E21500"/>
<path fill-rule="evenodd" clip-rule="evenodd" d="M23.7994 17.9973L23.6173 19.0479L23.7412 18.8846C23.7613 18.8579 23.7825 18.8302 23.8026 18.8025L23.9264 18.6392C24.0863 18.4204 24.261 18.1996 24.4219 17.9809L24.5913 17.7549C24.6008 17.7426 24.6019 17.7436 24.6082 17.7313C24.5405 17.7488 24.4674 17.7744 24.4018 17.795C24.333 17.8165 24.2652 17.8381 24.1964 17.8586L23.8132 17.9778C23.7962 17.985 23.8079 17.9819 23.8015 17.9963L23.7994 17.9973Z" fill="#FF1E00"/>
<path fill-rule="evenodd" clip-rule="evenodd" d="M23.0035 17.2379L23.1538 17.3786C23.1708 17.394 23.1856 17.4105 23.2025 17.4269C23.2703 17.4896 23.337 17.5532 23.4047 17.6159C23.4132 17.6241 23.4185 17.6323 23.428 17.6395C23.4375 17.6487 23.445 17.6549 23.4545 17.6631L23.7033 17.8983C23.7139 17.9086 23.7996 17.9815 23.7996 17.9969C23.806 17.9825 23.7943 17.9856 23.8112 17.9784L24.1945 17.8593C24.2633 17.8387 24.331 17.8172 24.3999 17.7956C24.4665 17.7751 24.5396 17.7494 24.6063 17.7319V17.7299C24.5407 17.7134 24.4687 17.6888 24.4041 17.6682C24.3385 17.6467 24.2707 17.6272 24.2051 17.6066C23.9393 17.5255 23.6768 17.4403 23.4111 17.3601L23.0247 17.24C23.0183 17.2369 23.0194 17.239 23.0162 17.2338L23.0024 17.2379H23.0035Z" fill="#E21500"/>
<path fill-rule="evenodd" clip-rule="evenodd" d="M24.1151 17.0766C24.1235 17.091 24.1352 17.1054 24.1458 17.1187L24.3596 17.4022C24.4009 17.4576 24.4422 17.51 24.4824 17.5655C24.5174 17.6138 24.5735 17.6815 24.6042 17.7267C24.6116 17.7052 24.6063 16.595 24.6063 16.5159V16.3136C24.6063 16.2489 24.6095 16.1759 24.6063 16.1123C24.5957 16.1215 24.384 16.5436 24.3596 16.5929C24.3183 16.674 24.277 16.7552 24.2368 16.8353C24.2114 16.8846 24.1299 17.0376 24.114 17.0766H24.1151Z" fill="#FF1E00"/>
<path fill-rule="evenodd" clip-rule="evenodd" d="M23.0181 17.2344C23.0212 17.2395 23.0191 17.2375 23.0265 17.2405L23.4129 17.3607C23.6787 17.4408 23.9423 17.5271 24.2069 17.6072C24.2726 17.6267 24.3393 17.6472 24.406 17.6688C24.4705 17.6893 24.5415 17.714 24.606 17.7304V17.7273C24.5753 17.6832 24.5192 17.6144 24.4843 17.5661C24.443 17.5106 24.4028 17.4572 24.3615 17.4028L24.1476 17.1193C24.137 17.106 24.1244 17.0916 24.1169 17.0772L23.0191 17.2344H23.0181Z" fill="#FF1E00"/>
<path fill-rule="evenodd" clip-rule="evenodd" d="M24.6298 17.7342C24.6382 17.7424 24.6615 17.7475 24.6763 17.7527L25.3084 17.9488C25.3412 17.9591 25.3761 17.9714 25.4079 17.9796L25.411 17.994C25.4227 17.9879 25.5952 17.8215 25.6111 17.8061L25.7614 17.6654C25.7699 17.6572 25.7773 17.651 25.7858 17.6428C25.7953 17.6346 25.8006 17.6263 25.8102 17.6171C25.8779 17.5555 25.9435 17.4918 26.0102 17.4302L26.1341 17.3131C26.1563 17.2915 26.1839 17.2577 26.2093 17.2422C26.2061 17.2371 26.2093 17.2402 26.205 17.2361C26.1743 17.2422 26.1352 17.2577 26.1045 17.2669L24.8256 17.6736C24.7917 17.6849 24.6531 17.7332 24.6298 17.7342Z" fill="#FF1E00"/>
<path fill-rule="evenodd" clip-rule="evenodd" d="M23.6174 19.0575C23.6174 19.0739 23.6163 19.0616 23.6216 19.0667C23.6491 19.0441 24.0396 18.8584 24.0523 18.843C24.0353 18.8471 23.9613 18.8861 23.9422 18.8963C23.9052 18.9148 23.8703 18.9312 23.8343 18.9507C23.7613 18.9877 23.6893 19.0226 23.6174 19.0585V19.0575Z" fill="#FF1E00"/>
</svg>
