<svg width="43" height="51" viewBox="0 0 43 51" fill="none" xmlns="http://www.w3.org/2000/svg">
<path id="chess" d="M3.29255 47.4432H39.7408V43.4173C39.7408 42.8727 39.5722 42.4255 39.2348 42.0756C38.897 41.7257 38.4658 41.5507 37.9413 41.5507H5.09208C4.56755 41.5507 4.13637 41.7257 3.79855 42.0756C3.46122 42.4255 3.29255 42.8727 3.29255 43.4173V47.4432ZM11.1444 38.5169H31.889L29.8694 23.9893H13.164L11.1444 38.5169ZM0.367676 50.4771V43.4173C0.367676 42.0698 0.830293 40.9161 1.75553 39.9564C2.68076 38.9967 3.79294 38.5169 5.09208 38.5169H8.21949L10.2223 23.9893H3.29255V20.9555H39.7408V23.9893H32.8111L34.8139 38.5169H37.9274C39.2451 38.5169 40.3643 38.9967 41.2852 39.9564C42.2055 40.9161 42.6657 42.0698 42.6657 43.4173V50.4771H0.367676ZM10.1155 20.9555L5.76699 0.535454C7.15094 1.44965 8.44398 2.16134 9.6461 2.67052C10.8487 3.1802 12.1712 3.43505 13.6137 3.43505C15.2263 3.43505 16.6897 3.15998 18.0039 2.60984C19.3182 2.0592 20.4891 1.34827 21.5167 0.477051C22.5443 1.34827 23.716 2.0592 25.0317 2.60984C26.3479 3.15998 27.7918 3.43505 29.3634 3.43505C30.6981 3.43505 31.9468 3.19006 33.1094 2.7001C34.2721 2.20963 35.6762 1.48808 37.322 0.535454L32.9178 20.9555H29.903L33.2052 5.79234C32.6427 5.98651 32.0284 6.14781 31.3625 6.27624C30.6971 6.40468 29.9557 6.46889 29.1382 6.46889C27.782 6.46889 26.4539 6.28812 25.1538 5.92659C23.8542 5.56455 22.6418 5.03363 21.5167 4.33382C20.4028 5.03363 19.1958 5.56455 17.8957 5.92659C16.5951 6.28812 15.2653 6.46889 13.9062 6.46889C13.1038 6.46889 12.3735 6.42414 11.7154 6.33464C11.0574 6.24514 10.447 6.10331 9.88448 5.90915L13.1304 20.9555H10.1155Z" fill="#D4B2FF"/>
</svg>
