<svg width="76" height="77" viewBox="0 0 76 77" fill="none" xmlns="http://www.w3.org/2000/svg">
<g id="person_celebrate">
<mask id="mask0_256_552" style="mask-type:alpha" maskUnits="userSpaceOnUse" x="0" y="0" width="76" height="77">
<rect id="Bounding box" x="0.242188" y="0.56543" width="75.4475" height="75.4475" fill="#D9D9D9"/>
</mask>
<g mask="url(#mask0_256_552)">
<path id="person_celebrate_2" d="M31.0744 63.4381V49.0496C27.9365 48.8139 24.8618 48.484 21.8502 48.0602C18.8386 47.6358 15.8275 47.0387 12.8169 46.2691L13.5423 43.1254C17.5284 44.1288 21.5534 44.8432 25.617 45.2686C29.6813 45.6935 33.7931 45.906 37.9527 45.906C42.0646 45.906 46.1558 45.6935 50.2263 45.2686C54.2968 44.8432 58.3513 44.1288 62.3899 43.1254L63.1153 46.2691C60.0926 47.0387 57.063 47.6392 54.0262 48.0704C50.9889 48.5016 47.9328 48.8369 44.8577 49.0764V63.4381H31.0744ZM37.9747 40.8282C36.4694 40.8282 35.2052 40.32 34.1819 39.3035C33.1581 38.2871 32.6462 37.0275 32.6462 35.5249C32.6462 34.0667 33.1545 32.8127 34.1709 31.7627C35.1874 30.7127 36.4466 30.1877 37.9488 30.1877C39.4074 30.1877 40.6615 30.708 41.711 31.7486C42.7609 32.7886 43.2859 34.039 43.2859 35.4997C43.2859 37.0045 42.7659 38.2688 41.7259 39.2925C40.6859 40.3163 39.4355 40.8282 37.9747 40.8282ZM15.9605 32.0016C15.0819 32.0016 14.3384 31.6972 13.7301 31.0884C13.1213 30.4801 12.8169 29.7311 12.8169 28.8415C12.8169 27.9859 13.1213 27.2508 13.7301 26.6362C14.3384 26.0216 15.0874 25.7143 15.977 25.7143C16.8326 25.7143 17.5677 26.0201 18.1823 26.6315C18.7969 27.2424 19.1042 27.9846 19.1042 28.858C19.1042 29.7366 18.7985 30.4801 18.187 31.0884C17.5761 31.6972 16.834 32.0016 15.9605 32.0016ZM59.9716 32.0016C59.093 32.0016 58.3495 31.6972 57.7412 31.0884C57.1324 30.4801 56.828 29.7311 56.828 28.8415C56.828 27.9859 57.1324 27.2508 57.7412 26.6362C58.3495 26.0216 59.0985 25.7143 59.9881 25.7143C60.8437 25.7143 61.5788 26.0201 62.1934 26.6315C62.808 27.2424 63.1153 27.9846 63.1153 28.858C63.1153 29.7366 62.8095 30.4801 62.1981 31.0884C61.5872 31.6972 60.845 32.0016 59.9716 32.0016ZM23.6381 20.5155C22.7595 20.5155 22.016 20.2111 21.4077 19.6023C20.7989 18.994 20.4945 18.2448 20.4945 17.3546C20.4945 16.4995 20.7989 15.7647 21.4077 15.1501C22.016 14.5355 22.765 14.2282 23.6546 14.2282C24.5102 14.2282 25.2453 14.5337 25.8599 15.1446C26.4745 15.756 26.7818 16.4985 26.7818 17.3719C26.7818 18.2505 26.4763 18.994 25.8654 19.6023C25.254 20.2111 24.5115 20.5155 23.6381 20.5155ZM52.294 20.5155C51.4154 20.5155 50.6717 20.2111 50.0628 19.6023C49.4545 18.994 49.1504 18.2448 49.1504 17.3546C49.1504 16.4995 49.4545 15.7647 50.0628 15.1501C50.6717 14.5355 51.4209 14.2282 52.3105 14.2282C53.1661 14.2282 53.9012 14.5337 54.5158 15.1446C55.1304 15.756 55.4377 16.4985 55.4377 17.3719C55.4377 18.2505 55.132 18.994 54.5205 19.6023C53.9091 20.2111 53.1669 20.5155 52.294 20.5155ZM37.9661 16.2834C37.0874 16.2834 36.344 15.979 35.7357 15.3702C35.1268 14.7619 34.8224 14.0129 34.8224 13.1232C34.8224 12.2676 35.1268 11.5326 35.7357 10.918C36.344 10.3034 37.0929 9.99609 37.9826 9.99609C38.8382 9.99609 39.5733 10.3018 40.1879 10.9133C40.8024 11.5242 41.1097 12.2663 41.1097 13.1397C41.1097 14.0184 40.804 14.7619 40.1926 15.3702C39.5817 15.979 38.8395 16.2834 37.9661 16.2834Z" fill="#6303CA"/>
</g>
</g>
</svg>
