<svg width="76" height="76" viewBox="0 0 76 76" fill="none" xmlns="http://www.w3.org/2000/svg">
<g id="play_circle">
<mask id="mask0_256_561" style="mask-type:alpha" maskUnits="userSpaceOnUse" x="0" y="0" width="76" height="76">
<rect id="Bounding box" x="0.530518" y="0.314453" width="75.4475" height="75.4475" fill="#D9D9D9"/>
</mask>
<g mask="url(#mask0_256_561)">
<path id="play_circle_2" d="M31.9672 49.2828L49.4993 38.0379L31.9672 26.7931V49.2828ZM38.2647 66.3308C34.3524 66.3308 30.6741 65.5884 27.2297 64.1035C23.7859 62.6187 20.79 60.6036 18.242 58.0583C15.6941 55.513 13.6772 52.5197 12.1913 49.0784C10.7049 45.6377 9.96167 41.961 9.96167 38.0482C9.96167 34.1359 10.7041 30.4576 12.1889 27.0132C13.6738 23.5693 15.6889 20.5734 18.2342 18.0255C20.7795 15.4776 23.7728 13.4606 27.214 11.9747C30.6547 10.4883 34.3315 9.74512 38.2443 9.74512C42.1566 9.74512 45.8349 10.4875 49.2793 11.9724C52.7231 13.4572 55.719 15.4723 58.267 18.0176C60.8149 20.5629 62.8318 23.5562 64.3177 26.9975C65.8041 30.4382 66.5473 34.1149 66.5473 38.0277C66.5473 41.94 65.8049 45.6183 64.3201 49.0627C62.8352 52.5066 60.8201 55.5025 58.2748 58.0504C55.7295 60.5983 52.7362 62.6152 49.295 64.1011C45.8543 65.5876 42.1775 66.3308 38.2647 66.3308ZM38.2545 63.1871C45.2753 63.1871 51.222 60.7508 56.0947 55.8781C60.9674 51.0055 63.4037 45.0588 63.4037 38.0379C63.4037 31.0171 60.9674 25.0704 56.0947 20.1977C51.222 15.3251 45.2753 12.8888 38.2545 12.8888C31.2337 12.8888 25.287 15.3251 20.4143 20.1977C15.5416 25.0704 13.1053 31.0171 13.1053 38.0379C13.1053 45.0588 15.5416 51.0055 20.4143 55.8781C25.287 60.7508 31.2337 63.1871 38.2545 63.1871Z" fill="#6303CA"/>
</g>
</g>
</svg>
