<svg width="51" height="51" viewBox="0 0 51 51" fill="none" xmlns="http://www.w3.org/2000/svg">
<path id="point_scan" d="M25.3677 29.8584C24.0494 29.8584 22.9388 29.4066 22.0356 28.5029C21.132 27.5998 20.6802 26.4891 20.6802 25.1709C20.6802 23.8527 21.132 22.742 22.0356 21.8389C22.9388 20.9352 24.0494 20.4834 25.3677 20.4834C26.6859 20.4834 27.7966 20.9352 28.6997 21.8389C29.6034 22.742 30.0552 23.8527 30.0552 25.1709C30.0552 26.4891 29.6034 27.5998 28.6997 28.5029C27.7966 29.4066 26.6859 29.8584 25.3677 29.8584ZM23.8052 12.6709V0.170898H26.9302V12.6709H23.8052ZM23.8052 50.1709V37.6709H26.9302V50.1709H23.8052ZM37.8677 26.7334V23.6084H50.3677V26.7334H37.8677ZM0.367676 26.7334V23.6084H12.8677V26.7334H0.367676Z" fill="#D4B2FF"/>
</svg>
