<svg width="28" height="45" viewBox="0 0 28 45" fill="none" xmlns="http://www.w3.org/2000/svg">
<path id="More than 2000 such influencers make teh Vibes Network." d="M10.3483 32.1819V31.9255C10.3788 29.2046 10.6837 27.0393 11.2629 25.4296C11.8422 23.8199 12.6654 22.5164 13.7324 21.5193C14.7995 20.5221 16.0799 19.6033 17.5738 18.7628C18.4732 18.25 19.2811 17.6445 19.9976 16.9465C20.714 16.2342 21.278 15.4151 21.6896 14.4892C22.1164 13.5632 22.3298 12.5376 22.3298 11.4122C22.3298 10.0162 21.9792 8.8053 21.278 7.77963C20.5768 6.75397 19.6393 5.96335 18.4656 5.40778C17.2918 4.85221 15.9885 4.57443 14.5556 4.57443C13.3056 4.57443 12.1013 4.8166 10.9428 5.30094C9.7843 5.78529 8.81633 6.54741 8.0389 7.58732C7.26148 8.62723 6.81179 9.98766 6.68984 11.6686H0.927734C1.04968 9.24691 1.7204 7.17421 2.9399 5.45052C4.17464 3.72683 5.79809 2.40914 7.81025 1.49743C9.83766 0.585733 12.0861 0.129883 14.5556 0.129883C17.2385 0.129883 19.5707 0.62847 21.5524 1.62564C23.5493 2.62282 25.0889 3.99037 26.1712 5.7283C27.2688 7.46624 27.8176 9.44634 27.8176 11.6686C27.8176 13.2356 27.5584 14.653 27.0401 15.9209C26.5371 17.1887 25.8054 18.3212 24.845 19.3184C23.8999 20.3155 22.7567 21.1988 21.4152 21.968C20.0738 22.7515 18.9991 23.5777 18.1912 24.4467C17.3833 25.3014 16.7964 26.32 16.4305 27.5023C16.0647 28.6847 15.8665 30.1591 15.836 31.9255V32.1819H10.3483ZM13.2751 44.8318C12.1471 44.8318 11.1791 44.4543 10.3712 43.6993C9.56327 42.9443 9.15931 42.0397 9.15931 40.9855C9.15931 39.9314 9.56327 39.0268 10.3712 38.2718C11.1791 37.5168 12.1471 37.1393 13.2751 37.1393C14.4031 37.1393 15.3711 37.5168 16.179 38.2718C16.9869 39.0268 17.3909 39.9314 17.3909 40.9855C17.3909 41.6836 17.2003 42.3246 16.8193 42.9087C16.4534 43.4927 15.958 43.9628 15.333 44.319C14.7233 44.6608 14.0373 44.8318 13.2751 44.8318Z" fill="#D4B2FF"/>
</svg>
