<svg width="51" height="44" viewBox="0 0 51 44" fill="none" xmlns="http://www.w3.org/2000/svg">
<path id="shop_two" d="M25.4204 28.8538L35.6129 22.4113L25.4204 15.9694V28.8538ZM4.45916 43.6613C3.30833 43.6613 2.34749 43.2759 1.57666 42.505C0.805827 41.7342 0.42041 40.7736 0.42041 39.6232V16.7382H2.92041V39.6232C2.92041 40.0077 3.08062 40.3602 3.40104 40.6807C3.72145 41.0011 4.07416 41.1613 4.45916 41.1613H41.6704V43.6613H4.45916ZM11.9592 36.1613C10.8083 36.1613 9.84749 35.7759 9.07666 35.005C8.30583 34.2342 7.92041 33.2736 7.92041 32.1232V8.66129H21.1898V4.71879C21.1898 3.56837 21.5752 2.60775 22.346 1.83691C23.1169 1.06608 24.0775 0.680664 25.2279 0.680664H33.1129C34.2633 0.680664 35.224 1.06608 35.9948 1.83691C36.7656 2.60775 37.151 3.56837 37.151 4.71879V8.66129H50.4204V32.1232C50.4204 33.2736 50.035 34.2342 49.2642 35.005C48.4933 35.7759 47.5325 36.1613 46.3817 36.1613H11.9592ZM11.9592 33.6613H46.3817C46.7667 33.6613 47.1194 33.5011 47.4398 33.1807C47.7602 32.8602 47.9204 32.5077 47.9204 32.1232V11.1613H10.4204V32.1232C10.4204 32.5077 10.5806 32.8602 10.901 33.1807C11.2215 33.5011 11.5742 33.6613 11.9592 33.6613ZM23.6898 8.66129H34.651V4.71879C34.651 4.3342 34.4908 3.98171 34.1704 3.66129C33.85 3.34087 33.4975 3.18066 33.1129 3.18066H25.2279C24.8433 3.18066 24.4908 3.34087 24.1704 3.66129C23.85 3.98171 23.6898 4.3342 23.6898 4.71879V8.66129Z" fill="#D4B2FF"/>
</svg>
