<svg width="230" height="31" viewBox="0 0 230 31" fill="none" xmlns="http://www.w3.org/2000/svg">
<path fill-rule="evenodd" clip-rule="evenodd" d="M201.851 19.7694C198.117 19.7694 197.625 15.0617 199.197 13.3754C200.241 12.2554 200.885 12.2135 202.233 12.2135C204.007 12.2135 205.515 13.9915 205.515 15.9534C205.515 18.0994 204.016 19.7694 201.851 19.7694H201.851ZM193.456 15.9534C193.456 18.2134 194.235 20.1353 195.304 21.3552C196.503 22.7231 198.208 23.7381 200.172 23.7381C201.88 23.7381 203.17 23.614 204.535 22.5299C204.846 22.2837 205.04 21.9691 205.362 21.7538C205.362 23.5112 205.286 24.3713 204.512 25.4071C203.131 27.2558 200.121 27.0132 198.296 25.9959C197.987 25.8236 197.696 25.6436 197.412 25.5065C195.933 24.7949 194.478 25.4667 194.215 26.9409C193.706 29.799 198.676 30.836 200.706 30.836C203.877 30.836 206.196 30.5125 208.397 28.1467C210.093 26.3243 210.323 23.3753 210.323 20.9142V11.6794C210.323 10.7556 210.255 9.87665 209.919 9.25991C209.744 8.93931 209.556 8.73476 209.268 8.5363C208.232 7.82086 206.293 8.10827 205.752 9.47421C205.65 9.73123 205.609 10.1083 205.515 10.3056C204.934 9.917 204.221 8.09229 200.325 8.09229C196.151 8.09229 193.456 11.9528 193.456 15.9534L193.456 15.9534Z" fill="black"/>
<path fill-rule="evenodd" clip-rule="evenodd" d="M100.268 8.24595L103.091 15.1912H97.291L99.4721 9.96918C99.6195 9.61827 99.9698 8.46405 100.267 8.24602L100.268 8.24595ZM89.4299 21.2206C89.4299 22.0531 89.4958 22.5548 90.0953 23.1501C91.3135 24.3596 93.5439 24.2154 94.4669 22.1361L95.3326 20.0253C95.4426 19.7755 95.5007 19.3888 95.7647 19.3888H104.618C104.881 19.3888 104.928 19.734 105.022 19.9771C105.619 21.5197 106.343 23.8918 108.129 23.8918H108.663C109.91 23.8918 111.029 22.7922 111.029 21.5258C111.029 20.3173 110.64 19.5173 110.062 18.3716L104.28 5.60688C103.612 3.98894 102.641 1.83496 100.649 1.83496C99.3296 1.83496 98.4327 2.05263 97.6275 3.08723C97.0359 3.84717 96.1577 5.80133 95.7426 6.77379C95.6301 7.03769 95.5719 7.17766 95.4586 7.40558L90.1682 19.0585C89.8783 19.6803 89.4301 20.5181 89.4301 21.2207L89.4299 21.2206Z" fill="black"/>
<path fill-rule="evenodd" clip-rule="evenodd" d="M130.11 16.1829C130.11 14.8793 130.555 13.8942 131.338 13.137C132.436 12.0754 134.281 11.9303 135.452 12.5965C137.029 13.494 137.684 15.652 136.99 17.5678C136.039 20.1928 132.919 20.5893 131.195 18.8372C130.659 18.2923 130.11 17.2432 130.11 16.1829H130.11ZM125.302 2.97915V21.449C125.302 24.7611 129.881 24.6148 129.881 21.678C130.136 21.8487 130.096 21.8844 130.285 22.1132C130.72 22.6382 131.19 22.9423 131.773 23.2967C133.841 24.554 137.533 24.1906 139.25 22.5749L139.746 22.156C140.388 21.5687 141.128 20.3058 141.494 19.401C142.661 16.5186 142.125 12.8359 140.196 10.4467C139.298 9.33373 137.367 8.09279 135.376 8.09279C133.7 8.09279 132.504 8.27147 131.133 9.34527L130.339 10.0771C130.339 8.89223 130.401 3.54336 130.277 2.65971C129.887 -0.103996 127.064 -0.0632861 125.929 1.16425C125.566 1.55709 125.302 2.24078 125.302 2.97915H125.302Z" fill="black"/>
<path fill-rule="evenodd" clip-rule="evenodd" d="M27.7618 7.7121C27.7618 8.90374 27.6958 9.56678 28.1527 10.6795C28.5874 11.7385 29.3321 12.5652 30.2942 13.1936C33.0538 14.9956 37.6837 14.9757 37.6837 17.5576C37.6837 19.4277 35.8517 20.0613 34.0877 19.7036C31.4961 19.1779 31.3955 17.9392 29.5936 17.9392C28.6395 17.9392 27.9157 18.5715 27.5558 19.3358C26.6877 21.179 28.3405 22.5545 29.8107 23.1409C31.8584 23.9577 32.9142 24.1213 35.2415 24.1213C39.2012 24.1213 42.9499 21.4884 42.9499 17.3287C42.9499 15.4799 42.7614 14.7116 41.664 13.3484C41.0988 12.6463 39.8711 11.8669 38.949 11.4841C37.8251 11.0174 36.7718 10.6768 35.5755 10.2783C33.7473 9.66927 33.0281 9.37226 33.0281 7.78858C33.0281 6.72624 33.9634 6.19149 34.9029 5.99998C37.637 5.44273 38.8634 7.70881 40.7051 7.2233C42.1849 6.83325 43.0035 4.84706 41.7176 3.44937C40.3437 1.95599 37.6245 1.60645 35.5467 1.60645C33.5505 1.60645 31.4139 2.398 30.2578 3.26295C28.9367 4.25138 27.7619 5.9324 27.7619 7.71218L27.7618 7.7121Z" fill="black"/>
<path fill-rule="evenodd" clip-rule="evenodd" d="M46.0793 3.8956V20.4575C46.0793 25.1562 49.8504 23.9701 50.5193 23.1419C51.629 21.7678 51.1929 18.4865 51.1929 16.336C53.0272 18.4462 54.8939 20.8053 56.7448 22.9193C58.429 24.843 61.2673 23.6855 61.2673 21.7548C61.2673 20.7836 61.1906 20.3528 60.4463 19.523L58.8829 17.8046C58.7391 17.6418 58.7307 17.5875 58.578 17.4226C58.0309 16.8321 57.0589 15.8214 56.6881 15.2675C57.0628 15.0166 58.1244 13.9091 58.3993 13.6969L59.7234 12.5023C62.0859 10.1724 59.9929 8.16952 58.7487 8.16952C57.1425 8.16952 56.7005 8.74734 55.7144 9.86709C55.3339 10.2992 54.9568 10.5674 54.4861 11.1574L51.193 14.5806C51.193 12.8835 51.3267 3.55329 51.085 2.32439C50.5985 -0.148607 47.4459 -0.0638185 46.5675 1.40705C46.1476 2.11037 46.0794 2.82144 46.0794 3.89546L46.0793 3.8956Z" fill="black"/>
<path fill-rule="evenodd" clip-rule="evenodd" d="M221.619 11.4512C223.275 11.4512 224.519 12.5028 224.519 14.275H218.185C218.45 13.1363 218.582 12.9812 219.308 12.2692C219.735 11.851 220.792 11.4511 221.619 11.4511V11.4512ZM213.376 16.0304C213.376 19.2682 214.986 22.095 217.976 23.3367C220.825 24.5194 225.249 24.2764 227.364 22.2333C228.806 20.8411 228.065 19.3218 227.204 18.9172C225.701 18.2108 224.798 19.339 224.013 19.7215C222.151 20.6281 219.71 20.2764 218.578 18.5369C218.346 18.1794 218.291 17.8614 218.185 17.4042C220.398 17.4042 222.611 17.4042 224.825 17.4042C226.594 17.4042 229.099 17.7635 229.099 15.0382C229.099 13.1173 227.945 11.0075 226.562 9.71345C226.379 9.5418 226.233 9.47077 226.035 9.32484C225.683 9.06575 225.351 8.88176 224.928 8.67671C223.657 8.0619 222.504 8.0166 221.085 8.0166C219.387 8.0166 217.926 8.62876 216.658 9.46633C214.546 10.8607 213.376 13.4906 213.376 16.0303V16.0304Z" fill="black"/>
<path fill-rule="evenodd" clip-rule="evenodd" d="M182.848 20.6094C181.576 20.6094 180.53 19.9943 180.791 18.7107C181.122 17.0844 184.25 17.0224 185.977 17.0224C185.977 19.1275 185.267 20.6095 182.848 20.6095V20.6094ZM183.229 11.7561C184.06 11.7561 184.629 11.9393 185.152 12.3522C185.602 12.7073 185.824 13.3283 185.824 14.122C183.457 14.122 181.088 14.3201 179.215 15.0688C177.15 15.8948 176.132 17.2048 176.132 19.4646C176.132 20.3945 176.502 21.4518 177.028 22.0794L177.207 22.2815C177.218 22.2927 177.234 22.3089 177.245 22.3199L177.638 22.6905C179.059 24.0769 182.338 24.3749 184.274 23.4091C184.651 23.2209 185.354 22.7764 185.608 22.4534C185.781 22.2323 185.727 22.2269 185.977 22.0597C186.195 22.9938 186.885 23.8913 187.962 23.8913C188.928 23.8913 189.281 23.8541 189.967 23.1496C190.349 22.7579 190.556 22.1847 190.556 21.4492C190.556 18.8906 190.759 14.644 190.177 12.3651C189.461 9.56588 187.411 8.0166 184.145 8.0166C182.367 8.0166 181.018 8.10032 179.489 8.85496C179.026 9.08316 178.472 9.34262 178.096 9.67532C177.747 9.98416 177.367 10.6339 177.381 11.2123C177.418 12.7133 178.75 13.5152 180.609 12.57C181.313 12.2118 182.396 11.7563 183.23 11.7563L183.229 11.7561Z" fill="black"/>
<path fill-rule="evenodd" clip-rule="evenodd" d="M154.762 6.64199V8.47373C153.962 8.47373 153.202 8.38457 152.564 9.02346C151.627 9.96137 151.977 12.2135 153.922 12.2135H154.762V18.5482C154.762 20.3214 155.146 21.4598 155.938 22.486C157.164 24.075 160.955 24.3816 162.468 23.5073C163.81 22.7328 163.828 20.4123 161.743 20.0388C161.103 19.9243 160.791 20.1301 160.296 19.8062C159.009 18.9639 160.021 13.1211 159.646 12.2135C160.486 12.2135 161.689 12.3674 162.343 12.0864C164.327 11.2344 163.678 8.4738 161.631 8.4738H159.646C159.646 7.04307 159.864 5.82879 158.98 4.86572C157.852 3.63618 154.762 4.02464 154.762 6.64206V6.64199Z" fill="black"/>
<path fill-rule="evenodd" clip-rule="evenodd" d="M82.1794 3.05522V21.3724C82.1794 24.1357 85.7491 24.6954 86.8624 22.7735C87.2391 22.1232 87.2929 21.1456 87.2929 20.1512V4.12371C87.2929 3.12925 87.239 2.15164 86.8624 1.50142C85.8429 -0.258646 82.1794 -0.117952 82.1794 3.05514V3.05522Z" fill="black"/>
<path fill-rule="evenodd" clip-rule="evenodd" d="M73.1729 2.90268V21.2961C73.1729 22.7185 74.1364 23.891 75.5388 23.891C77.9711 23.891 78.2864 22.2861 78.2864 20.1513V4.12384C78.2864 3.12938 78.2324 2.15176 77.8558 1.50155C77.0474 0.106005 74.8054 0.0400665 73.8394 1.12684C73.5056 1.50241 73.1729 2.22207 73.1729 2.9026V2.90268Z" fill="black"/>
<path fill-rule="evenodd" clip-rule="evenodd" d="M170.331 10.6109C170.331 8.9052 169.362 8.16862 167.736 8.16862C166.364 8.16862 165.522 9.36061 165.522 10.7636V21.2197C165.522 24.3053 169.069 24.5946 170.149 22.793C171.163 21.1003 169.943 15.8221 170.991 14.0192C171.174 13.7052 171.45 13.3744 171.747 13.1723C172.093 12.9371 172.395 12.7982 172.891 12.7132C173.706 12.5734 174.563 12.6085 175.236 11.8525C176.4 10.5436 175.69 8.09229 173.765 8.09229C173.2 8.09229 172.802 8.09487 172.288 8.37095C172.135 8.45316 172.008 8.54461 171.88 8.64918C170.695 9.61261 170.681 10.3539 170.331 10.6109V10.6109Z" fill="black"/>
<path fill-rule="evenodd" clip-rule="evenodd" d="M118.049 10.6111C118.049 8.90829 117.08 8.16877 115.455 8.16877C114.082 8.16877 113.241 9.36076 113.241 10.7638V21.0671C113.241 22.5974 114.117 23.891 115.455 23.891C118.177 23.891 118.278 22.2422 118.278 19.9223C118.278 18.8538 118.278 17.7853 118.278 16.7168C118.278 15.0028 118.392 13.0936 120.61 12.7133C121.425 12.5736 122.282 12.6087 122.954 11.8526C124.118 10.5438 123.408 8.09244 121.484 8.09244C120.859 8.09244 120.526 8.07545 119.958 8.39855C118.694 9.11836 118.351 10.3899 118.049 10.611L118.049 10.6111Z" fill="black"/>
<path fill-rule="evenodd" clip-rule="evenodd" d="M145.298 10.7648V21.2971C145.298 22.7372 146.258 23.892 147.588 23.892C149.571 23.892 150.335 22.8232 150.335 20.8392V11.07C150.335 7.80353 147.21 7.56034 145.925 8.94979C145.562 9.3427 145.298 10.0263 145.298 10.7648Z" fill="black"/>
<path fill-rule="evenodd" clip-rule="evenodd" d="M64.1673 10.7632V21.2955C64.1673 22.7357 65.1277 23.8905 66.457 23.8905C67.3714 23.8905 68.0983 23.7392 68.6408 23.0215C69.0286 22.5085 69.2045 21.7092 69.2045 20.8376V11.2212C69.2045 7.60964 65.9916 7.65336 64.7947 8.94827C64.4315 9.34118 64.1672 10.0248 64.1672 10.7632H64.1673Z" fill="black"/>
<path fill-rule="evenodd" clip-rule="evenodd" d="M63.7854 3.66652C63.7854 6.13909 66.9434 7.23769 68.5759 5.70948C70.6372 3.77984 69.0058 0.918945 66.9145 0.918945H66.4566C65.0327 0.918945 63.7854 2.22482 63.7854 3.66652Z" fill="black"/>
<path fill-rule="evenodd" clip-rule="evenodd" d="M144.917 3.66652C144.917 6.14482 148.088 7.22522 149.707 5.70948C151.76 3.78793 150.155 0.918945 148.046 0.918945H147.588C146.164 0.918945 144.917 2.22482 144.917 3.66652Z" fill="black"/>
<path fill-rule="evenodd" clip-rule="evenodd" d="M4.82932 0.627441C7.30784 0.627441 9.33582 2.65542 9.33582 5.13394V19.6142C9.33582 22.0927 7.30784 24.1207 4.82932 24.1207C2.35081 24.1207 0.322754 22.0927 0.322754 19.6142V5.13394C0.322754 2.65542 2.35081 0.627441 4.82932 0.627441ZM15.7862 7.86754C18.2749 7.86754 20.2927 9.8852 20.2927 12.3741C20.2927 14.8628 18.275 16.8806 15.7862 16.8806C13.2974 16.8806 11.2797 14.8629 11.2797 12.3741C11.2797 9.88527 13.2973 7.86754 15.7862 7.86754Z" fill="#93A5FF"/>
</svg>
