<svg width="195" height="61" viewBox="0 0 195 61" fill="none" xmlns="http://www.w3.org/2000/svg">
<g clipPath="url(#clip0_326_6210)">
<path d="M9.91502 33.605C10.9698 29.0507 12.0344 24.5014 13.0744 19.9422C13.2223 19.3021 13.4244 18.9698 14.1982 19.004C15.8444 19.0773 17.5005 19.0773 19.1468 19.004C19.9058 18.9698 20.1276 19.2825 20.2705 19.9324C21.2366 24.2912 22.2273 28.6451 23.2081 33.0039C23.2427 33.1505 23.2969 33.2922 23.4891 33.4437C23.9031 31.0395 24.3122 28.6305 24.7262 26.2263C25.1008 24.0713 25.4951 21.9213 25.8352 19.7614C25.919 19.219 26.057 18.9893 26.6633 19.004C28.4081 19.048 30.1578 19.0333 31.9076 19.004C32.5138 18.9942 32.5927 19.1897 32.4596 19.7272C30.7789 26.5097 29.108 33.302 27.4519 40.0943C27.2942 40.7393 27.0527 41.0374 26.3035 41.013C24.396 40.9494 22.4836 40.9592 20.5761 41.0081C19.8664 41.0276 19.5854 40.8419 19.4277 40.1089C18.5652 36.0873 17.6336 32.0853 16.6774 27.8486C16.1402 29.1924 15.9824 30.4189 15.7015 31.6064C15.0016 34.5334 14.3362 37.4751 13.6807 40.4119C13.587 40.837 13.4096 41.0081 12.9709 40.9983C10.8367 40.9788 8.69759 40.9543 6.56339 40.9983C5.86842 41.013 5.86842 40.5487 5.76985 40.1432C4.63621 35.5254 3.51736 30.9027 2.39851 26.2849C1.86619 24.1007 1.36345 21.9066 0.7917 19.7321C0.633977 19.1359 0.752269 19.0089 1.3388 19.0138C3.05405 19.0431 4.76929 19.0626 6.48453 19.0089C7.1105 18.9893 7.33722 19.1995 7.4358 19.7663C7.95333 22.9035 8.49058 26.0455 9.02782 29.1827C9.27919 30.6682 9.54042 32.1488 9.79672 33.6343C9.83616 33.6245 9.88544 33.6099 9.92488 33.5952L9.91502 33.605Z" fill="#005A91"/>
<path d="M43.4708 33.4778C41.7901 33.4778 40.1044 33.5218 38.4237 33.4583C37.6646 33.4338 37.6153 33.7661 37.7681 34.3183C38.0294 35.2761 38.5518 35.9944 39.5967 36.2289C40.6022 36.4537 41.4648 36.2289 42.1055 35.408C42.3421 35.105 42.5491 34.9389 42.9632 34.9438C44.7425 34.978 46.5218 34.9926 48.2962 34.9438C48.9862 34.9242 48.9271 35.2272 48.794 35.6816C48.3898 37.0645 47.4435 38.0614 46.4183 39.0045C43.9341 41.2865 40.9719 41.653 37.8519 40.8711C33.7018 39.8254 31.4395 36.5026 31.5479 31.8701C31.6366 28.0928 33.6131 25.1511 36.9204 23.9002C40.4001 22.5808 44.7622 23.4213 47.1034 25.8939C48.9271 27.8241 49.4397 30.1941 49.3411 32.7546C49.3214 33.3166 49.1094 33.5169 48.513 33.5022C46.8323 33.4583 45.1516 33.4876 43.4659 33.4876L43.4708 33.4778ZM37.778 30.0426C37.6646 30.5263 37.9801 30.5312 38.335 30.5312C39.6904 30.5263 41.0508 30.497 42.4013 30.5508C43.1504 30.5752 43.1159 30.1989 42.9484 29.7201C42.278 27.8778 39.7594 27.785 38.6504 28.7721C38.2807 29.0995 37.64 29.3291 37.778 30.0475V30.0426Z" fill="#005A91"/>
<path d="M103.554 33.4782C101.902 33.4782 100.251 33.5221 98.605 33.4586C97.7671 33.4293 97.703 33.7274 97.91 34.4115C98.2057 35.3937 98.7972 36.0436 99.8125 36.2537C100.779 36.4541 101.626 36.1902 102.223 35.4035C102.494 35.0516 102.745 34.9441 103.179 34.949C104.894 34.9783 106.605 34.9832 108.32 34.9441C108.97 34.9295 109.084 35.076 108.877 35.7064C107.921 38.6334 105.017 40.8764 101.651 41.1647C98.9796 41.3943 96.5053 40.8568 94.4253 39.0439C92.9072 37.7148 92.0841 35.9898 91.8179 34.0352C91.3842 30.8052 91.7982 27.712 94.4401 25.4691C97.7966 22.6154 103.287 22.415 106.698 25.4056C108.951 27.3846 109.636 30.0429 109.419 32.9748C109.379 33.527 109.054 33.4733 108.694 33.4733H103.549V33.483L103.554 33.4782ZM100.453 30.5316C101.133 30.5316 101.814 30.5023 102.489 30.5413C103.13 30.5804 103.287 30.3605 103.08 29.7644C102.721 28.7284 101.676 28.0932 100.379 28.1616C99.1767 28.2251 98.186 28.9777 97.9051 29.9696C97.7819 30.4094 97.8656 30.5511 98.3191 30.5365C99.0289 30.5169 99.7386 30.5316 100.453 30.5365H100.448L100.453 30.5316Z" fill="#005A91"/>
<path d="M92.1975 23.5288C90.226 29.2167 88.3037 34.7385 86.4061 40.2652C86.2188 40.8125 85.9921 41.0177 85.3908 41.008C83.3206 40.9689 81.2456 40.9835 79.1804 41.008C78.6826 41.0128 78.4115 40.8858 78.2833 40.3776C77.894 38.8579 77.4109 37.3382 76.8392 35.9113C75.7006 33.0576 74.8479 30.111 73.7537 27.2524C73.3052 26.0796 72.9306 24.8873 72.4673 23.5435H76.2329C78.0911 23.5435 79.2691 24.4279 79.7719 26.192C80.59 29.0653 81.4279 31.9288 82.256 34.8021C82.5862 34.7434 82.5419 34.4795 82.601 34.2841C83.4389 31.3131 84.3015 28.3518 85.0901 25.3661C85.238 24.8091 85.6668 24.3449 85.5928 23.7047C85.5682 23.4897 85.8836 23.5337 86.0562 23.5337C88.0573 23.5288 90.0535 23.5337 92.2024 23.5337H92.2074L92.1975 23.5288Z" fill="#005A91"/>
<path d="M51.4703 30.0233C51.4703 26.6418 51.49 23.2604 51.4505 19.8789C51.4407 19.185 51.6428 19.0042 52.3082 19.0188C53.7967 19.0579 55.2852 19.0726 56.7737 19.0042C57.4982 18.9749 57.5968 19.2338 57.5968 19.874C57.5722 25.0244 57.6018 30.1797 57.5623 35.3301C57.5574 36.1608 57.8038 36.3612 58.5925 36.3318C60.2387 36.2732 61.8948 36.366 63.541 36.2976C64.3099 36.2683 64.4676 36.5273 64.4282 37.2212C64.374 38.218 64.3839 39.2149 64.4233 40.2166C64.4479 40.7884 64.2951 41.0034 63.679 41.0034C59.8592 40.9789 56.0442 40.974 52.2244 41.0034C51.5393 41.0083 51.4505 40.7493 51.4555 40.158C51.4801 36.7765 51.4703 33.395 51.4653 30.0135H51.4703V30.0233Z" fill="#005A91"/>
<path d="M71.7181 32.1929C71.7181 34.861 71.6984 37.5339 71.7329 40.202C71.7427 40.8372 71.5702 41.0229 70.9245 41.0034C69.3769 40.9545 67.8194 40.9594 66.2717 41.0034C65.6556 41.0229 65.5176 40.803 65.5176 40.2313C65.5373 34.8903 65.5373 29.5542 65.5225 24.2132C65.5225 23.7539 65.5817 23.5096 66.1386 23.5193C67.7849 23.5584 69.436 23.5535 71.0872 23.534C71.5998 23.5242 71.7279 23.6659 71.723 24.1888C71.6885 26.8568 71.7082 29.5298 71.7082 32.1978H71.7131L71.7181 32.1929Z" fill="#005A91"/>
<path d="M68.5588 21.9017C67.1442 21.8577 65.9366 21.3984 65.3353 20.035C64.8326 18.8965 64.9558 17.7579 65.8035 16.7953C66.8879 15.559 68.3173 15.427 69.7959 15.774C71.4224 16.1551 72.4526 17.6113 72.2308 19.1066C71.94 21.0368 70.417 21.9652 68.5637 21.9017H68.5588Z" fill="#005A91"/>
<path d="M53.777 48.6946V46.3686C53.777 46.0559 53.7918 45.8115 54.2255 45.8115C54.6592 45.8115 54.7775 45.9923 54.7775 46.3881C54.7775 48.6701 54.7825 50.9473 54.7973 53.2293C54.7973 53.498 54.7184 53.6398 54.4325 53.6788C53.915 53.7521 53.8706 53.3857 53.8066 53.0289C52.5596 53.9476 51.4259 54.0111 50.5634 53.2049C49.622 52.3302 49.4445 50.4342 50.1986 49.2761C50.933 48.1473 51.973 47.9567 53.777 48.6897V48.6946ZM53.7967 51.0743C53.7573 49.7159 53.2348 48.9633 52.3476 48.9731C51.5491 48.9829 50.5782 50.0726 50.588 50.957C50.5979 52.0223 51.4604 52.9898 52.3723 52.9605C53.289 52.9263 53.8361 52.208 53.8016 51.0743H53.7967Z" fill="#005A91"/>
<path d="M30.715 51.0792V53.1951C30.715 53.3857 30.7544 53.6154 30.4833 53.6398C30.3009 53.6544 29.9658 53.6349 29.9461 53.5616C29.7144 52.77 29.4039 53.3075 29.1032 53.4834C27.8414 54.2213 26.5156 53.6398 26.2346 52.2031C26.0128 51.0597 26.1755 49.8967 26.1311 48.7435C26.1213 48.421 26.2987 48.3135 26.6191 48.3086C27.0035 48.2988 27.1317 48.4405 27.1268 48.807C27.112 49.6768 27.0972 50.5417 27.1366 51.4115C27.1859 52.4426 27.6295 52.9703 28.354 52.9557C29.1772 52.9361 29.6898 52.3058 29.6996 51.2845C29.7046 50.4831 29.7144 49.6817 29.6996 48.8803C29.6947 48.5578 29.6996 48.3232 30.1284 48.3135C30.5474 48.3086 30.71 48.4503 30.6953 48.8705C30.6755 49.6084 30.6903 50.3463 30.6903 51.089H30.715V51.0792Z" fill="#005A91"/>
<path d="M91.887 51.0061C91.9067 49.3104 92.9565 48.1816 94.5042 48.1816C96.0765 48.1816 97.151 49.3495 97.1116 51.0061C97.0721 52.6675 95.9878 53.7718 94.4106 53.7621C92.853 53.7523 91.8623 52.6675 91.8771 51.0061H91.887ZM92.8925 50.967C92.8826 52.1837 93.5135 52.9949 94.4697 52.9949C95.4801 52.9949 96.0962 52.1691 96.111 50.7959C96.1209 49.7844 95.4013 48.9537 94.5042 48.9488C93.5628 48.9439 92.9023 49.7698 92.8974 50.967H92.8925Z" fill="#005A91"/>
<path d="M104.377 50.9866C104.377 50.278 104.377 49.5743 104.377 48.8707C104.377 48.6606 104.303 48.3869 104.628 48.3332C104.845 48.299 105.155 48.2452 105.219 48.5042C105.372 49.1199 105.584 48.7583 105.84 48.597C107.314 47.6833 108.832 48.4113 108.98 50.1461C109.059 51.1331 108.995 52.1349 109.02 53.1317C109.034 53.5618 108.842 53.6741 108.438 53.679C107.985 53.6888 108.004 53.4249 108.004 53.122C108.004 52.2228 108.024 51.3237 107.985 50.4246C107.95 49.7014 107.699 49.0906 106.826 49.0417C106.047 48.9977 105.451 49.545 105.407 50.4246C105.362 51.2895 105.397 52.1593 105.407 53.0291C105.407 53.3614 105.431 53.6644 104.943 53.679C104.426 53.6937 104.372 53.4152 104.382 53.0096C104.396 52.3352 104.382 51.6609 104.382 50.9866H104.377Z" fill="#005A91"/>
<path d="M37.9011 50.9328C37.9011 50.2584 37.9405 49.5792 37.8912 48.9098C37.837 48.2208 38.3841 48.1181 38.6157 48.4065C39.0051 48.9 39.2319 48.6117 39.5522 48.4651C41.0161 47.781 42.3321 48.5188 42.4356 50.1265C42.4997 51.1185 42.4553 52.1153 42.4603 53.1122C42.4603 53.4151 42.4652 53.6937 42.0265 53.6888C41.6174 53.6839 41.4597 53.5227 41.4696 53.1122C41.4893 52.2131 41.4794 51.3139 41.4597 50.4148C41.44 49.6623 41.1837 49.0857 40.2965 49.0612C39.5029 49.0417 38.946 49.5841 38.9213 50.4686C38.8918 51.3335 38.9016 52.2033 38.9164 53.0682C38.9213 53.4396 38.8671 53.6839 38.4087 53.6888C37.9208 53.6937 37.9208 53.4005 37.9208 53.0535C37.9257 52.345 37.9208 51.6413 37.9208 50.9328H37.906H37.9011Z" fill="#005A91"/>
<path d="M16.2437 53.7623C14.6813 53.7672 13.6561 52.7019 13.6413 51.06C13.6265 49.3937 14.6911 48.2161 16.2338 48.2014C17.8111 48.1819 18.9053 49.3204 18.8954 50.9623C18.8856 52.6237 17.8111 53.7574 16.2437 53.7623ZM17.885 51.0307C17.8949 49.858 17.2245 48.9637 16.3127 48.9393C15.3467 48.91 14.6468 49.7895 14.6517 51.021C14.6566 52.1693 15.2826 52.9707 16.1993 52.9951C17.1358 53.0195 17.8752 52.1595 17.885 51.0307Z" fill="#005A91"/>
<path d="M66.2765 51.6414V53.1856C66.2765 53.6596 65.8034 53.8111 65.6506 53.6107C65.1725 52.9755 64.8176 53.4934 64.4332 53.6302C63.4474 53.987 62.4912 53.6645 62.1462 52.824C61.7864 51.9493 62.1757 51.055 63.1319 50.6153C63.6051 50.4002 64.1029 50.2781 64.6254 50.2536C64.8422 50.2439 65.1232 50.3074 65.207 50.0289C65.3006 49.7259 65.1626 49.4669 64.926 49.2617C64.3937 48.8023 63.8072 48.8805 63.1911 49.0711C62.9693 49.1395 62.6735 49.4425 62.4961 48.9587C62.3236 48.4847 62.7278 48.4945 62.9545 48.4065C64.7042 47.7224 66.2913 48.6558 66.242 50.5713C66.2322 50.9231 66.242 51.2798 66.242 51.6317H66.2667L66.2765 51.6414ZM65.2908 51.529C65.3401 51.1283 65.1873 50.9231 64.6993 50.9426C63.6938 50.9866 62.9791 51.4802 63.0186 52.1643C63.0531 52.7458 63.403 53.0145 63.9698 53.0145C64.7683 53.0145 65.3105 52.4135 65.2908 51.5241V51.529Z" fill="#005A91"/>
<path d="M2.67462 49.9162C2.67462 48.8852 2.68941 47.859 2.66969 46.8279C2.65983 46.3784 2.79291 46.1927 3.27594 46.2073C4.21242 46.2367 5.14891 46.2122 6.09032 46.222C6.36141 46.222 6.68671 46.134 6.70643 46.6032C6.72614 47.0674 6.42548 47.0234 6.13468 47.0283C5.84388 47.0283 5.55307 47.0087 5.26227 47.0283C4.7546 47.0674 3.96598 46.7888 3.7984 47.1602C3.5421 47.7222 3.68996 48.4747 3.68011 49.149C3.68011 49.4618 3.92655 49.4764 4.16314 49.4764C4.61659 49.4813 5.07497 49.4373 5.51857 49.496C5.86359 49.5448 6.48463 49.1832 6.46984 49.9113C6.45998 50.5612 5.88331 50.2241 5.56293 50.2681C5.14891 50.3267 4.7201 50.3023 4.30114 50.2729C3.78361 50.2339 3.62589 50.4537 3.65546 50.9522C3.69489 51.6607 3.65546 52.3644 3.67025 53.0778C3.67518 53.4541 3.59632 53.6935 3.13793 53.674C2.73377 53.6544 2.67462 53.4248 2.67462 53.0974C2.67955 52.037 2.67462 50.9717 2.67462 49.9113V49.9162Z" fill="#005A91"/>
<path d="M74.0445 50.9229V49.5791C74.0445 49.3641 74.079 49.1686 73.7537 49.0807C73.2953 48.9585 73.1869 48.6702 73.6749 48.4259C73.9903 48.2695 74.0741 48.0545 74.0445 47.7515C74.0051 47.3117 74.2959 47.2091 74.6409 47.1602C75.1634 47.0821 75.0352 47.4876 75.0155 47.7271C74.9761 48.289 75.2718 48.3428 75.7253 48.3232C75.9963 48.3135 76.4252 48.1766 76.4005 48.7288C76.3808 49.2028 76.021 49.0953 75.7647 49.0709C75.1781 49.022 74.9662 49.2419 75.0155 49.8332C75.0697 50.4684 75.0549 51.1183 75.0155 51.7536C74.981 52.3204 75.1732 52.7504 75.6316 53.0681C75.7696 53.1658 76.0604 53.156 75.9766 53.4297C75.9027 53.6593 75.7006 53.762 75.4492 53.7668C74.6113 53.7864 74.1973 53.288 74.0839 52.5599C74.0002 52.0272 74.0692 51.4751 74.0692 50.9278H74.0396L74.0445 50.9229Z" fill="#005A91"/>
<path d="M84.5578 51.0498C84.5578 51.7241 84.543 52.3936 84.5627 53.0679C84.5726 53.4491 84.4986 53.6739 84.0452 53.669C83.646 53.669 83.5622 53.4833 83.5671 53.1315C83.5819 51.6851 83.577 50.2484 83.5671 48.802C83.5671 48.4257 83.7248 48.3036 84.0896 48.2987C84.4937 48.2889 84.5677 48.4893 84.5627 48.8313C84.5479 49.5692 84.5627 50.3022 84.5627 51.0449L84.5578 51.0498Z" fill="#005A91"/>
<path d="M83.4488 46.7939C83.4981 46.4812 83.6804 46.2173 84.055 46.2124C84.4247 46.2124 84.6613 46.447 84.6613 46.8134C84.6613 47.1799 84.4691 47.4096 84.0698 47.4145C83.6706 47.4145 83.5079 47.1751 83.4438 46.7939H83.4488Z" fill="#005A91"/>
<path d="M160.615 28.0048C163.198 27.5308 165.219 26.2848 166.357 23.8415C166.561 23.405 166.43 23.1802 165.963 23.1671C165.825 23.1671 165.682 23.1671 165.529 23.1134C165.766 23.0694 165.776 22.6541 166.101 22.7958C166.318 23.3284 166.87 22.9277 167.19 23.1867C167.062 24.1933 166.564 25.0338 166.002 25.8499C165.731 26.2359 165.436 26.6024 165.16 26.9835C164.76 27.5211 164.77 27.5895 165.386 27.7654C166.968 28.2198 168.388 28.943 169.512 30.1696C169.625 30.2917 169.758 30.3846 169.936 30.3895C169.936 30.668 169.768 30.883 169.664 31.1175C166.929 28.0928 162.178 28.2052 160.211 29.7786C160.615 29.935 160.995 30.0767 161.369 30.2233C162.922 30.8537 164.174 31.8603 165.125 33.2334C165.263 33.4289 165.598 33.7123 165.352 33.898C165.115 34.0788 164.913 33.7172 164.745 33.5168C163.676 32.2463 162.345 31.3765 160.704 31.0638C160.211 30.9709 159.679 30.6973 159.151 31.0052C158.737 30.7266 158.382 30.7169 158.146 31.2299C158.096 30.9807 157.993 30.9807 157.82 31.142C156.376 32.4956 155.08 33.9126 154.903 36.0432C154.804 37.2404 154.735 38.4669 154.158 39.581C152.946 41.9266 151.487 44.0962 149.54 45.9091C149.333 46.1046 149.146 46.2951 149.032 46.5834C148.914 46.8815 148.658 47.0868 148.288 47.1943C147.746 47.3555 147.416 47.849 147.011 48.2253C146.371 48.8166 146.198 49.5105 146.243 50.3803C146.376 52.9457 146.425 55.5209 146.479 58.0912C146.489 58.5701 146.588 58.6727 147.08 58.5555C152.556 57.2117 157.017 54.3335 160.448 49.8672C162.005 47.8393 163.114 45.5915 163.942 43.1922C163.977 43.0945 164.006 42.9967 164.041 42.899C164.174 42.4983 164.425 42.2198 164.864 42.3664C165.302 42.513 165.411 42.8404 165.263 43.3095C164.588 45.4156 163.691 47.419 162.458 49.2613C158.397 55.3157 152.758 59.0001 145.538 60.1436C138.593 61.243 132.254 59.6012 126.695 55.3401C121.633 51.4602 118.508 46.3049 117.458 40.0306C116.315 33.1943 117.838 26.9005 121.988 21.3249C125.946 16.0084 131.308 12.8663 137.834 11.7424C141.55 11.1023 145.242 11.4053 148.87 12.4607C149.269 12.578 149.56 12.8224 149.446 13.267C149.328 13.7264 148.983 13.8485 148.525 13.7117C147.278 13.3403 146.006 13.0813 144.715 12.8859C144.375 12.837 144.133 12.8956 143.882 13.14C141.457 15.5002 140.249 18.3979 139.879 21.7207C139.667 23.646 140.096 25.4834 140.422 27.3403C140.491 27.7214 140.683 28.0683 140.939 28.3811C143.068 31.01 144.128 34.1081 144.853 37.343C145.479 40.1185 145.784 42.9381 145.981 45.7723C145.991 45.9335 145.947 46.1583 146.105 46.2267C146.321 46.3293 146.4 46.0655 146.533 45.9628C146.681 45.8505 146.79 45.6843 146.947 45.5866C147.347 45.3423 147.475 45.0149 147.337 44.5751C147.608 44.5995 147.559 44.3259 147.682 44.1109C147.785 44.7363 147.973 44.7363 148.332 44.3698C148.953 43.7346 149.55 43.0798 150.062 42.3517C151.078 41.433 151.728 40.2505 152.246 39.0289C154.015 34.8704 153 28.7231 148.687 25.8401C148.465 25.6886 148.249 25.5713 147.958 25.542C147.711 25.5176 147.401 25.5273 147.228 25.283C146.647 24.4474 145.72 24.4425 144.862 24.3399C143.606 24.1884 142.398 24.4621 141.23 24.9263C141.097 24.9801 140.905 25.156 140.806 24.9458C140.727 24.7748 140.924 24.6575 141.062 24.5794C142.023 24.0272 143.059 23.6998 144.163 23.5825C144.389 23.5581 144.646 23.5825 144.577 23.2307C144.823 23.2453 144.936 23.563 145.143 23.5532C146.169 23.4848 147.105 23.8855 148.086 24.0663C148.303 24.1591 148.5 24.4425 148.746 24.2764C148.953 24.1396 148.83 23.8513 148.806 23.6363C148.608 22.0921 148.909 20.6164 149.353 19.1553C149.555 19.1504 149.757 19.1406 149.959 19.1358C149.333 21.4275 149.367 23.6167 150.777 25.6837C151.226 26.3434 151.758 26.9347 152.182 27.6139C152.916 28.8013 153.611 30.0034 154.05 31.3765C154.612 28.9821 155.179 26.5926 155.74 24.1982C155.765 24.0907 155.74 23.993 155.637 23.9343C155.78 23.778 155.982 23.8659 156.15 23.8219C156.105 25.7521 155.878 27.6628 155.598 29.5685C155.529 30.0327 155.469 30.5018 155.42 30.971C155.405 31.1175 155.43 31.269 155.583 31.3472C155.686 31.401 155.795 31.3472 155.854 31.2641C156.495 30.4237 157.426 29.9008 158.141 29.1385C159.033 28.9137 159.792 28.386 160.62 28.0244H160.625L160.615 28.0048ZM120.726 38.7894C120.174 38.4913 119.543 38.4522 118.951 38.2959C118.813 38.2617 118.577 38.1933 118.562 38.4474C118.532 38.9604 118.646 39.4638 118.774 39.9573C118.784 40.0013 118.878 40.0697 118.897 40.0599C119.489 39.7521 120.253 39.8889 120.746 39.3465C120.938 39.6152 121.174 39.5126 121.396 39.4149C121.505 39.366 121.618 39.2585 121.583 39.1266C121.519 38.8676 121.263 38.9213 121.081 38.8627C120.967 38.8236 120.844 38.8138 120.731 38.7943L120.726 38.7894ZM134.295 22.1947C135.261 22.9033 136.222 23.6118 137.193 24.3106C137.366 24.4328 137.499 24.7357 137.745 24.6087C137.972 24.4914 137.863 24.1933 137.868 23.9783C137.883 22.5417 137.716 21.0708 138.204 19.6928C138.972 17.4988 138.396 15.5197 137.44 13.5602C137.287 13.2426 137.095 13.1546 136.754 13.2524C135.966 13.4918 135.158 13.6677 134.374 13.9267C131.535 14.8551 128.987 16.3065 126.685 18.2024C126.266 18.5494 126.512 18.6715 126.774 18.8377C126.872 18.9012 127 18.9403 127.123 18.9501C128.09 19.0478 128.918 19.5316 129.795 19.8638C130.657 20.1912 131.436 20.6994 132.328 20.9633C132.91 21.496 133.625 21.8136 134.305 22.1898L134.295 22.1947ZM139.608 48.5381C139.505 48.3621 139.416 48.2107 139.179 48.1471C137.553 47.6829 135.907 47.551 134.221 47.7562C133.92 47.7904 133.797 47.9419 133.689 48.1667C133.669 47.8637 133.452 47.8833 133.245 47.9175C133.004 47.9566 132.772 48.0152 132.53 48.0689C131.357 48.3182 130.224 48.6846 129.125 49.1635C127.685 49.7939 126.35 50.5953 125.113 51.5579C124.812 51.7876 124.807 51.9831 125.113 52.2811C126.419 53.5419 127.804 54.7 129.361 55.648C133.201 57.9837 137.356 59.2005 141.871 59.1712C142.295 59.1712 142.462 59.0441 142.482 58.619C142.511 58.0473 142.6 57.4755 142.664 56.9038C142.911 54.6413 143.187 52.3789 143.266 50.0969C143.275 49.8916 143.31 49.662 143.073 49.5593C142.245 49.2026 141.442 48.7726 140.525 48.67C140.234 48.5527 140.003 47.9956 139.618 48.5429L139.608 48.5381ZM133.206 23.9685C133.092 23.4994 132.565 23.5239 132.309 23.2209C131.85 22.913 131.426 22.5417 130.934 22.3022C129.218 21.4617 127.518 20.5871 125.729 19.8981C125.246 19.7124 124.945 19.7808 124.605 20.157C120.815 24.3546 118.705 29.246 118.429 34.8948C118.38 35.965 118.868 36.5563 119.982 36.8543C120.248 37.1866 120.647 37.1964 121.017 37.2795C121.593 37.4065 122.17 37.5287 122.761 37.5238C122.84 37.8121 123.126 37.7828 123.318 37.8316C124.137 38.0369 124.896 38.4034 125.655 38.7454C127.799 39.7227 129.652 41.1154 131.308 42.7768C131.392 42.8599 131.486 42.9527 131.545 43.0554C131.88 43.6271 132.427 43.9838 132.915 44.404C133.166 45.4693 133.842 45.9091 134.872 45.7185C135.158 45.6648 135.414 45.567 135.66 45.4302C135.695 45.5915 135.828 45.5964 135.951 45.5915C136.799 45.5621 137.647 45.6012 138.489 45.6697C138.613 45.6794 138.741 45.6794 138.8 45.5377C138.977 45.6843 139.175 45.7576 139.401 45.8114C140.136 45.9873 140.924 45.9873 141.609 46.3635C142.048 46.4075 142.447 46.5834 142.847 46.7496C143.162 46.8815 143.216 46.7936 143.226 46.4808C143.28 44.4627 143.241 42.4543 142.733 40.4802C142.073 37.9196 140.914 35.6425 138.834 33.9371C136.774 32.2512 134.418 31.3521 131.717 31.1615C130.007 31.0394 128.395 31.2202 126.793 31.7381C125.946 32.0118 125.167 32.4418 124.378 32.8474C124.211 32.9353 124.013 33.0477 123.875 32.8669C123.708 32.647 123.949 32.5298 124.077 32.432C124.482 32.1193 124.901 31.8163 125.329 31.528C126.394 30.8048 127.621 30.4383 128.804 29.9839C129.09 29.9839 129.371 29.9594 129.652 29.9057C130.515 29.7395 131.382 29.6711 132.259 29.7298C134.684 29.5978 136.804 30.5165 138.849 31.66C139.283 31.8994 139.667 32.2121 140.081 32.4858C140.224 32.5786 140.387 32.6568 140.535 32.52C140.663 32.4027 140.584 32.2561 140.525 32.1242C139.643 30.2477 138.391 28.6059 137.05 27.0568C136.459 26.3727 135.754 25.7326 135.034 25.1657C134.468 24.7211 133.94 24.1738 133.206 23.9637V23.9685ZM123.235 41.1154C121.879 41.0714 120.76 41.218 119.651 41.4917C119.252 41.5894 119.07 41.7311 119.242 42.166C119.41 42.5814 119.523 43.0212 119.661 43.4512C120.553 46.1681 122.047 48.5527 123.728 50.8396C124.077 51.3136 124.245 51.1866 124.546 50.8689C125.965 49.3688 127.597 48.152 129.47 47.2724C129.953 47.0428 130.436 46.818 130.919 46.5932C131.205 46.4613 131.264 46.2902 131.081 46.0166C130.337 44.9025 129.479 43.8519 128.479 42.9772C126.941 41.6334 125.122 40.9102 123.235 41.1252V41.1154ZM139.874 15.1532C140.594 14.6255 140.85 13.8094 141.466 13.2963C141.629 13.1595 141.738 12.9543 141.9 12.7442C140.939 12.6513 140.047 12.7686 139.15 12.8517C138.923 12.8712 138.849 12.9689 138.977 13.1693C139.377 13.7703 139.633 14.4349 139.874 15.1581V15.1532Z" fill="#009ECE"/>
<path d="M187.068 7.27667V7.71157C187.423 7.32553 187.684 6.95416 188.044 6.67074C188.389 6.40686 188.552 6.44596 188.542 6.96393C189.286 6.35311 189.961 5.73252 190.987 5.60059C189.764 7.13496 189.439 8.90877 189.143 10.6924C189.119 10.8292 188.971 10.9904 189.212 11.1126C189.414 11.2201 189.612 11.1126 189.705 11.0344C190.267 10.5849 190.918 10.4774 191.603 10.4578C192.17 10.4431 192.618 10.6533 192.869 11.1712C192.983 11.4058 193.165 11.4938 193.372 11.5866C193.693 11.7332 194.008 11.8798 194.269 12.2072C193.53 12.2756 192.884 12.4808 192.391 13.0232C192.352 13.0672 192.288 13.1014 192.234 13.1161C191.021 13.38 190.469 14.3182 189.848 15.2613C188.596 17.167 186.694 17.5286 184.579 17.2208C183.677 17.0888 182.78 16.8641 181.991 16.4145C180.557 15.5984 179.074 15.6815 177.541 15.9845C175.954 16.2972 174.396 16.2972 172.814 15.4518C173.903 15.3248 174.884 15.2466 175.934 14.8215C175.066 14.6016 174.302 14.3621 173.8 13.6145C174.426 13.5217 174.997 13.5852 175.569 13.6145C176.846 13.6731 178.117 13.766 179.394 13.7758C180.059 13.7758 180.695 13.5754 181.178 13.0574C181.346 12.8815 181.38 12.7545 181.232 12.5297C181.021 12.2072 180.444 12.0215 180.774 11.4595C180.784 11.4449 180.685 11.3814 180.651 11.3325C180.345 10.9074 179.759 10.6239 179.936 9.93983C179.951 9.88119 179.774 9.77369 179.695 9.68084C179.512 9.46095 179.3 9.25083 179.172 9.00162C179.029 8.73286 178.867 8.36637 179.113 8.1367C179.3 7.96567 179.542 8.27352 179.749 8.38103C181.395 9.23128 183.155 9.79324 184.885 10.4334C185.23 10.5604 185.309 10.3894 185.392 10.1255C185.678 9.19219 186.171 8.36148 186.738 7.56986C186.822 7.45747 186.851 7.25224 187.073 7.28644V7.27667H187.068Z" fill="#005A91"/>
<path d="M175.51 22.2098C177.186 22.3955 178.852 22.3075 180.513 22.0729C181.089 21.9899 181.572 22.1804 182.016 22.5078C182.465 22.8401 182.879 23.2017 183.268 23.6073C183.85 24.2084 184.599 23.9836 184.821 23.1724C185.264 21.5794 185.974 21.252 187.561 21.9166C187.773 22.0045 187.97 21.9752 188.162 21.9263C188.542 21.8335 188.897 21.8775 189.4 22.0534C188.241 22.5176 187.995 23.7393 187.063 24.3354C186.782 24.5162 186.698 24.8632 186.669 25.2101C186.556 26.6761 185.782 27.7071 184.515 28.4059C184.264 28.5427 184.273 28.8506 184.022 29.0069C183.13 29.5542 182.194 29.9745 181.129 29.9989C180.774 30.0087 180.601 30.1064 180.444 30.4436C179.818 31.802 178.867 32.9455 177.861 34.0401C177.782 34.128 177.703 34.2404 177.531 34.1769C177.693 33.8055 177.856 33.4293 178.088 32.8917C177.201 33.4537 176.506 34.0059 175.535 34.3724C176.239 33.6052 176.782 32.9064 177.314 32.0903C176.515 32.2369 175.825 32.4422 174.992 32.4764C175.525 31.7385 176.269 31.3916 176.875 30.8834C177.817 30.0918 178.99 29.564 179.719 28.5281C180.064 28.0394 180.261 27.453 180.744 26.9448H179.128C179.428 26.7249 179.626 26.5783 179.99 26.3193C178.98 26.2998 178.137 26.207 177.383 25.6157C177.772 25.4984 178.211 25.6157 178.438 25.2541C177.615 24.8729 176.683 24.7263 175.978 24.0911L175.998 24.0667C176.634 24.0178 177.27 23.964 178.038 23.9005C176.954 23.5536 176.062 23.1187 175.5 22.2195L175.51 22.2098Z" fill="#005A91"/>
<path d="M165.776 4.02205C166.229 4.42274 166.545 4.70127 166.939 5.04822C166.525 4.16376 166.278 3.32816 166.16 2.45347C166.135 2.28732 165.963 2.0772 166.195 1.95993C166.461 1.8231 166.549 2.10652 166.663 2.24823C167.082 2.75155 167.589 3.17179 167.939 3.73863C168.023 3.87545 168.156 4.04159 168.447 4.06114C168.536 2.92746 168.649 1.79378 169.25 0.723633C169.798 2.88348 170.734 4.85276 171.567 6.85624C171.73 7.24716 171.833 7.54035 172.361 7.15432C173.07 6.64123 173.82 6.55327 174.544 7.25693C174.864 7.56967 175.436 7.34 175.88 7.71138C175.254 7.89218 174.776 8.20004 174.648 8.84506C174.638 8.89881 174.588 8.95745 174.544 8.99654C173.125 10.2377 171.991 11.8552 170.044 12.3976C169.704 12.4904 169.61 12.6761 169.655 13.0279C169.719 13.5997 169.709 14.1763 169.734 14.7529C169.748 15.1145 169.704 15.3002 169.216 15.2611C168.866 15.2366 168.462 15.3099 168.077 15.5298C167.703 15.7448 167.141 15.6618 166.658 15.6569C166.372 15.6569 166.431 15.437 166.505 15.2464C166.732 14.6356 166.919 14.0004 167.19 13.4042C167.772 12.1337 167.851 10.6873 168.59 9.47542C168.748 9.21155 168.615 9.16268 168.378 9.14314C167.851 9.10404 167.368 8.91836 166.939 8.63005C166.707 8.47368 166.278 8.28799 166.83 7.97525C166.914 7.92639 166.904 7.89218 166.732 7.73581C166.466 7.50126 166.229 7.25205 166.042 6.94908C165.899 6.70964 165.766 6.49463 166.175 6.38713C166.5 6.30406 166.298 6.09394 166.264 5.94734C166.131 5.35607 165.973 4.76969 165.781 4.01716L165.776 4.02205Z" fill="#005A91"/>
<path d="M154.41 18.3789C153.966 18.2323 153.774 18.8382 153.31 18.7307C153.591 18.374 153.858 18.027 154.129 17.6801C154.084 17.6508 154.06 17.6166 154.03 17.6166C153.734 17.6312 153.306 17.8707 153.177 17.5726C153.049 17.2843 153.517 17.1524 153.739 16.9764C154.617 16.2825 155.652 15.745 156.076 14.5674C155.849 14.5576 155.617 14.5478 155.366 14.5381C155.45 14.367 155.814 14.1618 155.272 14.1422C154.942 14.1325 154.572 14.0787 154.311 13.7758C154.474 13.5998 154.789 13.7855 154.883 13.5021C154.38 13.3653 153.877 13.2138 153.424 12.8864C153.71 12.7203 154.04 12.9108 154.291 12.6665C153.843 12.4515 153.429 12.2072 153.089 11.743C154 11.8505 154.848 11.8798 155.666 11.699C156.499 11.5182 157.017 11.9922 157.569 12.4466C158.175 12.9402 158.436 12.8669 158.619 12.129C158.757 11.5622 159.176 11.3032 159.669 11.4058C160.166 11.5084 160.659 11.5964 161.32 11.5915C160.709 12.0068 160.462 12.5688 159.999 12.9304C159.812 13.077 159.733 13.2822 159.683 13.5119C159.412 14.8557 158.195 16.0871 156.82 16.2728C156.302 16.3461 156.031 16.5562 155.809 16.9911C155.617 17.3722 155.331 17.7045 155.07 18.0515C154.937 18.2274 154.789 18.418 154.523 18.374L154.533 18.3838C154.543 18.2909 154.577 18.1688 154.434 18.1785C154.37 18.1834 154.267 18.286 154.4 18.3789V18.3691L154.41 18.3789Z" fill="#005A91"/>
<path d="M167.195 23.1868C166.88 22.9327 166.323 23.3334 166.106 22.7959C166.125 22.7764 166.145 22.7519 166.175 22.7373C166.224 22.6884 166.268 22.6347 166.318 22.5858C167.126 22.0678 167.929 21.545 168.738 21.027C168.61 20.812 168.407 20.8755 168.269 20.7827C168.117 20.68 167.806 20.7827 167.826 20.4748C167.841 20.2451 168.166 20.4406 168.255 20.1816C168.062 20.0497 167.855 19.908 167.639 19.7565C167.772 19.7076 167.91 19.6539 168.112 19.5855C167.299 18.9062 166.815 18.0364 166.342 17.0151C167.708 17.7041 169.029 18.2417 170.349 18.7792C170.793 18.96 171.094 18.9844 171.498 18.6424C172.287 17.968 173.05 18.0657 173.805 18.828C174.021 19.0479 174.357 18.9844 174.687 19.2629C173.997 19.3802 173.42 19.6001 172.942 20.0106C172.789 20.1425 172.597 20.2403 172.543 20.465C172.232 21.8235 171.163 22.3219 169.99 22.708C169.083 23.006 168.122 22.9963 167.2 23.1819L167.195 23.1868Z" fill="#005A91"/>
<path d="M169.285 36.1217C168.634 36.2927 168.176 36.7667 167.545 37.0208C168.156 37.656 168.94 37.6218 169.6 37.8759C169.98 38.0225 170.379 38.1398 170.768 38.2571C170.946 38.3108 170.906 38.4965 171.005 38.5943C170.902 38.6187 170.798 38.648 170.695 38.6724C169.541 38.9363 168.412 39.3028 167.234 39.4641C167.092 39.4836 167.032 39.552 166.949 39.6449C166.811 39.7963 166.668 39.9967 166.49 40.0407C165.677 40.2508 165.135 40.7492 164.686 41.4431C164.322 42.0051 163.651 42.2347 163.124 42.6257C162.853 42.826 162.631 42.3569 162.365 42.6403C163.42 41.6044 163.927 40.2459 164.74 39.0976C165.381 38.1887 166.027 37.2847 166.677 36.3904C166.944 36.0239 167.234 35.677 167.698 35.5304C168.053 35.418 168.393 35.3545 168.619 35.7405C168.767 35.9897 169.088 35.8871 169.28 36.1266L169.285 36.1217Z" fill="#005A91"/>
<path d="M160.615 28.0049C159.782 28.3665 159.028 28.8942 158.136 29.119C157.51 29.0115 157.51 28.4105 157.401 28.0244C157.056 26.7735 157.047 25.5372 158.19 24.599C158.363 24.4572 158.382 24.2422 158.451 24.0517C158.653 23.4702 159.023 23.2845 159.654 23.4555C160.181 23.6021 160.497 24.037 160.398 24.5257C160.369 24.6674 160.319 24.7895 160.413 24.9361C161.054 25.9183 160.98 26.9543 160.62 28.0049H160.615Z" fill="#005A91"/>
<path d="M150.057 42.3471C149.55 43.0752 148.953 43.73 148.327 44.3652C147.968 44.7317 147.775 44.7317 147.677 44.1062C147.559 44.3212 147.603 44.5949 147.332 44.5704C147.076 43.1289 146.479 41.6972 147.327 40.241C147.47 39.9966 147.884 39.8549 147.716 39.4738C147.509 38.9998 147.076 39.3028 146.676 39.2441C147.002 38.7994 147.036 38.2228 147.628 38.0371C148.106 37.8857 148.49 37.9199 148.771 38.4232C148.978 38.7946 149.229 39.1562 149.5 39.4738C150.191 40.2703 150.324 41.1303 150.013 42.0978C149.979 42.2102 149.944 42.2835 150.057 42.352V42.3471Z" fill="#005A91"/>
<path d="M169.669 31.1178C169.773 30.8783 169.941 30.6633 169.941 30.3897C170.064 30.2235 170.098 30.0183 170.187 29.8424C170.34 29.5492 170.266 29.4515 169.97 29.383C169.773 29.3391 169.517 29.2853 169.418 29.1436C169.177 28.7967 169.004 28.4008 168.807 28.0246C169.388 27.8487 168.896 27.3014 169.167 26.9447C169.334 26.7248 169.043 26.1579 168.935 25.6057C169.379 26.07 169.724 26.4316 170.113 26.8372C170.266 26.2752 170.241 25.7475 170.576 25.2393C170.872 26.285 171.232 27.2183 171.661 28.1321C171.789 28.4057 171.873 28.6061 172.213 28.3618C172.681 28.0197 173.065 28.3813 173.45 28.5719C173.613 28.6501 173.534 28.7869 173.435 28.9286C172.863 29.7349 172.242 30.4972 171.301 30.8832C170.897 31.0494 170.685 31.2595 170.788 31.6944C170.931 32.2905 170.67 32.5544 170.088 32.5886C169.886 32.5984 169.689 32.6424 169.492 32.6766C169.172 32.7303 169.137 32.6033 169.241 32.3345C169.393 31.9338 169.526 31.5233 169.669 31.1226V31.1178Z" fill="#005A91"/>
<path d="M148.081 24.0523C147.1 23.8764 146.164 23.4708 145.138 23.5392C144.931 23.5539 144.818 23.2314 144.572 23.2167C144.113 23.163 144.059 22.772 143.99 22.4495C143.886 21.9707 143.808 21.4771 143.808 20.9836C143.808 20.2946 143.704 19.718 142.763 19.5958C143.187 19.3466 143.502 19.1951 143.778 18.941C144.217 18.5305 145.015 18.7504 145.419 19.3857C145.779 19.9525 146.213 20.407 146.819 20.7099C147.253 20.9249 147.445 21.3501 147.568 21.7947C147.741 22.4104 147.721 23.075 148.002 23.6663C148.037 23.6907 148.066 23.72 148.101 23.7445C148.115 23.7591 148.13 23.7787 148.135 23.7982C148.125 23.852 148.11 23.9008 148.101 23.9546C148.086 23.979 148.081 24.0132 148.086 24.0425L148.081 24.0523Z" fill="#009ECE"/>
<path d="M164.745 18.5058C164.312 18.8527 164.031 19.3023 163.691 19.6883C163.35 20.0695 162.981 20.436 162.517 20.5435C161.961 20.6754 161.926 20.9686 161.965 21.4084C161.985 21.6234 162.103 21.9606 161.892 22.029C161.532 22.1463 161.132 22.3173 160.748 22.2098C160.511 22.1414 160.566 21.8531 160.63 21.6527C160.891 20.8758 161.167 20.1086 161.448 19.3072C161.29 19.2534 161.123 19.2046 160.96 19.141C160.497 18.9602 160.221 18.4178 160.324 17.9096C160.334 17.851 160.368 17.7875 160.354 17.7386C160.147 17.1229 160.649 16.5023 160.378 15.8475C160.679 16.1651 160.98 16.4828 161.325 16.8493C161.497 16.3459 161.448 15.8719 161.744 15.3979C161.882 15.784 161.99 16.1212 162.118 16.4486C162.286 16.8883 162.488 17.3184 162.646 17.763C162.803 18.2077 162.936 18.5253 163.523 18.1784C163.962 17.9194 164.257 18.5937 164.745 18.5009V18.5058Z" fill="#005A91"/>
<path d="M154.415 39.5567C155.114 38.7944 155.947 38.2569 156.982 38.0956C158.008 37.9392 158.836 38.3595 159.555 39.0436C159.743 39.2195 159.723 39.3515 159.526 39.5371C158.062 40.92 155.913 40.9396 154.419 39.5567H154.415Z" fill="#005A91"/>
<path d="M148.387 51.3383C146.913 51.1771 147.1 51.2553 147.692 50.0971C148.52 48.4846 150.087 47.9324 151.556 48.4504C151.891 48.5677 151.955 48.68 151.797 49.0074C151.112 50.4734 149.811 51.3774 148.387 51.3383Z" fill="#005A91"/>
<path d="M144.182 31.6263C144.177 30.6392 144.217 30.6147 145.143 30.9959C146.952 31.7435 147.726 33.0727 147.342 34.7488C147.263 35.0957 147.154 35.213 146.77 35.081C145.183 34.524 144.192 33.229 144.182 31.6311V31.6263Z" fill="#005A91"/>
<path d="M142.506 17.5432C142.339 17.5579 142.196 17.5823 142.166 17.3233C141.989 15.6326 143.418 13.9028 145.133 13.7513C145.971 13.678 146.031 13.7415 145.868 14.5527C145.508 16.3118 144.103 17.5628 142.511 17.5432H142.506Z" fill="#005A91"/>
<path d="M152.423 52.6773C153.562 52.6822 153.631 52.8044 153.168 53.855C152.601 55.145 151.137 56.1223 149.786 56.0539C149.353 56.0295 149.146 56.0099 149.279 55.4529C149.693 53.7572 150.886 52.6675 152.423 52.6773Z" fill="#005A91"/>
<path d="M154.617 26.6663C154.474 28.0443 154.513 27.9368 153.365 27.4433C152.808 27.2038 152.354 26.8178 151.94 26.3976C151.181 25.6304 151.275 24.6335 151.304 23.666C151.304 23.5194 151.373 23.4656 151.541 23.4705C153.02 23.5194 154.607 25.1661 154.621 26.6712L154.617 26.6663Z" fill="#005A91"/>
<path d="M157.303 36.2979C156.928 36.3859 156.554 36.2979 156.179 36.3077C155.607 36.3223 155.597 35.8972 155.785 35.6431C156.282 34.9541 156.534 34.0843 157.387 33.6445C158.244 33.2047 159.082 33.2096 159.959 33.5028C160.132 33.5614 160.329 33.6054 160.201 33.884C159.674 35.0421 158.89 35.9168 157.613 36.2588C157.515 36.2832 157.411 36.2832 157.308 36.293L157.303 36.2979Z" fill="#005A91"/>
<path d="M162.187 45.6893C162.187 46.6079 162.074 46.6959 161.206 46.3978C159.575 45.8359 158.565 44.453 158.629 42.8795C158.638 42.5814 158.663 42.4299 159.052 42.5228C159.846 42.7134 160.59 42.9723 161.221 43.505C161.896 44.0767 162.158 44.8341 162.187 45.6893Z" fill="#005A91"/>
<path d="M155.657 51.1427C155.247 51.1524 154.666 50.957 154.109 50.6687C153.931 50.5758 153.838 50.4976 153.986 50.3022C155.134 48.7776 156.849 47.854 158.693 49.0414C159.013 49.2467 159.117 49.4079 158.801 49.7353C157.998 50.5709 157.091 51.1475 155.657 51.1427Z" fill="#005A91"/>
<path d="M144.241 25.2788C145.611 25.2495 146.509 25.8554 147.095 26.9793C147.258 27.292 147.204 27.4435 146.854 27.5559C145.419 28.025 143.758 28.025 142.492 26.4955C142.112 26.0411 142.186 25.7381 142.753 25.5769C143.26 25.4303 143.763 25.225 144.236 25.2788H144.241Z" fill="#005A91"/>
<path d="M150.447 29.6619C150.432 30.605 150.097 31.3379 149.56 31.9927C149.461 32.1149 149.382 32.2761 149.185 32.066C147.918 30.7125 147.317 28.8458 148.771 27.2723C149.121 26.8961 149.313 26.9205 149.599 27.3407C150.102 28.0737 150.427 28.8507 150.447 29.6619Z" fill="#005A91"/>
<path d="M156.15 23.8077C155.982 23.8566 155.78 23.7638 155.637 23.9201C155.4 23.9837 155.272 23.9397 155.223 23.6514C154.927 21.9411 156.159 20.0402 157.85 19.62C158.126 19.5516 158.299 19.5418 158.328 19.9181C158.397 20.7732 158.328 21.6039 157.939 22.3809C157.658 22.9477 157.244 23.3875 156.598 23.5487C156.421 23.5927 156.228 23.5976 156.145 23.8028L156.15 23.8077Z" fill="#005A91"/>
<path d="M149.954 19.1215C149.752 19.1264 149.55 19.1362 149.348 19.1411C149.007 19.1948 148.825 19.1753 148.904 18.7111C149.19 16.9714 150.087 15.8573 151.516 15.5788C151.94 15.4957 152.492 15.3638 152.758 15.6667C153.015 15.9502 152.724 16.4388 152.566 16.8053C152.142 17.7875 151.615 18.6817 150.392 18.8186C150.205 18.8381 150.082 18.9896 149.954 19.1215Z" fill="#005A91"/>
<path d="M154.232 44.1994C155.188 43.9648 155.78 44.7222 156.504 45.1522C156.726 45.2842 156.544 45.4356 156.421 45.5383C155.095 46.628 153.261 47.0726 151.551 45.7484C151.304 45.5578 151.295 45.4405 151.541 45.2451C152.32 44.6245 153.104 44.0332 154.237 44.1945L154.232 44.1994Z" fill="#005A91"/>
<path d="M150.274 32.6572C151.014 33.3902 151.955 33.9082 152.354 34.9344C152.64 35.6673 152.561 36.3905 152.236 37.0893C152.049 37.49 151.783 37.7148 151.314 37.4021C149.781 36.3759 149.293 34.2942 150.269 32.6572H150.274Z" fill="#005A91"/>
<path d="M158.146 31.2302C158.382 30.7171 158.737 30.7269 159.151 31.0055C159.23 31.3817 158.831 31.4941 158.713 31.7726C158.644 31.9241 158.471 31.885 158.387 31.7091C158.308 31.5479 158.225 31.3866 158.146 31.2302Z" fill="#005A91"/>
<path d="M154.528 18.374C154.489 18.4913 154.449 18.4082 154.41 18.374V18.3838H154.538L154.528 18.374Z" fill="#009ECE"/>
<path d="M175.993 24.0767C175.959 24.0522 175.929 24.0229 175.899 23.9985C175.959 23.974 176.003 23.9838 176.018 24.0522L175.998 24.0767H175.993Z" fill="#009ECE"/>
<path d="M166.313 22.5859C166.263 22.6348 166.219 22.6886 166.17 22.7374C166.145 22.6201 166.209 22.5859 166.313 22.5859Z" fill="#009ECE"/>
<path d="M175.515 22.2095L175.49 22.1948L175.51 22.2095H175.515Z" fill="#009ECE"/>
<path d="M187.063 7.28615V7.26172L187.068 7.27638V7.28615H187.063Z" fill="#009ECE"/>
<path d="M148.101 23.964C148.11 23.9102 148.125 23.8614 148.135 23.8076C148.244 23.8858 148.214 23.9347 148.101 23.964Z" fill="#009ECE"/>
<path d="M128.799 29.9941C127.917 29.6618 127.414 29.0168 127.178 28.1226C127.133 27.9466 127.025 27.7805 126.985 27.6046C126.823 26.8912 126.68 26.1679 125.625 26.2461C126.029 25.9481 126.32 25.6451 126.591 25.3128C126.941 24.8828 127.592 24.9072 128.07 25.3519C128.637 25.8796 129.213 26.3097 130.017 26.4758C130.628 26.6028 130.988 27.1843 131.165 27.7561C131.333 28.3082 131.628 28.7676 131.988 29.1781C132.151 29.3637 132.077 29.5934 132.254 29.7351C131.377 29.6765 130.505 29.7449 129.647 29.911C129.361 29.9648 129.085 29.9941 128.799 29.9892V29.9941Z" fill="#009ECE"/>
<path d="M138.8 45.5382C138.642 44.727 138.514 43.9257 138.849 43.1243C139.002 42.7627 139.155 42.4059 139.5 42.1812C139.707 42.0443 139.781 41.8342 139.855 41.6241C140.082 40.9937 140.417 40.8129 141.067 40.9937C141.614 41.1452 141.866 41.5166 141.743 42.0834C141.693 42.2984 141.792 42.4255 141.876 42.5867C142.418 43.652 142.403 44.7026 141.767 45.7288C141.644 45.9291 141.605 46.1441 141.609 46.3738C140.924 45.9927 140.141 45.9927 139.401 45.8216C139.175 45.7679 138.977 45.6897 138.8 45.548V45.5382Z" fill="#005A91"/>
<path d="M132.323 20.9684C132.397 20.6507 132.471 20.3331 132.55 20.0155C132.733 19.2532 133.107 18.6131 133.753 18.1391C134.418 17.6504 134.403 17.3914 133.694 16.9468C133.92 16.7757 133.906 16.4386 134.231 16.3164C134.906 16.0672 135.532 16.2626 135.68 16.9614C135.902 18.012 136.493 19.048 135.951 20.1719C135.621 20.8511 135.202 21.457 134.556 21.8822C134.443 21.9603 134.285 22.0043 134.3 22.19C133.625 21.8089 132.905 21.4912 132.323 20.9635V20.9684Z" fill="#009ECE"/>
<path d="M119.977 36.855C119.553 35.5649 119.819 34.441 120.775 33.4686C120.908 33.3318 120.948 33.107 121.021 32.9213C121.233 32.3643 121.564 32.2177 122.199 32.4033C122.781 32.5695 123.003 32.9213 122.909 33.4784C122.855 33.796 122.84 34.0697 123.141 34.358C123.575 34.7733 123.481 36.3321 123.037 36.9918C122.919 37.1628 122.825 37.3339 122.756 37.5293C122.165 37.5293 121.588 37.4169 121.012 37.285C120.637 37.2019 120.243 37.1922 119.977 36.8599V36.855Z" fill="#009ECE"/>
<path d="M132.91 44.4092C133.053 43.5736 133.383 42.8406 134.167 42.4155C134.467 42.2494 134.645 42.0734 134.61 41.707C134.571 41.2623 134.186 41.4138 133.96 41.2965C133.925 41.2818 133.896 41.2525 133.812 41.189C134.26 41.0277 134.369 40.4804 134.926 40.4462C135.576 40.4071 135.917 40.5391 136.094 41.1597C136.281 41.8047 136.439 42.4644 136.528 43.1241C136.646 44.0281 136.237 44.7659 135.655 45.4305C135.409 45.5673 135.153 45.6699 134.867 45.7188C133.837 45.9094 133.161 45.4696 132.91 44.4043V44.4092Z" fill="#005A91"/>
<path d="M133.206 23.9688C133.196 24.4135 133.127 24.7702 132.639 25.0097C132.2 25.2247 132.126 25.1172 132.067 24.7214C131.983 24.1887 132.225 23.7245 132.308 23.2261C132.565 23.5242 133.092 23.5046 133.206 23.9737V23.9688Z" fill="#009ECE"/>
<path d="M133.689 48.1619C133.63 48.3574 133.58 48.5529 133.511 48.7483C133.393 49.0806 133.166 49.2565 132.801 49.149C132.417 49.0366 132.378 48.7483 132.452 48.416C132.476 48.2988 132.506 48.1766 132.535 48.0593C132.772 48.0105 133.008 47.9469 133.25 47.9127C133.452 47.8785 133.674 47.8639 133.694 48.1619H133.689Z" fill="#005A91"/>
<path d="M120.741 39.3417C120.736 39.156 120.731 38.9704 120.726 38.7896C120.844 38.814 120.967 38.8189 121.081 38.858C121.263 38.9215 121.519 38.8628 121.583 39.1218C121.618 39.2538 121.505 39.3613 121.396 39.4101C121.174 39.5128 120.933 39.6154 120.746 39.3417H120.741Z" fill="#009ECE"/>
<path d="M140.52 48.6655C139.879 49.2177 139.86 49.2128 139.613 48.5385C140.003 47.9912 140.229 48.5531 140.52 48.6655Z" fill="#005A91"/>
<path d="M133.334 35.7258C132.412 35.7307 131.776 35.4815 131.204 35.0466C131.017 34.9049 130.943 34.8023 131.135 34.5677C132.284 33.136 134.241 32.7304 135.857 33.5953C136.178 33.7663 136.222 33.9032 135.971 34.1768C135.202 35.0124 134.354 35.7014 133.334 35.7307V35.7258Z" fill="#005A91"/>
<path d="M130.248 39.5276C129.134 39.5569 128.326 39.1073 127.616 38.4379C127.488 38.3206 127.355 38.2228 127.572 38.0616C129.016 37.0159 130.805 36.4735 132.304 38.0029C132.841 38.5502 132.826 38.6235 132.136 38.9949C131.51 39.3272 130.864 39.5666 130.243 39.5324L130.248 39.5276Z" fill="#005A91"/>
<path d="M136.725 29.6179C134.748 29.5837 133.487 28.6357 133.215 26.9889C133.107 26.3341 133.181 26.2315 133.812 26.2999C135.606 26.4856 136.804 27.2723 137.287 28.9338C137.489 29.6325 137.484 29.6374 136.725 29.6228V29.6179Z" fill="#005A91"/>
<path d="M127.153 34.7097C126.493 34.7243 125.896 34.524 125.324 34.2161C125.024 34.0549 124.901 33.9718 125.221 33.6151C125.758 33.0092 126.438 32.6671 127.114 32.3055C127.912 31.8755 129.499 32.2175 130.091 32.8821C130.253 33.0678 130.174 33.1606 130.056 33.2877C129.263 34.1135 128.341 34.6852 127.153 34.7048V34.7097Z" fill="#005A91"/>
<path d="M124.738 27.2135C124.59 28.01 124.215 28.6502 123.688 29.2023C122.84 30.0868 121.574 30.3458 120.445 29.8913C120.198 29.7936 120.115 29.7252 120.233 29.4564C120.953 27.795 122.185 27.1304 123.796 27.0132C124.171 26.9887 124.378 27.4383 124.743 27.2086L124.738 27.2135Z" fill="#005A91"/>
<path d="M140.998 38.5745C140.979 39.7424 140.841 39.8255 139.766 39.3319C138.499 38.7504 137.469 37.0744 137.666 35.7355C137.716 35.4129 137.76 35.2859 138.154 35.3934C139.948 35.8918 141.018 37.0646 140.993 38.5745H140.998Z" fill="#005A91"/>
<path d="M125.995 21.0615C127.547 21.0322 128.686 21.8141 129.09 23.1872C129.159 23.4217 129.218 23.5928 128.878 23.6905C127.187 24.1938 125.319 23.4071 124.521 21.8434C124.319 21.4525 124.363 21.2716 124.826 21.1935C125.216 21.1299 125.6 21.0811 125.99 21.0566L125.995 21.0615Z" fill="#005A91"/>
<path d="M134.226 55.5067C134.191 55.9172 134.28 56.5426 133.886 56.7674C133.501 56.9873 133.068 56.5231 132.698 56.2837C131.421 55.4481 130.85 54.0261 131.18 52.5943C131.219 52.4331 131.195 52.2767 131.466 52.3109C132.787 52.4917 134.221 54.114 134.226 55.5067Z" fill="#005A91"/>
<path d="M139.593 49.8335C141.092 49.8433 142.191 50.6251 142.585 51.9396C142.669 52.2132 142.664 52.3892 142.324 52.4771C140.574 52.9413 138.78 52.1399 138.001 50.5665C137.799 50.1609 137.903 50.0485 138.307 49.9752C138.736 49.897 139.16 49.8384 139.593 49.8335Z" fill="#005A91"/>
<path d="M136.419 56.4693C137.223 55.5799 138.095 54.8225 139.372 54.7688C140.17 54.7346 140.855 55.0326 141.461 55.536C141.664 55.7021 141.728 55.8243 141.526 56.0246C140.224 57.2853 138.277 57.9743 136.414 56.4693H136.419Z" fill="#005A91"/>
<path d="M129.667 49.6231C130.835 49.5937 131.48 49.9309 132.077 50.4C132.264 50.5466 132.318 50.6688 132.126 50.8887C130.958 52.2471 128.839 52.5696 127.35 51.5923C127.168 51.4702 126.921 51.3871 127.197 51.0988C127.981 50.2778 128.873 49.6866 129.667 49.6182V49.6231Z" fill="#005A91"/>
<path d="M136.69 51.4262C136.656 51.9392 136.69 52.6087 136.237 52.8139C135.862 52.985 135.409 52.4914 135.044 52.1982C133.93 51.2844 133.506 50.1263 133.773 48.7092C133.837 48.3721 133.925 48.2988 134.29 48.3721C135.567 48.6262 136.745 50.0824 136.69 51.4262Z" fill="#005A91"/>
<path d="M125.832 43.3244C127.074 43.4417 128.159 43.7007 128.918 44.6829C129.312 45.196 129.391 45.7921 129.46 46.3932C129.509 46.8085 129.159 46.8427 128.878 46.8476C127.266 46.8623 125.63 45.3523 125.467 43.7496C125.428 43.3586 125.596 43.2804 125.827 43.3244H125.832Z" fill="#005A91"/>
<path d="M122.584 43.9647C121.579 43.9647 120.819 43.6324 120.144 43.0851C120.011 42.9727 119.908 42.9092 120.07 42.7088C121.204 41.3064 123.437 41.0669 124.797 42.2153C125.354 42.6844 125.354 42.7577 124.758 43.1779C124.073 43.6666 123.309 43.9402 122.584 43.9647Z" fill="#005A91"/>
<path d="M129.213 19.0383C128.336 19.0529 128.321 19.0285 128.602 18.2075C129.061 16.8589 129.854 15.8816 131.382 15.7154C131.84 15.6665 132.407 15.6128 132.659 15.95C132.88 16.248 132.516 16.7123 132.328 17.0641C131.673 18.3102 130.658 19.0138 129.213 19.0334V19.0383Z" fill="#005A91"/>
</g>
<defs>
<clipPath id="clip0_326_6210">
<rect width="193.546" height="59.7526" fill="white" transform="translate(0.732666 0.723633)"/>
</clipPath>
</defs>
</svg>
