<svg width="145" height="45" viewBox="0 0 145 45" fill="none" xmlns="http://www.w3.org/2000/svg">
<path d="M58.9494 16.344C59.2802 16.344 59.5977 16.3109 59.9021 16.2448C60.2064 16.1786 60.5107 16.0992 60.8151 16.0066V18.2097C60.4975 18.342 60.1005 18.4545 59.6242 18.5471C59.1611 18.653 58.6516 18.7059 58.0959 18.7059C57.4475 18.7059 56.8653 18.6001 56.3493 18.3884C55.8465 18.1766 55.4429 17.8128 55.1385 17.2967C54.8474 16.7674 54.7019 16.0397 54.7019 15.1134V9.89343H53.2927V8.64301L54.9202 7.65061L55.7737 5.3681H57.6592V7.67046H60.696V9.89343H57.6592V15.1134C57.6592 15.5236 57.7783 15.8346 58.0165 16.0463C58.2547 16.2448 58.5656 16.344 58.9494 16.344ZM65.7491 6.49943C65.7491 7.02871 65.7293 7.53814 65.6896 8.02773C65.6631 8.51731 65.6367 8.86134 65.6102 9.05982H65.769C66.0072 8.68932 66.285 8.39161 66.6026 8.16666C66.9202 7.92849 67.2708 7.75647 67.6545 7.65061C68.0515 7.53153 68.4683 7.47198 68.905 7.47198C69.6856 7.47198 70.3671 7.61092 70.9493 7.88879C71.5315 8.16666 71.9814 8.5967 72.299 9.17891C72.6298 9.76111 72.7952 10.5153 72.7952 11.4416V18.5074H69.8378V12.1759C69.8378 11.3953 69.6923 10.8131 69.4012 10.4293C69.1233 10.0324 68.6866 9.83389 68.0912 9.83389C67.4958 9.83389 67.026 9.97283 66.682 10.2507C66.3512 10.5286 66.113 10.9321 65.9675 11.4614C65.8219 11.9907 65.7491 12.6391 65.7491 13.4065V18.5074H62.7918V3.423H65.7491V6.49943ZM80.1037 7.47198C81.1093 7.47198 81.9694 7.66385 82.6839 8.04757C83.4117 8.4313 83.9741 8.98704 84.371 9.7148C84.768 10.4426 84.9665 11.3357 84.9665 12.3943V13.8233H77.98C78.0064 14.6569 78.2512 15.3119 78.7143 15.7883C79.1907 16.2646 79.8457 16.5028 80.6793 16.5028C81.3806 16.5028 82.0157 16.4366 82.5847 16.3043C83.1537 16.1588 83.7425 15.9404 84.3512 15.6493V17.9319C83.8219 18.1965 83.2595 18.3884 82.6641 18.5074C82.0819 18.6398 81.374 18.7059 80.5404 18.7059C79.4553 18.7059 78.496 18.5074 77.6624 18.1105C76.8288 17.7003 76.1738 17.085 75.6975 16.2646C75.2211 15.4442 74.9829 14.4122 74.9829 13.1683C74.9829 11.8981 75.1946 10.8461 75.6181 10.0125C76.0547 9.16568 76.6568 8.53054 77.4242 8.10712C78.1917 7.68369 79.0848 7.47198 80.1037 7.47198ZM80.1236 9.57587C79.5546 9.57587 79.0782 9.76111 78.6945 10.1316C78.324 10.5021 78.1057 11.0777 78.0395 11.8584H82.1877C82.1877 11.4217 82.1083 11.0314 81.9496 10.6874C81.804 10.3433 81.5791 10.0721 81.2747 9.87359C80.9704 9.67511 80.5867 9.57587 80.1236 9.57587ZM60.5372 27.472C61.7016 27.472 62.6345 27.7896 63.3358 28.4247C64.037 29.0466 64.3877 30.0522 64.3877 31.4416V38.5074H61.4303V32.1759C61.4303 31.3953 61.2914 30.8131 61.0135 30.4293C60.7357 30.0324 60.2924 29.8339 59.6837 29.8339C58.784 29.8339 58.1687 30.1448 57.8379 30.7667C57.5071 31.3754 57.3417 32.2553 57.3417 33.4065V38.5074H54.3843V27.6705H56.647L57.0439 29.0598H57.2027C57.4409 28.6893 57.732 28.3916 58.076 28.1667C58.4201 27.9285 58.8038 27.7565 59.2272 27.6506C59.6506 27.5315 60.0873 27.472 60.5372 27.472ZM71.6962 27.472C72.7019 27.472 73.5619 27.6638 74.2765 28.0476C75.0042 28.4313 75.5666 28.987 75.9635 29.7148C76.3605 30.4426 76.559 31.3357 76.559 32.3943V33.8233H69.5725C69.599 34.6569 69.8438 35.3119 70.3069 35.7883C70.7832 36.2646 71.4382 36.5028 72.2718 36.5028C72.9731 36.5028 73.6083 36.4366 74.1772 36.3043C74.7462 36.1588 75.335 35.9404 75.9437 35.6493V37.9319C75.4144 38.1965 74.8521 38.3884 74.2566 38.5074C73.6744 38.6398 72.9665 38.7059 72.1329 38.7059C71.0479 38.7059 70.0886 38.5074 69.2549 38.1105C68.4213 37.7003 67.7663 37.085 67.29 36.2646C66.8136 35.4442 66.5755 34.4122 66.5755 33.1683C66.5755 31.8981 66.7872 30.8461 67.2106 30.0125C67.6473 29.1657 68.2493 28.5305 69.0168 28.1071C69.7842 27.6837 70.6774 27.472 71.6962 27.472ZM71.7161 29.5759C71.1471 29.5759 70.6708 29.7611 70.287 30.1316C69.9165 30.5021 69.6982 31.0777 69.632 31.8584H73.7803C73.7803 31.4217 73.7009 31.0314 73.5421 30.6874C73.3965 30.3433 73.1716 30.0721 72.8673 29.8736C72.5629 29.6751 72.1792 29.5759 71.7161 29.5759ZM83.3236 36.344C83.6544 36.344 83.9719 36.3109 84.2763 36.2448C84.5806 36.1786 84.8849 36.0992 85.1893 36.0066V38.2097C84.8717 38.342 84.4748 38.4545 83.9984 38.5471C83.5353 38.653 83.0259 38.7059 82.4701 38.7059C81.8217 38.7059 81.2395 38.6001 80.7235 38.3884C80.2207 38.1766 79.8171 37.8128 79.5128 37.2967C79.2217 36.7674 79.0761 36.0397 79.0761 35.1134V29.8934H77.6669V28.643L79.2944 27.6506L80.1479 25.3681H82.0335V27.6705H85.0702V29.8934H82.0335V35.1134C82.0335 35.5236 82.1525 35.8346 82.3907 36.0463C82.6289 36.2448 82.9398 36.344 83.3236 36.344ZM95.2441 34.7165C95.1912 34.4915 95.1118 34.1607 95.0059 33.7241C94.9133 33.2742 94.8075 32.7979 94.6884 32.295C94.5693 31.779 94.4568 31.3093 94.351 30.8858C94.2451 30.4492 94.1723 30.1316 94.1326 29.9331H94.0532C94.0136 30.1316 93.9408 30.4492 93.8349 30.8858C93.7423 31.3093 93.6364 31.779 93.5174 32.295C93.3983 32.7979 93.2858 33.2742 93.1799 33.7241C93.0741 34.174 92.9947 34.518 92.9418 34.7562L92.0685 38.5074H88.8928L85.8163 27.6705H88.7538L90.0043 32.4737C90.0969 32.8045 90.1763 33.2014 90.2424 33.6645C90.3218 34.1277 90.3946 34.5776 90.4608 35.0142C90.5269 35.4376 90.5732 35.775 90.5997 36.0265H90.6791C90.6923 35.8412 90.7188 35.5964 90.7585 35.2921C90.7982 34.9745 90.8445 34.6503 90.8974 34.3195C90.9636 33.9887 91.0165 33.691 91.0562 33.4264C91.1091 33.1485 91.1488 32.9633 91.1753 32.8706L92.5051 27.6705H95.7602L97.0304 32.8706C97.0834 33.0559 97.1429 33.3536 97.2091 33.7638C97.2885 34.174 97.3546 34.5908 97.4076 35.0142C97.4737 35.4376 97.5068 35.775 97.5068 36.0265H97.5862C97.6126 35.8015 97.659 35.4773 97.7251 35.0539C97.7913 34.6172 97.8641 34.1607 97.9434 33.6844C98.0361 33.208 98.1287 32.8045 98.2213 32.4737L99.5114 27.6705H102.409L99.2931 38.5074H96.0777L95.2441 34.7165ZM113.811 33.0691C113.811 33.9689 113.685 34.7694 113.434 35.4707C113.196 36.172 112.845 36.7674 112.382 37.257C111.932 37.7334 111.383 38.0973 110.734 38.3487C110.086 38.5868 109.352 38.7059 108.531 38.7059C107.777 38.7059 107.076 38.5868 106.427 38.3487C105.792 38.0973 105.243 37.7334 104.78 37.257C104.317 36.7674 103.953 36.172 103.688 35.4707C103.437 34.7694 103.311 33.9689 103.311 33.0691C103.311 31.865 103.523 30.8528 103.946 30.0324C104.37 29.1988 104.978 28.5636 105.772 28.127C106.566 27.6903 107.506 27.472 108.591 27.472C109.61 27.472 110.509 27.6903 111.29 28.127C112.071 28.5636 112.686 29.1988 113.136 30.0324C113.586 30.8528 113.811 31.865 113.811 33.0691ZM106.328 33.0691C106.328 33.7836 106.401 34.3857 106.546 34.8753C106.705 35.3516 106.95 35.7155 107.281 35.9669C107.612 36.2051 108.042 36.3242 108.571 36.3242C109.1 36.3242 109.524 36.2051 109.841 35.9669C110.172 35.7155 110.41 35.3516 110.556 34.8753C110.715 34.3857 110.794 33.7836 110.794 33.0691C110.794 32.3546 110.715 31.7591 110.556 31.2828C110.41 30.8064 110.172 30.4492 109.841 30.211C109.51 29.9728 109.08 29.8537 108.551 29.8537C107.77 29.8537 107.201 30.125 106.844 30.6675C106.5 31.1968 106.328 31.9973 106.328 33.0691ZM122.11 27.472C122.256 27.472 122.428 27.4786 122.626 27.4918C122.825 27.5051 122.983 27.5249 123.102 27.5514L122.884 30.3301C122.791 30.3036 122.653 30.2838 122.467 30.2705C122.295 30.2441 122.143 30.2308 122.011 30.2308C121.627 30.2308 121.257 30.2838 120.899 30.3896C120.542 30.4823 120.218 30.6344 119.927 30.8461C119.649 31.0578 119.424 31.3423 119.252 31.6996C119.093 32.0436 119.014 32.4737 119.014 32.9897V38.5074H116.056V27.6705H118.299L118.736 29.4965H118.875C119.087 29.126 119.351 28.7886 119.669 28.4842C119.986 28.1799 120.35 27.9351 120.76 27.7499C121.184 27.5646 121.634 27.472 122.11 27.472ZM127.828 30.1713C127.828 30.5815 127.808 30.9917 127.769 31.4019C127.742 31.7988 127.709 32.2024 127.669 32.6126H127.709C127.841 32.4274 127.974 32.2421 128.106 32.0569C128.252 31.8716 128.397 31.6864 128.543 31.5011C128.688 31.3159 128.841 31.1372 128.999 30.9652L132.036 27.6705H135.37L131.063 32.3744L135.629 38.5074H132.215L129.099 34.121L127.828 35.1333V38.5074H124.871V23.423H127.828V30.1713Z" fill="#3E3E59"/>
<path d="M91.9388 18.5074L87.8104 7.67046H90.9067L92.9908 13.8432C93.0702 14.0814 93.1363 14.3328 93.1892 14.5974C93.2554 14.862 93.3017 15.1201 93.3282 15.3715C93.3679 15.6229 93.3943 15.8544 93.4076 16.0661H93.487C93.5002 15.8412 93.5267 15.603 93.5664 15.3516C93.6061 15.1002 93.6524 14.8488 93.7053 14.5974C93.7715 14.3328 93.8442 14.0814 93.9236 13.8432L96.0077 7.67046H99.1039L94.9756 18.5074H91.9388ZM103.418 7.67046V18.5074H100.46V7.67046H103.418ZM101.949 3.423C102.386 3.423 102.763 3.52886 103.08 3.74057C103.398 3.93905 103.557 4.31616 103.557 4.8719C103.557 5.41441 103.398 5.79152 103.08 6.00323C102.763 6.21495 102.386 6.3208 101.949 6.3208C101.499 6.3208 101.115 6.21495 100.798 6.00323C100.493 5.79152 100.341 5.41441 100.341 4.8719C100.341 4.31616 100.493 3.93905 100.798 3.74057C101.115 3.52886 101.499 3.423 101.949 3.423ZM109.267 6.93609C109.267 7.34628 109.253 7.74985 109.227 8.14681C109.2 8.54377 109.174 8.85472 109.147 9.07967H109.267C109.558 8.62978 109.948 8.25267 110.438 7.94833C110.927 7.63077 111.562 7.47198 112.343 7.47198C113.56 7.47198 114.546 7.94833 115.3 8.90104C116.055 9.84051 116.432 11.2299 116.432 13.0691C116.432 14.2997 116.253 15.3384 115.896 16.1852C115.552 17.0188 115.069 17.6474 114.447 18.0708C113.825 18.4942 113.097 18.7059 112.264 18.7059C111.47 18.7059 110.841 18.567 110.378 18.2891C109.928 17.998 109.558 17.6738 109.267 17.3166H109.068L108.572 18.5074H106.309V3.423H109.267V6.93609ZM111.39 9.83389C110.874 9.83389 110.464 9.93975 110.16 10.1515C109.855 10.3632 109.63 10.6874 109.485 11.124C109.353 11.5474 109.28 12.0833 109.267 12.7317V13.0493C109.267 14.0946 109.419 14.9017 109.723 15.4707C110.041 16.0265 110.61 16.3043 111.43 16.3043C112.039 16.3043 112.522 16.0265 112.879 15.4707C113.236 14.9017 113.415 14.088 113.415 13.0294C113.415 11.9709 113.23 11.1769 112.859 10.6477C112.502 10.1051 112.012 9.83389 111.39 9.83389ZM123.137 7.47198C124.142 7.47198 125.002 7.66385 125.717 8.04757C126.445 8.4313 127.007 8.98704 127.404 9.7148C127.801 10.4426 127.999 11.3357 127.999 12.3943V13.8233H121.013C121.039 14.6569 121.284 15.3119 121.747 15.7883C122.224 16.2646 122.879 16.5028 123.712 16.5028C124.413 16.5028 125.049 16.4366 125.618 16.3043C126.187 16.1588 126.775 15.9404 127.384 15.6493V17.9319C126.855 18.1965 126.292 18.3884 125.697 18.5074C125.115 18.6398 124.407 18.7059 123.573 18.7059C122.488 18.7059 121.529 18.5074 120.695 18.1105C119.862 17.7003 119.207 17.085 118.73 16.2646C118.254 15.4442 118.016 14.4122 118.016 13.1683C118.016 11.8981 118.227 10.8461 118.651 10.0125C119.088 9.16568 119.69 8.53054 120.457 8.10712C121.225 7.68369 122.118 7.47198 123.137 7.47198ZM123.156 9.57587C122.587 9.57587 122.111 9.76111 121.727 10.1316C121.357 10.5021 121.139 11.0777 121.072 11.8584H125.221C125.221 11.4217 125.141 11.0314 124.982 10.6874C124.837 10.3433 124.612 10.0721 124.308 9.87359C124.003 9.67511 123.62 9.57587 123.156 9.57587ZM137.761 15.2921C137.761 16.0198 137.589 16.6417 137.245 17.1578C136.901 17.6606 136.385 18.0443 135.697 18.309C135.009 18.5736 134.155 18.7059 133.136 18.7059C132.382 18.7059 131.734 18.653 131.191 18.5471C130.649 18.4545 130.106 18.2957 129.564 18.0708V15.6295C130.146 15.8941 130.774 16.1125 131.449 16.2845C132.124 16.4565 132.72 16.5425 133.236 16.5425C133.818 16.5425 134.228 16.4565 134.466 16.2845C134.718 16.1125 134.843 15.8875 134.843 15.6096C134.843 15.4244 134.79 15.259 134.684 15.1134C134.592 14.9679 134.38 14.8025 134.049 14.6172C133.719 14.432 133.203 14.1938 132.501 13.9027C131.826 13.6116 131.271 13.3271 130.834 13.0493C130.397 12.7582 130.073 12.4141 129.861 12.0172C129.65 11.607 129.544 11.0975 129.544 10.4889C129.544 9.48324 129.934 8.72902 130.715 8.22621C131.496 7.72339 132.534 7.47198 133.831 7.47198C134.506 7.47198 135.148 7.53814 135.756 7.67046C136.365 7.80278 136.993 8.02111 137.642 8.32545L136.749 10.4492C136.219 10.2242 135.717 10.039 135.24 9.89343C134.764 9.73465 134.281 9.65526 133.791 9.65526C133.355 9.65526 133.024 9.7148 132.799 9.83389C132.587 9.95298 132.481 10.1316 132.481 10.3698C132.481 10.5418 132.534 10.7006 132.64 10.8461C132.759 10.9785 132.978 11.124 133.295 11.2828C133.626 11.4416 134.109 11.6533 134.744 11.9179C135.366 12.1693 135.902 12.434 136.352 12.7118C136.802 12.9765 137.146 13.3139 137.384 13.7241C137.635 14.121 137.761 14.6437 137.761 15.2921Z" fill="#FF3700"/>
<circle cx="22.1312" cy="22.0363" r="21.7948" fill="white" stroke="#D2D2D2" stroke-width="0.5"/>
<path d="M33.6077 13.9455C33.1789 13.2213 32.4101 12.7888 31.5491 12.7888H28.367C27.575 12.7888 26.8379 13.1699 26.3964 13.8079L24.7254 16.223C24.8715 16.2775 24.9912 16.3627 25.0833 16.4696C25.096 16.4809 25.1098 16.4912 25.1214 16.5035L26.803 14.0729C27.1535 13.5665 27.738 13.2645 28.367 13.2645H31.5491C32.2322 13.2645 32.8432 13.6076 33.1831 14.1818C33.523 14.7561 33.5209 15.4413 33.1757 16.0135L24.432 30.5362L16.6901 17.8112C16.8596 17.6427 16.9633 17.4137 16.9633 17.1599C16.9633 16.6442 16.5324 16.2261 16.0008 16.2261C15.4692 16.2261 15.0382 16.6442 15.0382 17.1599C15.0382 17.6756 15.4692 18.0937 16.0008 18.0937C16.094 18.0937 16.184 18.0804 16.2698 18.0557L24.4342 31.4752L33.5982 16.2528C34.0324 15.5317 34.0355 14.6688 33.6067 13.9445L33.6077 13.9455Z" fill="#FF1E00"/>
<path d="M12.4572 16.1638C12.1564 15.6615 12.3555 15.2167 12.455 15.0492C12.5546 14.8818 12.8511 14.4914 13.4504 14.4914H16.7554C17.1663 14.4914 17.5485 14.7071 17.7529 15.0533L24.3829 26.3216L29.4309 17.7017C29.8025 17.0678 29.3303 16.2809 28.5784 16.2809C28.2258 16.2809 27.8996 16.4648 27.726 16.7627L24.3797 22.4775L19.4567 14.1103C18.905 13.1724 17.8704 12.5889 16.7564 12.5889H13.4833C12.3724 12.5889 11.3326 13.1487 10.7703 14.0784C10.1953 15.0287 10.1932 16.1679 10.7618 17.1192L21.1224 34.4434C21.5047 35.0834 22.4609 35.0731 22.8294 34.4249C22.9957 34.1321 22.9915 33.7777 22.8189 33.488L12.4582 16.1638H12.4572Z" fill="#FF1E00"/>
<path fill-rule="evenodd" clip-rule="evenodd" d="M24.6058 16.7779V16.781L24.6079 16.7831C24.6016 16.7954 24.6005 16.7944 24.591 16.8067L24.4215 17.0327C24.2606 17.2515 24.0869 17.4724 23.926 17.6912L23.8021 17.8545C23.782 17.8822 23.7597 17.909 23.7406 17.9367L23.6168 18.1L23.6083 18.1113L23.6168 18.1083C23.6877 18.0723 23.7608 18.0374 23.8338 18.0004C23.8709 17.9819 23.9048 17.9655 23.9418 17.9459C23.9609 17.9357 24.0361 17.8966 24.052 17.8925L24.5359 17.6491C24.5539 17.6398 24.5931 17.6234 24.6069 17.6131V16.7944C24.6227 16.7902 24.6164 16.7944 24.6418 16.8262L24.7329 16.9464C24.7752 16.9988 24.8133 17.0553 24.8546 17.1087L25.5874 18.0815C25.5874 18.0815 25.5895 18.0867 25.5906 18.0723L25.4106 17.044L25.4074 17.0296C25.3746 17.0214 25.3396 17.0091 25.3079 16.9988L24.6757 16.8026C24.6609 16.7985 24.6376 16.7933 24.6291 16.7841H24.6111C24.6259 16.7687 24.6333 16.7563 24.6439 16.7409C24.7466 16.5992 24.8758 16.4369 24.9828 16.2941C25.004 16.2663 25.0241 16.2396 25.0442 16.2129C25.0548 16.1985 25.0643 16.1872 25.0749 16.1728C25.0802 16.1657 25.0855 16.1595 25.0897 16.1523C25.1046 16.1338 25.1014 16.142 25.1024 16.1276C25.0717 16.0742 25.0103 15.9479 24.9785 15.8852L24.6217 15.1846C24.6058 15.1538 24.61 15.1558 24.6058 15.161C24.609 15.2247 24.6058 15.2976 24.6058 15.3623V15.5647C24.6058 15.6448 24.61 16.7543 24.6037 16.7759L24.6058 16.7779Z" fill="#E21500"/>
<path fill-rule="evenodd" clip-rule="evenodd" d="M24.6074 17.6133C24.6222 17.6164 24.7112 17.6636 24.7313 17.6749C24.7726 17.6965 24.8139 17.716 24.8541 17.7376C24.8943 17.7591 24.9356 17.7786 24.9769 17.8002L25.5994 18.1165L25.5909 18.0724C25.5909 18.0867 25.592 18.0765 25.5877 18.0816L24.8551 17.109C24.8128 17.0556 24.7747 17.0002 24.7334 16.9468L24.6424 16.8266C24.6169 16.7937 24.6233 16.7907 24.6085 16.7948V17.6133H24.6074Z" fill="#FF1E00"/>
<path fill-rule="evenodd" clip-rule="evenodd" d="M25.1043 16.1291C25.1032 16.1434 25.1053 16.1342 25.0915 16.1537C25.0863 16.1599 25.082 16.1671 25.0767 16.1743C25.0661 16.1886 25.0577 16.1999 25.046 16.2143C25.0259 16.241 25.0047 16.2677 24.9846 16.2954C24.8777 16.4372 24.7496 16.6005 24.6459 16.7422C24.6353 16.7576 24.6268 16.7699 24.613 16.7843H24.631C24.6543 16.7843 24.793 16.736 24.8269 16.7247L26.1057 16.318C26.1364 16.3088 26.1756 16.2934 26.2063 16.2872C26.1915 16.279 25.3922 16.166 25.2419 16.1455C25.2196 16.1424 25.1159 16.1209 25.1043 16.1301V16.1291Z" fill="#E21500"/>
<path fill-rule="evenodd" clip-rule="evenodd" d="M23.7994 17.0475L23.6173 18.0981L23.7412 17.9348C23.7613 17.9081 23.7825 17.8804 23.8026 17.8527L23.9264 17.6894C24.0863 17.4706 24.261 17.2498 24.4219 17.0311L24.5913 16.8051C24.6008 16.7928 24.6019 16.7938 24.6082 16.7815C24.5405 16.799 24.4674 16.8246 24.4018 16.8452C24.333 16.8667 24.2652 16.8883 24.1964 16.9088L23.8132 17.028C23.7962 17.0352 23.8079 17.0321 23.8015 17.0465L23.7994 17.0475Z" fill="#FF1E00"/>
<path fill-rule="evenodd" clip-rule="evenodd" d="M23.0035 16.2882L23.1538 16.4289C23.1708 16.4443 23.1856 16.4607 23.2025 16.4771C23.2703 16.5398 23.337 16.6035 23.4047 16.6661C23.4132 16.6743 23.4185 16.6825 23.428 16.6897C23.4375 16.699 23.445 16.7051 23.4545 16.7133L23.7033 16.9485C23.7139 16.9588 23.7996 17.0317 23.7996 17.0471C23.806 17.0327 23.7943 17.0358 23.8112 17.0286L24.1945 16.9095C24.2633 16.889 24.331 16.8674 24.3999 16.8458C24.4665 16.8253 24.5396 16.7996 24.6063 16.7822V16.7801C24.5407 16.7637 24.4687 16.739 24.4041 16.7185C24.3385 16.6969 24.2707 16.6774 24.2051 16.6569C23.9393 16.5757 23.6768 16.4905 23.4111 16.4104L23.0247 16.2902C23.0183 16.2871 23.0194 16.2892 23.0162 16.2841L23.0024 16.2882H23.0035Z" fill="#E21500"/>
<path fill-rule="evenodd" clip-rule="evenodd" d="M24.1151 16.1268C24.1235 16.1412 24.1352 16.1556 24.1458 16.1689L24.3596 16.4524C24.4009 16.5079 24.4422 16.5602 24.4824 16.6157C24.5174 16.664 24.5735 16.7317 24.6042 16.7769C24.6116 16.7554 24.6063 15.6452 24.6063 15.5661V15.3638C24.6063 15.2991 24.6095 15.2261 24.6063 15.1625C24.5957 15.1717 24.384 15.5938 24.3596 15.6431C24.3183 15.7242 24.277 15.8054 24.2368 15.8855C24.2114 15.9348 24.1299 16.0878 24.114 16.1268H24.1151Z" fill="#FF1E00"/>
<path fill-rule="evenodd" clip-rule="evenodd" d="M23.0181 16.2846C23.0212 16.2897 23.0191 16.2877 23.0265 16.2907L23.4129 16.4109C23.6787 16.491 23.9423 16.5773 24.2069 16.6574C24.2726 16.6769 24.3393 16.6974 24.406 16.719C24.4705 16.7395 24.5415 16.7642 24.606 16.7806V16.7775C24.5753 16.7334 24.5192 16.6646 24.4843 16.6163C24.443 16.5608 24.4028 16.5074 24.3615 16.453L24.1476 16.1695C24.137 16.1562 24.1244 16.1418 24.1169 16.1274L23.0191 16.2846H23.0181Z" fill="#FF1E00"/>
<path fill-rule="evenodd" clip-rule="evenodd" d="M24.6298 16.7845C24.6382 16.7927 24.6615 16.7978 24.6763 16.803L25.3084 16.9991C25.3412 17.0094 25.3761 17.0217 25.4079 17.0299L25.411 17.0443C25.4227 17.0381 25.5952 16.8718 25.6111 16.8564L25.7614 16.7157C25.7699 16.7074 25.7773 16.7013 25.7858 16.6931C25.7953 16.6849 25.8006 16.6766 25.8102 16.6674C25.8779 16.6058 25.9435 16.5421 26.0102 16.4805L26.1341 16.3634C26.1563 16.3418 26.1839 16.3079 26.2093 16.2925C26.2061 16.2874 26.2093 16.2905 26.205 16.2864C26.1743 16.2925 26.1352 16.3079 26.1045 16.3172L24.8256 16.7239C24.7917 16.7352 24.6531 16.7834 24.6298 16.7845Z" fill="#FF1E00"/>
<path fill-rule="evenodd" clip-rule="evenodd" d="M23.6174 18.1077C23.6174 18.1241 23.6163 18.1118 23.6216 18.117C23.6491 18.0944 24.0396 17.9086 24.0523 17.8932C24.0353 17.8973 23.9613 17.9363 23.9422 17.9466C23.9052 17.965 23.8703 17.9815 23.8343 18.001C23.7613 18.0379 23.6893 18.0728 23.6174 18.1087V18.1077Z" fill="#FF1E00"/>
</svg>
